<svg enable-background="new 0 0 354.5 160.088" viewBox="0 0 354.5 160.088" xmlns="http://www.w3.org/2000/svg"><g stroke="#000" stroke-miterlimit="10" stroke-width="4"><path d="m209 62 80.396-57.149c.799-.568 5.584-2.862 4.604-2.851l-180 3-85 55v31h180z" fill="#192e99"/><path d="m197.778 10.661-79.174 15.409-15.375 9.406c-.718.439-.605 1.516.189 1.796l16.465 3.743 80.871-14.35z" fill="#fbed21"/><path d="m197.778 10.661 12.273-2.166c.54-.095 1.057.262 1.157.802l2.61 14.038c.102.546-.262 1.071-.809 1.168l-12.255 2.163z" fill="#ff7bab"/><path d="m120.138 27.57.997 11.651c.06.706-.612 1.249-1.289 1.041l-16.552-3.121c-.777-.238-.96-1.255-.315-1.75l15.555-8.53c.626-.48 1.536-.078 1.604.709z" fill="#c6b198"/><path d="m191.884 13.705 2.095 13.203c.088.553.612.926 1.162.828l4.666-.902c.529-.094.889-.589.816-1.121l-1.847-13.437c-.08-.583-.643-.971-1.216-.838l-4.914 1.137c-.512.117-.845.611-.762 1.13z" fill="#cbcbcb"/><path d="m10 127h196v31h-196z" fill="#c0272d"/><path d="m207.571 157.907 93-65.609c.269-.187.429-.494.429-.821v-27.546c0-.811-.915-1.285-1.577-.817l-93 65.587c-.265.187-.423.492-.423.817v27.568c0 .808.908 1.282 1.571.821z" fill="#f2eae2"/><path d="m209 125 83-57v-34l-83 58z" fill="#e5d9cc"/><path d="m2 91v36h206c.552 0 1-.448 1-1v-35z" fill="#0071bb"/><path d="m209 91 86-57 .059-31.217c-.026-.781-.897-.232-1.55.198l-84.509 57.019z" fill="#f2e0ce"/><path d="m29 60h180" fill="#192e99"/><g fill="#c0272d"><path d="m301 114c3.302-9.905 16-9 25-7s18-3 23 3 4 20 1 29-11 15-23 15-20-4-23-11-6-20-3-29z"/><path d="m321 112s3 3 6 3 6-1 6-1"/><path d="m329 96s-3 3-3 9 1 10 1 10"/></g></g></svg>