<svg enable-background="new 0 0 324 140" viewBox="0 0 324 140" xmlns="http://www.w3.org/2000/svg"><g stroke="#000" stroke-miterlimit="10" stroke-width="4"><path d="m245 38v91h53l24-13v-87l-12-14v-13h-51v11z" fill="#e6e6e6"/><path d="m245 38h53l24-9" fill="none"/><path d="m298 129v-91l11-23h-51" fill="none"/><path d="m108 80c47 0 108 17 107 32s-46 26-107 26-106-11-106-26 60-32 106-32z" fill="#e6e6e6"/><path d="m245 80 53-24.9v36.4l-53 25.481z" fill="#29abe2"/><path d="m104 69c-12.9 6.45-24.965 27.741 13 33 27.75 3.844 41.123-8.733 43-18 1.588-7.841-6.562-15.712-23-19-15-3-19-3-33 4z" fill="#8c6239"/><path d="m130 96c-12.9 6.45-24.965 27.741 13 33 27.75 3.844 45.123-8.733 47-18 1.588-7.841-8-16-24-19s-22-3-36 4z" fill="#a67c52"/><path d="m33 82c-10.591 9.789-17 32 25.098 27.802 41.899-4.178 45.132-21.119 42.902-28.802s-9.798-15.578-26-14-30.506 4.376-42 15z" fill="#a67c52"/><path d="m65 94c-12.9 6.45-23 32 19 35s49-8 49-16-7-21-23-24-31-2-45 5z" fill="#8c6239"/><g fill="#42210b"><path d="m68 64s-7 3-7 7 12 4 12 4v-4z"/><path d="m49 88c-1 2 5 8 5 8l7-4-3-5z"/><path d="m55 106c7 0 8 8 7 10s-10.665.324-10.665.324z"/><path d="m90 111c6 0 9 4 9 4s0 8-4 7-12-7-10-9 5-2 5-2z"/><path d="m121 111c0 4-3 9-7 6s-4-8-2-9 9 3 9 3z"/><path d="m119 69c4 1 8 7 7 8s-6 5-9 3 2-11 2-11z"/><path d="m146.694 67.713c-.637 4.989-4.923 6.977-4.923 6.977s-7.936-1.013-6.519-4.212c1.416-3.199 8.217-9.092 9.989-7.176 1.771 1.917 1.453 4.411 1.453 4.411z"/><path d="m132.287 79.688c6.713-.688 7.713 4.312 6.713 5.312s-9 3-10 0 3.287-5.312 3.287-5.312z"/><path d="m35 94c0-5-13 1-13 1s3 6 8 6 5-7 5-7z"/><path d="m82 92c3-2 10 3 8 7s-8.099 3.911-10.549 2.455c-2.451-1.455 2.549-9.455 2.549-9.455z"/><path d="m103 95c-1.855-3.092 9-7 9-7s6 11 2 11-8 1-11-4z"/><path d="m176.598 90.651c3.22 2.576 4.356 9.697 3.03 10.189s-7.538 2.045-9.432-1.023 6.402-9.166 6.402-9.166z"/><path d="m161 104c6 0 9 4 9 4s0 8-4 7-12-7-10-9 5-2 5-2z"/><path d="m148.165 122.694s.448 7.603 4.21 8.959 7.833-9.932 7.833-9.932l-3.763-1.357z"/><path d="m85 77c6 0 7 3 5 7s-8.099 3.911-10.549 2.455c-2.451-1.455 5.549-9.455 5.549-9.455z"/><path d="m147 99c0-5-13 1-13 1s3 6 8 6 5-7 5-7z"/></g></g></svg>