<?xml version="1.0" encoding="utf-8"?>
<!-- Generator: Adobe Illustrator 22.1.0, SVG Export Plug-In . SVG Version: 6.00 Build 0)  -->
<svg version="1.1" xmlns="http://www.w3.org/2000/svg" xmlns:xlink="http://www.w3.org/1999/xlink" x="0px" y="0px"
	 viewBox="0 0 324 140" style="enable-background:new 0 0 324 140;" xml:space="preserve">
<style type="text/css">
	.st0{display:none;}
	.st1{fill:#E6E6E6;stroke:#000000;stroke-width:4;stroke-miterlimit:10;}
	.st2{fill:none;stroke:#000000;stroke-width:4;stroke-miterlimit:10;}
	.st3{fill:#29ABE2;stroke:#000000;stroke-width:4;stroke-miterlimit:10;}
	.st4{fill:#8C6239;stroke:#000000;stroke-width:4;stroke-miterlimit:10;}
	.st5{fill:#A67C52;stroke:#000000;stroke-width:4;stroke-miterlimit:10;}
	.st6{fill:#42210B;stroke:#000000;stroke-width:4;stroke-miterlimit:10;}
</style>
<g id="Layer_1" class="st0">
	
		<image style="display:inline;overflow:visible;" width="4032" height="3024" xlink:href="../../../../Downloads/IMG_2148.JPG"  transform="matrix(0.2494 0 0 0.2494 -446 -276)">
	</image>
</g>
<g id="milk_and_plate">
	<polygon class="st1" points="245,38 245,129 298,129 322,116 322,29 310,15 310,2 259,2 259,13 	"/>
	<polyline class="st2" points="245,38 298,38 322,29 	"/>
	<polyline class="st2" points="298,129 298,38 309,15 258,15 	"/>
	<path class="st1" d="M108,80c47,0,108,17,107,32s-46,26-107,26S2,127,2,112S62,80,108,80z"/>
	<polygon class="st3" points="245,80 298,55.1 298,91.5 245,116.981 	"/>
</g>
<g id="cookie_4">
	<path class="st4" d="M104,69c-12.9,6.45-24.965,27.741,13,33c27.75,3.844,41.123-8.733,43-18c1.588-7.841-6.562-15.712-23-19
		C122,62,118,62,104,69z"/>
</g>
<g id="cookie_3">
	<path class="st5" d="M130,96c-12.9,6.45-24.965,27.741,13,33c27.75,3.844,45.123-8.733,47-18c1.588-7.841-8-16-24-19S144,89,130,96
		z"/>
</g>
<g id="cookie_2">
	<path class="st5" d="M33,82c-10.591,9.789-17,32,25.098,27.802C99.997,105.624,103.23,88.683,101,81s-9.798-15.578-26-14
		S44.494,71.376,33,82z"/>
</g>
<g id="cookie_1">
	<path class="st4" d="M65,94c-12.9,6.45-23,32,19,35s49-8,49-16s-7-21-23-24S79,87,65,94z"/>
</g>
<g id="choco_chips">
	<path class="st6" d="M68,64c0,0-7,3-7,7s12,4,12,4v-4L68,64z"/>
	<path class="st6" d="M49,88c-1,2,5,8,5,8l7-4l-3-5L49,88z"/>
	<path class="st6" d="M55,106c7,0,8,8,7,10s-10.665,0.324-10.665,0.324L55,106z"/>
	<path class="st6" d="M90,111c6,0,9,4,9,4s0,8-4,7s-12-7-10-9S90,111,90,111z"/>
	<path class="st6" d="M121,111c0,4-3,9-7,6s-4-8-2-9S121,111,121,111z"/>
	<path class="st6" d="M119,69c4,1,8,7,7,8s-6,5-9,3S119,69,119,69z"/>
	<path class="st6" d="M146.694,67.713c-0.637,4.989-4.923,6.977-4.923,6.977s-7.936-1.013-6.519-4.212
		c1.416-3.199,8.217-9.092,9.989-7.176C147.012,65.219,146.694,67.713,146.694,67.713z"/>
	<path class="st6" d="M132.287,79.688C139,79,140,84,139,85s-9,3-10,0S132.287,79.688,132.287,79.688z"/>
	<path class="st6" d="M35,94c0-5-13,1-13,1s3,6,8,6S35,94,35,94z"/>
	<path class="st6" d="M82,92c3-2,10,3,8,7s-8.099,3.911-10.549,2.455C77,100,82,92,82,92z"/>
	<path class="st6" d="M103,95c-1.855-3.092,9-7,9-7s6,11,2,11S106,100,103,95z"/>
	<path class="st6" d="M176.598,90.651c3.22,2.576,4.356,9.697,3.03,10.189c-1.326,0.492-7.538,2.045-9.432-1.023
		C168.302,96.749,176.598,90.651,176.598,90.651z"/>
	<path class="st6" d="M161,104c6,0,9,4,9,4s0,8-4,7s-12-7-10-9S161,104,161,104z"/>
	<path class="st6" d="M148.165,122.694c0,0,0.448,7.603,4.21,8.959s7.833-9.932,7.833-9.932l-3.763-1.357L148.165,122.694z"/>
	<path class="st6" d="M85,77c6,0,7,3,5,7s-8.099,3.911-10.549,2.455C77,85,85,77,85,77z"/>
	<path class="st6" d="M147,99c0-5-13,1-13,1s3,6,8,6S147,99,147,99z"/>
</g>
</svg>
