<?xml version="1.0" encoding="utf-8"?>
<!-- Generator: Adobe Illustrator 22.1.0, SVG Export Plug-In . SVG Version: 6.00 Build 0)  -->
<svg version="1.1" xmlns="http://www.w3.org/2000/svg" xmlns:xlink="http://www.w3.org/1999/xlink" x="0px" y="0px"
	 viewBox="0 0 2000 674" style="enable-background:new 0 0 2000 674;" xml:space="preserve">
<style type="text/css">
	.st0{fill:none;stroke:#000000;stroke-width:4;stroke-miterlimit:10;}
	.st1{fill:#988575;stroke:#000000;stroke-width:4;stroke-miterlimit:10;}
	.st2{fill:#988575;stroke:#000000;stroke-width:3.6091;stroke-miterlimit:10;}
	.st3{fill:#363699;stroke:#000000;stroke-width:4;stroke-miterlimit:10;}
	.st4{fill:#FFFFFF;stroke:#000000;stroke-width:4;stroke-miterlimit:10;}
	.st5{fill:#A57C52;stroke:#000000;stroke-width:4;stroke-miterlimit:10;}
	.st6{fill:none;stroke:#000000;stroke-width:6;stroke-miterlimit:10;}
	.st7{fill:#A33A46;stroke:#000000;stroke-width:4;stroke-miterlimit:10;}
	.st8{fill:#D3B89C;stroke:#000000;stroke-width:4;stroke-miterlimit:10;}
	.st9{fill:#EFE8AF;stroke:#000000;stroke-width:4;stroke-miterlimit:10;}
	.st10{fill:#FBED21;stroke:#000000;stroke-width:4;stroke-miterlimit:10;}
	.st11{fill:#3C703E;stroke:#000000;stroke-width:4;stroke-miterlimit:10;}
	.st12{fill:#29AAE1;stroke:#000000;stroke-width:4;stroke-miterlimit:10;}
	.st13{fill:#25238C;stroke:#000000;stroke-width:4;stroke-miterlimit:10;}
	.st14{fill:#CBCBCB;stroke:#000000;stroke-width:4;stroke-miterlimit:10;}
	.st15{fill:#666666;stroke:#000000;stroke-width:4;stroke-miterlimit:10;}
	.st16{fill:#C0272D;stroke:#000000;stroke-width:4;stroke-miterlimit:10;}
	.st17{fill:#989898;stroke:#000000;stroke-width:4;stroke-miterlimit:10;}
	.st18{fill:#1A1A1A;stroke:#000000;stroke-width:4;stroke-miterlimit:10;}
</style>
<g id="table">
	<line class="st0" x1="0" y1="473" x2="2000" y2="473"/>
	<path class="st1" d="M248,429c0,0,9,68,32,87s118,18,138,1s32-87,32-87s-64,6-100,6S248,429,248,429z"/>
	<path class="st1" d="M248,454c0,0,9,68,32,87s118,18,138,1s32-87,32-87s-64,6-100,6S248,454,248,454z"/>
	<path class="st1" d="M248,480c0,0,9,68,32,87s118,18,138,1s32-87,32-87s-64,6-100,6S248,480,248,480z"/>
	<path d="M699.723,633.073l-14.094-7.867c-1.696-0.946-2.309-3.108-1.362-4.804l5.331-9.551c0.947-1.696,3.108-2.309,4.804-1.362
		l14.094,7.867L699.723,633.073z"/>
	<line class="st2" x1="722.447" y1="635.45" x2="611.553" y2="573.55"/>
	<line class="st1" x1="704.029" y1="617.153" x2="725.859" y2="629.338"/>
	<line class="st1" x1="697.206" y1="629.377" x2="719.035" y2="641.562"/>
	<path d="M724.34,592.483l-15.983,2.252c-1.923,0.271-3.718-1.081-3.989-3.004l-1.526-10.831c-0.271-1.923,1.081-3.718,3.004-3.989
		l15.983-2.252L724.34,592.483z"/>
	<line class="st2" x1="743.879" y1="580.641" x2="618.121" y2="598.359"/>
	<line class="st1" x1="718.147" y1="577.198" x2="742.903" y2="573.71"/>
	<line class="st1" x1="720.1" y1="591.061" x2="744.856" y2="587.573"/>
	<path d="M673.462,654.466l-16.069-1.522c-1.933-0.183-3.365-1.915-3.182-3.848l1.031-10.89c0.183-1.933,1.915-3.365,3.848-3.182
		l16.069,1.522L673.462,654.466z"/>
	<line class="st2" x1="695.217" y1="647.486" x2="568.783" y2="635.514"/>
	<line class="st1" x1="670.988" y1="638.161" x2="695.877" y2="640.517"/>
	<line class="st1" x1="669.669" y1="652.098" x2="694.557" y2="654.455"/>
</g>
<g id="left_body">
	<path class="st3" d="M750.639,240.721c0,0,24.361,15.279,51.361,15.279s49.581-7.64,49.581-7.64S875,247,919,284s88,84,81,104
		s-82,39-82,39v46H631.774c0,0-1.774-88,12.226-135s41-70,62-82S750.639,240.721,750.639,240.721"/>
</g>
<g id="left_head__x2B__details">
	<path class="st4" d="M792,44c55.732-11.4,128,49,118,117s-44,95-108,95c-69.065,0-105-69-97-122S748,53,792,44z"/>
	<polyline class="st0" points="715.513,473 768,439 761,379 680,429 	"/>
	<path class="st0" d="M715,351c0,0-3,22-4,33s-1,25.864-1,25.864"/>
	<path class="st5" d="M826,480c5.868-4.191-1-15-1-15l-58-116c0,0,11-18,1-38s-31-16-38-9s-8,19-2,32s26,20,26,20l60,118
		C814,472,819,485,826,480z"/>
	<path class="st4" d="M752,421c-3-15-6.045-37.182,11-44c15-6,35,5,37,28s-13.2,31.4-22,33C767,440,755,436,752,421z"/>
	<circle class="st0" cx="816" cy="173" r="13"/>
	<circle class="st6" cx="822.5" cy="176.5" r="1.5"/>
	<circle class="st0" cx="857" cy="173" r="13"/>
	<circle class="st6" cx="864.5" cy="176.5" r="1.5"/>
	<path class="st0" d="M918,427c0,0-27,4-41,4c-13,0-26-2-26-2l4-50c0,0,21-9,49-14s45-4,45-4"/>
	<path class="st7" d="M856,344l55-22l19.737,38.918c0,0-21,2.15-36.868,6.116S870,373.55,870,373.55L856,344z"/>
	<path class="st8" d="M869,351l36-14l13,25c0,0-5,1-18,4c-10.894,2.514-21,5-21,5L869,351z"/>
	<path class="st9" d="M856,344l55-22c0,0,5-2,3-6s-6-3-6-3l-57,23c0,0-4,2-2,6S856,344,856,344z"/>
	<path class="st4" d="M818,405c0-21,17-28,28-28s20,15,19,32c-0.783,13.319-9,24-20,24S818,421,818,405z"/>
	<path d="M780,225c2.473-9.894,12-14,25-14c12.166,0,20,5,23,12s-7,13-10,13s-9-4-16-4c-7.071,0-11,2-14,2C784,234,779,229,780,225z
		"/>
	<polygon class="st10" points="931,2 958,2 949,80 939,80 	"/>
	<circle class="st10" cx="944.5" cy="105.5" r="9.5"/>
</g>
<g id="right">
	<path class="st4" d="M1389,44c35.094-1.548,108,27,109,93s-29,118-99,119s-110-54-110-100S1321,47,1389,44z"/>
	<circle class="st0" cx="1344" cy="170" r="13"/>
	<circle class="st6" cx="1337.5" cy="173.5" r="1.5"/>
	<circle class="st0" cx="1389" cy="170" r="13"/>
	<circle class="st6" cx="1382.5" cy="172.5" r="1.5"/>
	<path d="M1375,220c3.451-5.752,8-10,18-11s20,6,21,13s-0.713,8.428-5,11c-5,3-7.972,0.219-15,1c-9,1-14,4-19,1S1372,225,1375,220z"
		/>
	<path class="st11" d="M1350.965,246.695c0,0,26.754,11.765,54.894,9.035c28.141-2.73,41.769-11.239,41.769-11.239
		S1492,245,1523,250s121,18,111,57s-119,57-119,57l4.414,109h-277.655c0,0,0.241-136,28.241-176
		C1291.226,266.677,1350.965,246.695,1350.965,246.695z"/>
</g>
<g id="right_details">
	<path class="st0" d="M1515,364c0,0-55,8-67,6s-12-63-12-63s2-5,40-17s61-16,61-16"/>
	<polygon class="st12" points="1308,351 1313,380 1418,361 1411,332 	"/>
	<path class="st4" d="M1394,343c-1-32,9-41,28-44s41,18,38,40s-16,35-33,35C1409.536,374,1394.729,366.334,1394,343z"/>
	<line class="st13" x1="1202" y1="378" x2="1308.862" y2="356"/>
	<line class="st13" x1="1308.862" y1="361.175" x2="1204" y2="383"/>
	<line class="st13" x1="1309" y1="367" x2="1206" y2="389"/>
	<line class="st13" x1="1311.966" y1="374" x2="1199" y2="397"/>
	<line class="st14" x1="1315.341" y1="392" x2="1315.341" y2="380"/>
	<line class="st14" x1="1265" y1="380" x2="1219" y2="504"/>
	<line class="st14" x1="1204" y1="497" x2="1272.833" y2="374.725"/>
	<line class="st14" x1="1189" y1="491" x2="1278.804" y2="369.115"/>
	<line class="st14" x1="1099" y1="516" x2="1217" y2="489"/>
	<line class="st14" x1="1117" y1="548" x2="1202" y2="484"/>
	<line class="st14" x1="1110" y1="493" x2="1224" y2="508"/>
	<line class="st14" x1="1110" y1="533" x2="1242" y2="483"/>
</g>
<g id="stove">
	<polygon class="st15" points="1132,672 1238,500 1871,500 1803,672 	"/>
	<ellipse class="st16" cx="1366" cy="543" rx="116" ry="18"/>
	<path class="st17" d="M1265.5,392H1468v129c0,0,0,12-7,19s-17,7-17,7h-152c0,0-13,1-20-6s-7-20-7-20L1265.5,392z"/>
	<ellipse class="st18" cx="1337" cy="622" rx="116" ry="18"/>
	<ellipse class="st18" cx="1653" cy="622" rx="116" ry="18"/>
	<ellipse class="st18" cx="1678" cy="548" rx="116" ry="18"/>
</g>
</svg>
