<svg enable-background="new 0 0 1919.019 603.302" viewBox="0 0 1919.019 603.302" xmlns="http://www.w3.org/2000/svg"><path d="m.009 342.378 1919 9" fill="none" stroke="#000" stroke-miterlimit="10" stroke-width="4"/><path d="m1412.509 23.878c56.5-16.5 128 2 133 81s-48 104-82 108-97-9-109-67 14.624-109.332 58-122z" fill="#fff" stroke="#000" stroke-miterlimit="10" stroke-width="4"/><circle cx="1399.509" cy="140.878" fill="none" r="1.5" stroke="#000" stroke-miterlimit="10" stroke-width="4"/><circle cx="1436.509" cy="144.878" fill="none" r="1.5" stroke="#000" stroke-miterlimit="10" stroke-width="4"/><circle cx="1441.009" cy="182.378" r="9"/><g stroke="#000" stroke-miterlimit="10"><g stroke-width="4"><path d="m1223.009 376.378c4 7 3.822 27.848 3.822 27.848s29.029-13.724 41.603-20.286c29.42-15.353 60.434-41.313 82.575-65.562v17s0 13 0 13l173 1s-7 14-24 27-42 24-42 24 26 1 28 18-1 24-1 24 79-32 103-75 6-80-12-109-70.155-60.693-70.155-60.693-19.858 14.841-48.845 15.693c-33.998 1-58.997-11.998-59-12-5.911-3.074-36.919 11.289-42 14-17.342 9.254-33.111 23.191-43.207 40.015-13.793 22.985-25.841 45.196-45.793 64.985-16.355 16.221-41.69 28.74-59 44 0 0 11 4 15 12" fill="#edd7a4"/><path d="m1511.009 283.378c9.66 8.115 18.346 18.684 20.405 31.443 2.364 14.652-1.543 24.446-9.405 36.557" fill="none"/><path d="m1351.009 320.671s0-17.293 3-28.293" fill="none"/><path d="m1484.233 412.726c10.721 16.06-.786 32.433-9.224 36.652-12 6-32 2-39-12-4.405-8.809-1-27 12-36s30.448 2.696 36.224 11.348z" fill="#fff"/><path d="m1246.009 434.378-179 9-2 50 87.514 106.197c.559.679 1.66.357 1.765-.517l5.722-47.68z" fill="#cfcfcf"/><path d="m1242.009 393.378-7.099-18.457c-1.398-3.635 1.285-7.543 5.18-7.543h186.337c6.01 0 11.646 2.915 15.12 7.819l12.357 14.621c.467.659-1.999 1.57-2.807 1.578z" fill="#efefef"/><path d="m1141.009 455.378c-16.852 3.745-21 21-17 30s15 22 36 18 22-27 17-36-18-16-36-12z" fill="#ddc68a"/><path d="m1153.617 480.705c-16.852 3.745-21 21-17 30s15 22 36 18 22-27 17-36-18-16-36-12z" fill="#684010"/><path d="m1169.617 502.705c-16.852 3.745-21 21-17 30s15 22 36 18 22-27 17-36-18-16-36-12z" fill="#ceb984"/><path d="m1160.009 387.378c-18.287 13.985-8 42 0 50s30 10 40 0 14-27 4-40-27-23-44-10z" fill="#72440e"/><path d="m1178.197 373.659c-8.628 12.611-7.95 29.529 2.271 38.615 10.222 9.086 29.529 13.629 38.615 3.407s9.604-21.162 4.543-36.344c-4.543-13.629-30.665-27.258-45.429-5.678z" fill="#fff"/><path d="m1234.535 403.326-15.526.052-59 110 4.715 27.846z" fill="#efefef"/><path d="m1446.976 403.326 10.033 18.052-58 102-24.907 7.825z" fill="#efefef"/><path d="m1370.009 540.378-3 47-211.798 13.921c-.625.041-1.133-.495-1.058-1.117l5.856-48.804z" fill="#efefef"/><path d="m1240.518 393.378 212-2-83 148-210 12z" fill="#efefef"/><path d="m1241.141 393.378 211-2-14.132 23-208.868 2z" fill="#3b0083"/><path d="m1311.009 447.378c21 0 41 16 33 39-6.345 18.241-22 26-39 27-17.088 1.005-37.952-15.128-29-39 6-16 18.722-27 35-27z" fill="#3b0083"/><path d="m1304.017 462.397c11.609-4.792 30.226 1.398 26.222 16.603-1.593 6.047-6.057 12.466-10.887 16.404-5.584 4.553-12.098 5.175-18.702 2.784-7.71-2.792-10.324-8.054-9.387-15.981.914-7.735 5.238-16.707 12.754-19.81z" fill="#333"/><path d="m1317.138 494.635c.907.157 1.115 1.373.327 1.848-5.035 3.038-10.682 3.225-16.397 1.156-7.71-2.792-10.324-8.054-9.387-15.981.814-6.885 5.913-14.75 12.325-18.584.802-.479 1.768.317 1.453 1.196-1.53 4.258-3.449 14.108.551 22.108 2.962 5.926 8.039 7.721 11.128 8.257z" fill="#e7d9ab"/></g><path d="m1065.033 493.284 87.503 106.029c.56.678 1.659.356 1.764-.517l5.721-47.604-91.333-105.909c-.593-.687-1.72-.293-1.756.613z" fill="#efefef" stroke-width="3.9966"/><path d="m771.742 7.537c56.5-16.5 128 2 133 81s-48 104-82 108-97-9-109-67 14.623-109.333 58-122z" fill="#fff" stroke-width="4"/><circle cx="832.51" cy="121.879" fill="none" r="1.5" stroke-width="4"/><circle cx="868.51" cy="121.879" fill="none" r="1.5" stroke-width="4"/></g><path d="m825.207 153.767c2.565-1.301 5.307-2.252 8.118-2.81 5.456-1.083 20.175-1.701 22.336 5.167.756 2.403.189 5.041-.831 7.344-2.323 5.242-6.911 9.27-12.104 11.702s-10.969 3.381-16.697 3.647c-3.139.146-6.388.074-9.267-1.185-2.879-1.26-5.322-3.959-5.425-7.1-.066-1.995.79-3.904 1.801-5.625 2.824-4.809 7.114-8.627 12.069-11.14z"/><g stroke="#000" stroke-miterlimit="10" stroke-width="4"><path d="m757.869 184.973s38.621 19.656 73.381 9.883 42.654-20.403 42.654-20.403 71.106 11.926 102.106 51.926c29.416 37.956 58 79.704 33 88.704s-35 9-49 10-47 3-47 3l2.895 18.296h-151.194s35.298 15.704 43.298 17.704 33 12 33 12-23 0-30 14 0 26 0 26-156-51-155-80 36.72-162.221 101.86-151.11z" fill="#3e3e9b"/><path d="m894.24 327.094s4.769 1.284 9.769 1.284 14.677-.642 14.677-.642" fill="none"/><path d="m909.13 276.275s12.879-3.897 29.879-5.897c10.925-1.285 29 1 29 1" fill="none"/><path d="m811.009 390.378c4.257-10.338 27-20 53-12s21 37-1 47-31 5-41 1-18-19-11-36z" fill="#fff"/><path d="m733.009 324.378s7 6 14 11 18 11 18 11" fill="none"/><path d="m821.009 253.378c7.391-15.309 34-18 48-9s20 20 14 40-28 33-46 24-30-26-16-55z" fill="#ce9e59"/><path d="m847.009 235.378c-3.046 2.286-7 11-6 13s9 1 11 0-1.702-15.475-5-13z" fill="#603f05"/><path d="m813.009 280.378c-2 4 8 10 9 8s5-9 1-10-9 0-10 2z" fill="#603f05"/><path d="m833.715 268.764c.563-1.297 13.925-1.759 13.979-.76s-2.29 13.144-4.341 12.254-10.528-9.442-9.638-11.494z" fill="#603f05"/><path d="m867.009 264.378c-1.987.823-5 5-5 7s7 5 8 4-.228-12.148-3-11z" fill="#603f05"/><path d="m854.009 299.378c-4 0-7 5-6 6s4 6.811 6 5.905c2-.905 3-11.905 0-11.905z" fill="#603f05"/><path d="m888.673 264.909c15.401 0 33.625 22.096 26.9 37.468-6.725 15.371-16.332 29.782-36.507 24.978s-25.939-26.9-22.096-38.428 15.371-24.018 31.703-24.018z" fill="#fff"/><path d="m350.009 313.378 6 75h42l6-75z" fill="#4c8459"/><path d="m345.009 313.378h65v-9c0-.552-.448-1-1-1h-4v-9c0-.552-.448-1-1-1h-53c-.552 0-1 .448-1 1v9h-4c-.552 0-1 .448-1 1z" fill="none"/><path d="m681.009 517.378v10l-102 50-102-112v-8.65c0-.672.649-1.152 1.291-.957z" fill="#f4ecc1"/><path d="m477.192 453.787 98.818-49.409 105.07 112.01c.461.492.314 1.289-.293 1.584l-101.778 49.407-102.109-112.024c-.447-.49-.302-1.271.292-1.568z" fill="#4c4c4c"/></g></svg>