<svg enable-background="new 0 0 200.404 272.095" viewBox="0 0 200.404 272.095" xmlns="http://www.w3.org/2000/svg"><g stroke="#000" stroke-miterlimit="10"><path d="m2.701 53.5h195l-15 192-82 24-83-22z" fill="#0f7dc1" stroke-width="5"/><path d="m35.701 94.5h127v23l-56 22h51l-6 74-50 16-54-15-2-38h26v17l28 8 29-5 3-32h-88l-3-24 58-23h-63z" fill="#fff" stroke-width="5"/><path d="m41.701.5v34h30v-10h-18v-14h18v-10z"/><path d="m85.701.5v11l12 13h-12v11h30v-11l-11-13h11v-11z"/><path d="m129.701.5v11l12 13h-12v11h30v-11l-11-13h11v-11z"/></g></svg>