<svg viewBox="0 0 1452.126 597.403" xmlns="http://www.w3.org/2000/svg"><g stroke="#000" stroke-miterlimit="10" stroke-width="4"><circle cx="201.626" cy="267.5" fill="none" r="1.5"/><circle cx="236.626" cy="270.5" fill="none" r="1.5"/><path d="m177.126 307c8 6 11.053 7.763 16 9 4 1 12.171 1.846 19-3" fill="none"/><path d="m185.126 141c37 2 92 47 94 90s-6 96-67 112-115-27-126-61-7.875-82.272 14-107c23-26 50.525-35.864 85-34z" fill="none"/><path d="m279.126 597v-83s19 10 28 13 31 6 31 6-9-16-7-25 10-23 10-23-21-16-23-36-13-73-39-92-45.254-22.309-45.254-22.309-17.745 12.2-48.245 11.756-58.572-17.2-58.572-17.2-65.929 42.753-81.929 57.753-56 50-39 75 42 34 52 37 35 6 35 6l1 92" fill="#9e3232"/><path d="m418.126 381 45 3-2 20s13 3 17 11 4 19 4 19v56.1c0 26.07-.148 52.144 0 78.213.058 10.2-2.547 21.829-14 24.692-12 3-62 0-81-3s-28-3-32-9c-4.779-7.17-7.039-13.5-6.826-22.035q.188-7.5.366-15.007l1.048-42.975c.333-13.665 1.061-27.846 1.278-41.715.165-10.6-2.409-23.463 5.136-32.265 6-7 61-27 61-27z" fill="#fa3c41"/><path d="m417.126 400 1-19 45 3-2 20z" fill="#1a1a1a"/><path d="m370.126 542a24.692 24.692 0 0 0 24.682-23.99l1.318-46.415s.667-20.46-12-17.6c-13 2.933-16 14.667-16 22.49s-1 65.516-1 65.516z" fill="#fff"/><path d="m176.126 374-45 3 2 20s-13 3-17 11-4 19-4 19v56.1c0 26.07.149 52.144 0 78.213-.058 10.2 2.547 21.829 14 24.692 12 3 62 0 81-3s28-3 32-9c4.779-7.17 7.04-13.5 6.826-22.035q-.186-7.5-.366-15.007l-1.046-42.983c-.333-13.665-1.061-27.846-1.277-41.715-.166-10.6 2.408-23.463-5.137-32.265-6-7-61-27-61-27z" fill="#fa3c41"/><path d="m177.126 393-1-19-45 3 2 20z" fill="#1a1a1a"/><path d="m224.126 535a24.69 24.69 0 0 1 -24.681-23.99l-1.319-46.41s-.667-20.46 12-17.6c13 2.933 16 14.667 16 22.49s1 65.516 1 65.516z" fill="#fff"/><path d="m270.126 428s5.586 37.029 7 54c1 12 2 39 2 39" fill="none"/><path d="m59.126 436s36-1 60 1c16.971 1.414 56 12 56 12s-13.023 11.136-16 29c-3 18 4 28 4 28s-59 0-70-1" fill="#9e3232"/><path d="m195.1 448.106c9.512 2.365 18.279 9.074 22.328 18.4a34.126 34.126 0 0 1 -3.151 32.118 35.98 35.98 0 0 1 -28.536 15.378c-10.9.249-22.536-5.514-26.233-15.766-1.876-5.2-1.572-10.925-.884-16.414 1.065-8.5 3.109-17.155 8.133-24.1 7.003-9.671 18.104-12.161 28.343-9.616z" fill="#fff"/><path d="m361.126 481c14.957 2.3 28 19 21 38s-20.651 25.7-33.325 21.348-18.514-19.942-16.595-36.145 15.92-25.203 28.92-23.203z" fill="#fff"/><path d="m976.126 597s6-56 0-114-17-60-17-100 21-82 20-133-17-55-20-106 10-107 10-107h-134s15 35 14 81-15 52-10 110 24 79 21 138-21 65-29 122c-5 35.651 8 109 8 109" fill="#c5b097"/><path d="m860.688 37s2.438-35-6.562-35-10 61-3 61 7-9 7-9" fill="none"/><path d="m891.688 37s2.438-35-6.562-35-10 61-3 61 7-9 7-9" fill="none"/><path d="m922.688 37s2.438-35-6.562-35-10 61-3 61 7-9 7-9" fill="none"/><path d="m953.688 37s2.438-35-6.562-35-10 61-3 61 7-9 7-9" fill="none"/><path d="m1450.126 37v33.898 526.102" fill="#c5b097"/><path d="m1429.126 72h21v81h-21z" fill="#b1b1b1"/><path d="m1427.126 100.185h-54.961c-9.249 0-19.039-1.185-28.039 3.815-4.813 2.674-8.6 6.949-12.706 10.606-5.117 4.557-8.868 8.849-15.388 11.375q-6.456 2.5-12.906 5.019s10 9 14 12 17 10 17 10 .993-16.967 1-17c.5-2.252 8.059-8 10.091-9.467 4.909-3.533 7.243-5.692 11.152-7.233 5.084-2 11.107-1.3 16.5-1.3h54.256" fill="#e4e4e4"/><path d="m1232.126 597s-7-34-29-55-33-26-33-26" fill="none"/></g><text font-family="Caroni-Regular, Caroni" font-size="59.832" transform="translate(1063.89 487.857)">*cough*</text><path d="m1303.126 131s-21-2-34 7a258.035 258.035 0 0 0 -21 16l87 63s11-26 11-38-12-26-12-26-12-6-17-10-14-12-14-12" fill="#979797" stroke="#000" stroke-miterlimit="10" stroke-width="4"/></svg>