<svg enable-background="new 0 0 338.27 383" viewBox="0 0 338.27 383" xmlns="http://www.w3.org/2000/svg"><g stroke="#000" stroke-miterlimit="10" stroke-width="4"><path d="m165.306 86.309 45 3-2 20s13 3 17 11 4 19 4 19v56.095c0 26.07-.148 52.144 0 78.213.058 10.2-2.547 21.829-14 24.692-12 3-62 0-81-3s-28-3-32.002-9.003c-4.779-7.171-7.04-13.497-6.826-22.035.125-5.002.244-10.005.366-15.007.349-14.325.699-28.65 1.048-42.975.333-13.666 1.061-27.847 1.278-41.715.166-10.599-2.408-23.463 5.136-32.265 6-7 61-27 61-27z" fill="#fa3c41"/><path d="m164.306 105.309 1-19 45 3-2 20z" fill="#1a1a1a"/><g fill="#fff"><path d="m117.306 247.309c13.364 0 24.302-10.632 24.681-23.99l1.319-46.415s.667-20.46-12-17.601c-13 2.934-16 14.668-16 22.49s-1 65.516-1 65.516z"/><path d="m120.77 10.076 11.561 36.924"/><path d="m249.331 59 34-38"/><path d="m41.804 103.852-41-18"/><path d="m286.776 141.328 51-13"/><path d="m55.331 215-47 19"/><path d="m68.331 315-36 37"/><path d="m162.331 339v44"/><path d="m274.331 321 38 31"/><path d="m274.331 224 52 16"/></g></g></svg>