<svg enable-background="new 0 0 1452.126 597.403" viewBox="0 0 1452.126 597.403" xmlns="http://www.w3.org/2000/svg"><g stroke="#000" stroke-miterlimit="10" stroke-width="4"><circle cx="201.626" cy="267.5" fill="none" r="1.5"/><circle cx="236.626" cy="270.5" fill="none" r="1.5"/><path d="m177.126 307c8 6 11.053 7.763 16 9 4 1 12.171 1.845 19-3" fill="none"/><path d="m185.126 141c37 2 92 47 94 90s-6 96-67 112-115-27-126-61-7.875-82.272 14-107c23-26 50.525-35.864 85-34z" fill="none"/><path d="m279.126 597v-83s19 10 28 13 31 6 31 6-9-16-7-25 10-23 10-23-21-16-23-36-13-73-39-92-45.254-22.309-45.254-22.309-17.745 12.204-48.245 11.757-58.572-17.196-58.572-17.196-65.929 42.748-81.929 57.748-56 50-39 75 42 34 52 37 35 6 35 6l1 92" fill="#9e3232"/><path d="m418.126 381 45 3-2 20s13 3 17 11 4 19 4 19v56.095c0 26.07-.148 52.144 0 78.213.058 10.2-2.547 21.829-14 24.692-12 3-62 0-81-3s-28-3-32.002-9.003c-4.779-7.171-7.04-13.497-6.826-22.035.125-5.002.244-10.005.366-15.007.349-14.325.699-28.65 1.048-42.975.333-13.666 1.061-27.847 1.278-41.715.166-10.599-2.408-23.463 5.136-32.265 6-7 61-27 61-27z" fill="#fa3c41"/><path d="m417.126 400 1-19 45 3-2 20z" fill="#1a1a1a"/><path d="m370.126 542c13.364 0 24.302-10.632 24.682-23.99l1.318-46.415s.667-20.46-12-17.601c-13 2.934-16 14.668-16 22.49 0 7.823-1 65.516-1 65.516z" fill="#fff"/><path d="m176.126 374-45 3 2 20s-13 3-17 11-4 19-4 19v56.095c0 26.07.148 52.144 0 78.213-.058 10.2 2.547 21.829 14 24.692 12 3 62 0 81-3s28-3 32.002-9.003c4.779-7.171 7.04-13.497 6.826-22.035-.125-5.002-.244-10.005-.366-15.007-.349-14.325-.699-28.65-1.048-42.975-.333-13.666-1.061-27.847-1.278-41.715-.166-10.599 2.408-23.463-5.136-32.265-6-7-61-27-61-27z" fill="#fa3c41"/><path d="m177.126 393-1-19-45 3 2 20z" fill="#1a1a1a"/><path d="m224.126 535c-13.364 0-24.302-10.632-24.682-23.99l-1.318-46.415s-.667-20.46 12-17.601c13 2.934 16 14.668 16 22.49 0 7.823 1 65.516 1 65.516z" fill="#9e3232"/><path d="m270.126 428s5.586 37.029 7 54c1 12 2 39 2 39" fill="none"/><path d="m59.126 436s36-1 60 1c16.971 1.414 56 12 56 12s-13.023 11.136-16 29c-3 18 4 28 4 28s-59 0-70-1" fill="#9e3232"/><path d="m195.099 448.106c9.511 2.365 18.278 9.074 22.327 18.404 4.469 10.296 3.15 22.829-3.151 32.118s-17.314 15.122-28.536 15.378c-10.896.249-22.536-5.514-26.233-15.767-1.876-5.204-1.572-10.925-.884-16.414 1.065-8.503 3.109-17.155 8.133-24.096 7.005-9.678 18.106-12.168 28.344-9.623z" fill="#fff"/><path d="m361.126 481c14.957 2.301 28 19 21 38s-20.651 25.696-33.326 21.348-18.514-19.942-16.594-36.145 15.92-25.203 28.92-23.203z" fill="#fff"/><path d="m976.126 597s6-56 0-114-17-60-17-100 21-82 20-133-17-55-20-106 10-107 10-107h-134s15 35 14 81-15 52-10 110 24 79 21 138-21 65-29 122c-5.004 35.651 8 109 8 109" fill="#c5b097"/><path d="m860.688 37s2.438-35-6.562-35-10 61-3 61 7-9 7-9" fill="none"/><path d="m891.688 37s2.438-35-6.562-35-10 61-3 61 7-9 7-9" fill="none"/><path d="m922.688 37s2.438-35-6.562-35-10 61-3 61 7-9 7-9" fill="none"/><path d="m953.688 37s2.438-35-6.562-35-10 61-3 61 7-9 7-9" fill="none"/><path d="m1450.126 37v33.898 526.102" fill="#c5b097"/><path d="m1429.126 72h21v81h-21z" fill="#b1b1b1"/><path d="m1427.126 100.185c-12.34 0-22.681 0-35.021 0-6.647 0-13.293 0-19.94 0-9.248 0-19.039-1.185-28.039 3.815-4.813 2.674-8.599 6.949-12.705 10.606-5.117 4.558-8.868 8.85-15.388 11.375-4.304 1.667-8.604 3.346-12.906 5.019 0 0 10 9 14 12s17 10 17 10 .993-16.967 1-17c.5-2.252 8.059-8.005 10.091-9.467 4.909-3.533 7.243-5.692 11.153-7.233 5.083-2.004 11.106-1.3 16.501-1.3h38.905 15.351" fill="#e4e4e4"/><path d="m1232.126 597s-7-34-29-55-33-26-33-26" fill="none"/></g><text font-family="'Caroni-Regular'" font-size="59.8317" transform="translate(1063.8898 487.8574)">*cough*</text><path d="m1303.126 131s-21-2-34 7-21 16-21 16l87 63s11-26 11-38-12-26-12-26-12-6-17-10-14-12-14-12" fill="#979797" stroke="#000" stroke-miterlimit="10" stroke-width="4"/></svg>