<svg enable-background="new 0 0 1747 477.598" viewBox="0 0 1747 477.598" xmlns="http://www.w3.org/2000/svg"><g stroke="#000" stroke-miterlimit="10" stroke-width="4"><g fill="#999"><path d="m677.258 355.013v-99.666s-1.258-12 7.742-21 24-7 24-7h39v128z"/><path d="m1244.258 355.013v-99.666s-1.258-12 7.742-21 24-7 24-7h39v128z"/><path d="m98.258 355.013v-99.666s-1.258-12 7.742-21 24-7 24-7h39v128z"/></g><path d="m0 355.347h1747" fill="none"/><path d="m833 2.347c-33.038-3.671-90 25-100 74s20 130 100 126c0 0 94 0 96-85s-42-109-96-115z" fill="#fff"/><g fill="none"><circle cx="847.5" cy="127.847" r="1.5"/><circle cx="882.5" cy="130.847" r="1.5"/><path d="m824 177.347s12-3 21-3 17 5 17 5"/></g><path d="m897 355.347h-192s1-96 30-126 55.602-34 55.602-34 18.398 7 42.398 7 49.5-11.664 49.5-11.664c13.273 5.148 28.581 10.715 39.583 19.894 12.302 10.263 20.885 24.681 25.91 39.767 4.803 14.42 2.887 29.586 7.007 44.003 2 7 8 19 8 19s-2 0-9 1-10 5-10 5v-32h-26l-6-26-8 2 5 24h-19z" fill="#006837"/><path d="m758 391.347 123-11 38 81-128 12z" fill="#fff"/><path d="m621 383.347-4 14 77 19 19-2-15-12z" fill="#2e3192"/><path d="m759 297.347-2.203 57.666" fill="none"/><path d="m890 287.347h54l-5 96h-39z" fill="#006837"/><path d="m986 332.347c-2.015-18.137-21-21-32-18-10.786 2.942-16 12-15 25 .898 11.67 9 25 27 23 13.864-1.54 22-12 20-30z" fill="#fff"/><path d="m904 263.347 8-2 22 112-6 7z" fill="#a8363f"/><path d="m900 383.347h39l1.711-32.858h-44.034z" fill="#c69c6d"/><path d="m905.695 287.347h18.518" fill="#006837"/><path d="m308 473.347 139-20-43-93-131 19z" fill="#fff"/><path d="m327 436.347 81-13" fill="#2e3192"/><path d="m330 448.347 80-13" fill="#2e3192"/><path d="m172 112.347c-8.182-71.596 59-112 108-110s95 53 92 110-31.732 102-99 102c-66 0-97-67-101-102z" fill="#fff"/><g fill="none"><circle cx="288.5" cy="150.847" r="1.5"/><circle cx="326.5" cy="152.847" r="1.5"/><path d="m254 188.347s10 5 18 6 22 0 22 0"/></g><path d="m232.389 204.646s-47.389-4.299-78.389 38.701-55 122-35 144 57 24 86 26c35.633 2.457 72.138-.05 71-1 0 0-12-16-3-33s15-15 15-15l-39.642-9h113.241s1.401 8 6.401 16 10 12 10 12 12-8 26-11 28 1 28 1-23-38-26-65-11-62-34-80-51.366-23.821-51.366-23.821-26.649 10.628-47.634 9.821c-26-1-40.611-9.701-40.611-9.701z" fill="#c1272d"/><path d="m293.688 362.101-7.688-21.754 11-4 31 86-2 11-9-8z" fill="#2e3192"/><path d="m191 299.347s-3 14-3 25 1.5 25.441 1.5 25.441" fill="none"/><path d="m357 305.347s1.067 43.509 6.533 56.754" fill="none"/><path d="m301 362.347c14.941 1.66 31 15 26 36-4.908 20.613-26.857 26.622-37 23-14-5-26.539-19.162-19.165-38.542 8.165-21.458 21.165-21.458 30.165-20.458z" fill="#fff"/><path d="m172 347.347c24 2 74.959 7.596 86.479 10.298" fill="none"/><path d="m402 372.347c19-4 40 0 39 16-1.015 16.247-17.037 20.807-28 23-15 3-36-4-38-16s10.597-19.546 27-23z" fill="#fff"/><path d="m1384 2.347c54.817-4.909 99 43 99 96s-20 98-96 100-100-63-100-98c0-40 30-92 97-98z" fill="#fff"/><circle cx="1406.5" cy="131.847" fill="none" r="1.5"/><circle cx="1436.5" cy="134.847" fill="none" r="1.5"/><path d="m1371 168.347s10 6 24 8c9.949 1.421 23-1 23-1" fill="none"/><path d="m1350.644 193.411s17.356 5.936 36.356 4.936c28.977-1.525 35.356-4.936 35.356-4.936s74.644 1.936 80.644 70.936 5.34 91 5.34 91h-235.34s-2-90 11-116 48.287-41.871 66.644-45.936z" fill="#f7931e"/><path d="m1423.938 366.259-28.938.088s-5.97.119-5 4c1 4 36.906 39.889 36.906 39.889z" fill="#ccc"/><path d="m1424 399.347v-107s-1-6 5-13 14-5 14-5h168s7 0 11 6 3 12 3 12v114s-1 6-4 9-14 3-14 3h-167s-6.901-.081-11-5c-5-6-5-14-5-14z" fill="#ccc"/><path d="m1325 284.347s-2 25-2 35 0 36 0 36" fill="none"/><path d="m1235 388.347 95-21 66 85-98 23z" fill="#fff"/></g></svg>