<svg viewBox="0 0 2163 595.588" xmlns="http://www.w3.org/2000/svg"><g stroke="#000" stroke-width="4"><path d="m516 289c-8.182-71.6 38-118 119-118 66 0 104 59 101 116s-42.772 97.4-110.04 97.4c-66 0-105.96-60.4-109.96-95.4z" fill="none" stroke-miterlimit="10"/><circle cx="685.5" cy="313.5" fill="none" r="1.5" stroke-miterlimit="10"/><circle cx="654.5" cy="315.5" fill="none" r="1.5" stroke-miterlimit="10"/><path d="m631 356a45.772 45.772 0 0 1 20-5c11 0 16 4 16 4" fill="none" stroke-miterlimit="10"/><path d="m802 595s-4-101-26-159-89-65.926-89-65.926-20.042 12.054-50 13.926c-32 2-53.16-8.506-53.16-8.506s-34.84 9.506-60.84 50.506-38 79-37 122 0 47 0 47" fill="#892b2b" stroke-miterlimit="10"/><path d="m758 459s7 45 9 70c1.754 21.93 0 66 0 66" fill="none" stroke-miterlimit="10"/><path d="m608 45s6-7 24-7 29 7 14 10-27 6-33 5 0-7 18-7 34 1 24 8c-10.65 7.455-24 12-33 12s-7-10 16-6 1 16-5 19-20-2-11-5 18-3 26 3-11 20-22 19c-4.106-.373-2-10 9-9s6 9 3 14a19.015 19.015 0 0 1 -8 7" fill="none" stroke-miterlimit="10"/><g stroke-linejoin="round"><path d="m430 158v36" fill="#c7b299" stroke-linecap="round"/><path d="m419 176h22" fill="#c7b299" stroke-linecap="round"/><path d="m422 165 16 20" fill="#c7b299" stroke-linecap="round"/><path d="m438.088 165.244-16.088 19.756" fill="#c7b299" stroke-linecap="round"/><path d="m795 129v36" fill="#c7b299" stroke-linecap="round"/><path d="m784 147h22" fill="#c7b299" stroke-linecap="round"/><path d="m787 136 16 20" fill="#c7b299" stroke-linecap="round"/><path d="m803.088 136.244-16.088 19.756" fill="#c7b299" stroke-linecap="round"/><path d="m515 2v36" fill="#c7b299" stroke-linecap="round"/><path d="m504 20h22" fill="#c7b299" stroke-linecap="round"/><path d="m507 9 16 20" fill="#c7b299" stroke-linecap="round"/><path d="m523.088 9.244-16.088 19.756" fill="#c7b299" stroke-linecap="round"/><path d="m565 467s-12 41-11 78 5 50 5 50" fill="none"/><path d="m332 595v-466h-21v466" fill="#bcc1cc"/><path d="m480 498-1 15s-41-35-62-67-55-101-64-116c-9.57-15.95-26.937-40.468-38-46-6-3-16-6.631-16-19 0-12 12-15 12-15v15a7.106 7.106 0 0 0 6 6c11 2 24 23 45 56s40 81 64 114c27.5 37.812 54 57 54 57z" fill="#43464c" stroke-linecap="round"/><rect fill="#333" height="80" rx="4.861" stroke-linecap="round" transform="matrix(.99704739 .07678864 -.07678864 .99704739 41.282 -38.59)" width="86.938" x="479.035" y="477.581"/><path d="m332 240s18-11 14-22-27-21-57-12-45 16-45 16v-12s31.487-16.931 55-18c22-1 52 3 58 23s-25 38-25 38z" fill="#43464c" stroke-linecap="round"/><rect fill="#fff" height="171" rx="4.731" stroke-linecap="round" width="216" x="28" y="156"/><path d="m47 176h178v132h-178z" fill="#282a2b" stroke-linecap="round"/><path d="m2 327h267v70h-267z" fill="#d5d9e0" stroke-linecap="round"/><path d="m115 365h42" fill="none" stroke-linecap="round"/><path d="m39 595v-198h-21v198" fill="#d5d9e0"/><path d="m254 595v-198h-21v198" fill="#d5d9e0"/><path d="m1296 168c56.134.985 109 37 104 110s-47 93-84 96c-34.886 2.829-114-4-114-103 0-60 37-104 94-103z" fill="#fff" stroke-linecap="round"/></g><circle cx="1224.5" cy="265.5" fill="none" r="1.5" stroke-miterlimit="10"/><circle cx="1257.5" cy="265.5" fill="none" r="1.5" stroke-miterlimit="10"/><path d="m1202.678 286 22.322-.288s6 7 8 7 13-7 13-7 32 1 64-4 41-6 41-6-4 66-10 71-30 19-47 22-23.057 1.548-23.057 1.548-27.815-6.372-46.443-27.4c-20.5-23.148-21.822-56.86-21.822-56.86z" fill="#abdded" stroke-miterlimit="10"/><path d="m1223 321s16 5 37 2c14.882-2.126 36-12 36-12" fill="none" stroke-miterlimit="10"/><path d="m1244 347a161.019 161.019 0 0 0 29-1c12.522-1.789 28-13 28-13" fill="none" stroke-miterlimit="10"/><path d="m1349.341 298.029s11.659-10.029 19.659-14.029 31.226-10.389 31.226-10.389" fill="none" stroke-miterlimit="10"/><path d="m1345.746 329.847s19.254-6.847 26.254-8.847 20.276-3.521 20.276-3.521" fill="none" stroke-miterlimit="10"/><path d="m1164 595s9-145 41-187c21-27.566 60.452-39.054 60.452-39.054s27.318 11.242 58.433 4.148 38.724-14.862 38.724-14.862 66.391 2.768 89.391 44.768 31 80 31 124c0 35.014-2 68-2 68" fill="#a6bbdd" stroke-linejoin="round"/><path d="m1217 453s-7 53-7 70a694.807 694.807 0 0 0 4 72" fill="none" stroke-linejoin="round"/><path d="m1400 457s9 46 10 60 0 73 0 73" fill="none" stroke-linejoin="round"/><path d="m1783 595v-373h378v373" fill="#898e96" stroke-linejoin="round"/><path d="m1972 595v-373" fill="#898e96" stroke-linejoin="round"/><path d="m2006 395v34" fill="#898e96" stroke-linejoin="round"/><path d="m1937 395v34" fill="#898e96" stroke-linejoin="round"/></g></svg>