<svg enable-background="new 0 0 200.404 272.095" viewBox="0 0 200.404 272.095" xmlns="http://www.w3.org/2000/svg"><g stroke="#000" stroke-miterlimit="10"><path d="m2.701 53.5h195l-15 192-82 24-83-22z" fill="#f15a24" stroke-width="5"/><path d="m160.701 92.5h-122l5 75h86l-1 28-28 9-29-6v-21h-27l3 38 52 15 53-15 5-74h-91v-24h94z" fill="#fff" stroke-width="5"/><path d="m19.701.5v36h12v-12h12v12h12v-36h-12v12h-12v-12z"/><path d="m62.701.5h33v12h-12v24h-9v-24h-12z"/><path d="m101.701.5h13l8 12 9-12h13v36h-13v-20l-9 14-9-14v20h-12z"/><path d="m152.701.5v36h27v-12h-17v-24z"/></g></svg>