<?xml version="1.0" encoding="utf-8"?>
<!-- Generator: Adobe Illustrator 22.1.0, SVG Export Plug-In . SVG Version: 6.00 Build 0)  -->
<svg version="1.1" id="Layer_1" xmlns="http://www.w3.org/2000/svg" xmlns:xlink="http://www.w3.org/1999/xlink" x="0px" y="0px"
	 viewBox="0 0 200.404 272.095" style="enable-background:new 0 0 200.404 272.095;" xml:space="preserve">
<style type="text/css">
	.st0{fill:#F15A24;stroke:#000000;stroke-width:5;stroke-miterlimit:10;}
	.st1{fill:#FFFFFF;stroke:#000000;stroke-width:5;stroke-miterlimit:10;}
	.st2{stroke:#000000;stroke-miterlimit:10;}
</style>
<polygon class="st0" points="2.701,53.5 197.701,53.5 182.701,245.5 100.701,269.5 17.701,247.5 "/>
<polygon class="st1" points="160.701,92.5 38.701,92.5 43.701,167.5 129.701,167.5 128.701,195.5 100.701,204.5 71.701,198.5 
	71.701,177.5 44.701,177.5 47.701,215.5 99.701,230.5 152.701,215.5 157.701,141.5 66.701,141.5 66.701,117.5 160.701,117.5 "/>
<polygon class="st2" points="19.701,0.5 19.701,36.5 31.701,36.5 31.701,24.5 43.701,24.5 43.701,36.5 55.701,36.5 55.701,0.5 
	43.701,0.5 43.701,12.5 31.701,12.5 31.701,0.5 "/>
<polygon class="st2" points="62.701,0.5 95.701,0.5 95.701,12.5 83.701,12.5 83.701,36.5 74.701,36.5 74.701,12.5 62.701,12.5 "/>
<polygon class="st2" points="101.701,0.5 114.701,0.5 122.701,12.5 131.701,0.5 144.701,0.5 144.701,36.5 131.701,36.5 
	131.701,16.5 122.701,30.5 113.701,16.5 113.701,36.5 101.701,36.5 "/>
<polygon class="st2" points="152.701,0.5 152.701,36.5 179.701,36.5 179.701,24.5 162.701,24.5 162.701,0.5 "/>
</svg>
