<svg enable-background="new 0 0 1920 465.588" viewBox="0 0 1920 465.588" xmlns="http://www.w3.org/2000/svg"><circle cx="1143.5" cy="129.375" fill="none" r="1.5" stroke="#000" stroke-miterlimit="10" stroke-width="4"/><path d="m1156.5 11.375c54.264-25.147 130 0 135 79s-48 104-82 108-97-9-109-67 15-101 56-120z" fill="none" stroke="#000" stroke-miterlimit="10" stroke-width="4"/><circle cx="1180.5" cy="133.375" fill="none" r="1.5" stroke="#000" stroke-miterlimit="10" stroke-width="4"/><path d="m1164 170.875s11 7 20 7 22-4 22-4" fill="none" stroke="#000" stroke-miterlimit="10" stroke-width="4"/><path d="m0 392.875h1920" fill="none" stroke="#000" stroke-miterlimit="10" stroke-width="4"/><path d="m1155.889 191.864s33.111 9.011 54.111 7.011 39.627-14.289 39.627-14.289 60.373 8.289 80.373 41.289 15.344 167 15.344 167h-266.667s-8.677-148 14.323-172 62.889-29.011 62.889-29.011z" fill="#54b7e2" stroke="#000" stroke-miterlimit="10" stroke-width="4"/><path d="m1280 268.875s9 39 10 62 2 62 2 62" fill="none" stroke="#000" stroke-miterlimit="10" stroke-width="4"/><path d="m1114 268.875v124" fill="none" stroke="#000" stroke-miterlimit="10" stroke-width="4"/><path d="m1396.028 422.831c24.289 1.745 21.55 37.145 21.55 37.145l-59.7 3.503-4.096-38.92z" fill="#cec49b" stroke="#000" stroke-miterlimit="10" stroke-width="4"/><path d="m1354.636 440.87-105.758 3.862.332 9.098 106.758-3.862z" fill="#1b1464" stroke="#000" stroke-miterlimit="10" stroke-width="4"/><path d="m997 338.875c12.478-4.159 30 5 22 12s-23 6-27 3-10-10 5-15z" fill="#999" stroke="#000" stroke-miterlimit="10" stroke-width="4"/><path d="m999.243 353.502c7.721 0 7.734-12 0-12-7.721 0-7.734 12 0 12z"/><path d="m1007.764 350.167c7.721 0 7.734-12 0-12-7.722 0-7.734 12 0 12z"/><path d="m991 355.375s6.695 1.85 13 1 12.8-2.018 12.8-2.018 6.7 8.518 5.7 21.518-1 37-1 37h-36s-.301-33.474.5-40.5c1.054-9.244 5.017-17.692 5-17z" fill="none" stroke="#000" stroke-miterlimit="10" stroke-width="4"/><path d="m986 372.875s3.034-4 9.102-5 8.091 6 15.17 6 11.728-1.321 11.728-1.321l-.603 39.321h-35.397z" fill="#e5e4e3" stroke="#000" stroke-miterlimit="10" stroke-width="4"/><path d="m1006.243 355.502c7.721 0 7.734-12 0-12-7.721 0-7.734 12 0 12z"/><g stroke="#000" stroke-miterlimit="10" stroke-width="4"><path d="m921.481 382.24c-.883-12.119 5.379-39.867 18.578-40.634s23.006 26.521 21.869 40.61c-1.137 14.088-12.049 20.567-19.729 20.834s-19.77-7.803-20.718-20.81z" fill="#e9a378"/><path d="m389 309.875c28.793-3.599 47-4 47-4s-7 37 0 62 15 48 15 48-27 4-56 6-70 0-70 0-.068-47.557 2-61c2-13-7-48-7-48s53-1 69-3z" fill="#a67c52"/><path d="m322.546 323.738 111.832-6.789" fill="#a67c52"/><path d="m325.04 411.357 121.96-3.482" fill="#a67c52"/><path d="m471 242.875c0-7 16-8 43-8s33 2 33 8-4 10-4 10 20 7 20 64 2 81-7 85-90 5-97 0-14-64-12-89 17-56 23-58 1-12 1-12z" fill="#f5ede1"/><path d="m473 251.875 70 1" fill="#f5ede1"/><path d="m486 351.875 26-35" fill="#f5ede1"/><path d="m499 341.875s19-4 23-9-8-2-8-2 4-1 9-7-6-3-6-3 12-3 13-7-6-4-6-4 1-1 5-8-13 4-13 4 1-3 0-10-13 18-13 18 3-8-2-11-4 18-4 18-2-2-7-5 2 19 2 19" fill="none"/><path d="m581 305.875h68v102h-68z" fill="#fd9c28"/><circle cx="615.5" cy="344.375" fill="#fff" r="14.5"/><path d="m685 404.875s-26 7-22 21 50 18 82 18 91-6 90-23-26-19-57-21c-48.939-3.157-74.646.973-93 5z" fill="#ed1c24"/><path d="m1485 280.875h208s-2 92-23 108-43 19.381-81 19.381-60-6.381-76-19.381c-23.656-19.22-28-108-28-108z" fill="#b5a591"/><path d="m235 311.875s30 0 61-8 60-10 60-10-5 41 0 70 8 46 8 46l-118 6s2-38-1-61-10-43-10-43z" fill="#fff"/><path d="m239.048 325.398 115.528-15.47" fill="#fff"/><path d="m246.448 403.694 115.038-7.175" fill="#fff"/><path d="m894.485 364.661c11.955-2.174 40.213 1.087 42.387 14.129s-23.91 25.709-38.039 26.084-21.737-9.782-22.824-17.389 5.645-20.491 18.476-22.824z" fill="#e9a378"/><path d="m696 386.875c4-8 29-25 41-26s67 1 71 4 5 42.731 0 48.866c-5 6.134-21 15.134-28 16.134s-75 4-82 0-2-43-2-43z" fill="#f9dca0"/><path d="m704 386.875h61" fill="#f9dca0"/><path d="m776 383.875 25-14" fill="#f9dca0"/><path d="m773 392.875v27" fill="#f9dca0"/></g></svg>