<?xml version="1.0" encoding="utf-8"?>
<!-- Generator: Adobe Illustrator 22.1.0, SVG Export Plug-In . SVG Version: 6.00 Build 0)  -->
<svg version="1.1" xmlns="http://www.w3.org/2000/svg" xmlns:xlink="http://www.w3.org/1999/xlink" x="0px" y="0px"
	 viewBox="0 0 1920 465.588" style="enable-background:new 0 0 1920 465.588;" xml:space="preserve">
<style type="text/css">
	.st0{display:none;}
	.st1{fill:none;stroke:#000000;stroke-width:4;stroke-miterlimit:10;}
	.st2{fill:#54B7E2;stroke:#000000;stroke-width:4;stroke-miterlimit:10;}
	.st3{fill:#CEC49B;stroke:#000000;stroke-width:4;stroke-miterlimit:10;}
	.st4{fill:#1B1464;stroke:#000000;stroke-width:4;stroke-miterlimit:10;}
	.st5{fill:#999999;stroke:#000000;stroke-width:4;stroke-miterlimit:10;}
	.st6{fill:#E5E4E3;stroke:#000000;stroke-width:4;stroke-miterlimit:10;}
	.st7{fill:#E9A378;stroke:#000000;stroke-width:4;stroke-miterlimit:10;}
	.st8{fill:#A67C52;stroke:#000000;stroke-width:4;stroke-miterlimit:10;}
	.st9{fill:#F5EDE1;stroke:#000000;stroke-width:4;stroke-miterlimit:10;}
	.st10{fill:#FD9C28;stroke:#000000;stroke-width:4;stroke-miterlimit:10;}
	.st11{fill:#FFFFFF;stroke:#000000;stroke-width:4;stroke-miterlimit:10;}
	.st12{fill:#ED1C24;stroke:#000000;stroke-width:4;stroke-miterlimit:10;}
	.st13{fill:#B5A591;stroke:#000000;stroke-width:4;stroke-miterlimit:10;}
	.st14{fill:#F9DCA0;stroke:#000000;stroke-width:4;stroke-miterlimit:10;}
</style>
<g id="Layer_1" class="st0">
</g>
<g id="person_and_table">
	<circle class="st1" cx="1143.5" cy="129.375" r="1.5"/>
	<path class="st1" d="M1156.5,11.375c54.264-25.147,130,0,135,79s-48,104-82,108s-97-9-109-67S1115.5,30.375,1156.5,11.375z"/>
	<circle class="st1" cx="1180.5" cy="133.375" r="1.5"/>
	<path class="st1" d="M1164,170.875c0,0,11,7,20,7s22-4,22-4"/>
	<line class="st1" x1="0" y1="392.875" x2="1920" y2="392.875"/>
	<path class="st2" d="M1155.889,191.864c0,0,33.111,9.011,54.111,7.011s39.627-14.289,39.627-14.289S1310,192.875,1330,225.875
		s15.344,167,15.344,167h-266.667c0,0-8.677-148,14.323-172S1155.889,191.864,1155.889,191.864z"/>
	<path class="st1" d="M1280,268.875c0,0,9,39,10,62s2,62,2,62"/>
	<line class="st1" x1="1114" y1="268.875" x2="1114" y2="392.875"/>
	<path class="st3" d="M1396.028,422.831c24.289,1.745,21.55,37.145,21.55,37.145l-59.7,3.503l-4.096-38.92L1396.028,422.831z"/>
	<polygon class="st4" points="1354.636,440.87 1248.878,444.732 1249.21,453.83 1355.968,449.968 	"/>
</g>
<g id="ingredients__x28_back_x29__1_">
	<path class="st5" d="M997,338.875c12.478-4.159,30,5,22,12s-23,6-27,3S982,343.875,997,338.875z"/>
	<g>
		<g>
			<path d="M999.243,353.502c7.721,0,7.734-12,0-12C991.522,341.502,991.509,353.502,999.243,353.502L999.243,353.502z"/>
		</g>
	</g>
	<g>
		<g>
			<path d="M1007.764,350.167c7.721,0,7.734-12,0-12C1000.042,338.167,1000.03,350.167,1007.764,350.167L1007.764,350.167z"/>
		</g>
	</g>
	<path class="st1" d="M991,355.375c0,0,6.695,1.85,13,1s12.8-2.018,12.8-2.018s6.7,8.518,5.7,21.518s-1,37-1,37h-36
		c0,0-0.301-33.474,0.5-40.5C987.054,363.131,991.017,354.683,991,355.375z"/>
	<path class="st6" d="M986,372.875c0,0,3.034-4,9.102-5c6.068-1,8.091,6,15.17,6s11.728-1.321,11.728-1.321l-0.603,39.321H986
		V372.875z"/>
	<g>
		<g>
			<path d="M1006.243,355.502c7.721,0,7.734-12,0-12C998.522,343.502,998.509,355.502,1006.243,355.502L1006.243,355.502z"/>
		</g>
	</g>
	<path class="st7" d="M921.481,382.24c-0.883-12.119,5.379-39.867,18.578-40.634s23.006,26.521,21.869,40.61
		c-1.137,14.088-12.049,20.567-19.729,20.834C934.519,403.317,922.429,395.247,921.481,382.24z"/>
	<path class="st8" d="M389,309.875c28.793-3.599,47-4,47-4s-7,37,0,62s15,48,15,48s-27,4-56,6s-70,0-70,0s-0.068-47.557,2-61
		c2-13-7-48-7-48S373,311.875,389,309.875z"/>
	<line class="st8" x1="322.546" y1="323.738" x2="434.378" y2="316.949"/>
	<line class="st8" x1="325.04" y1="411.357" x2="447" y2="407.875"/>
	<path class="st9" d="M471,242.875c0-7,16-8,43-8s33,2,33,8s-4,10-4,10s20,7,20,64s2,81-7,85s-90,5-97,0s-14-64-12-89s17-56,23-58
		S471,242.875,471,242.875z"/>
	<line class="st9" x1="473" y1="251.875" x2="543" y2="252.875"/>
	<line class="st9" x1="486" y1="351.875" x2="512" y2="316.875"/>
	<path class="st1" d="M499,341.875c0,0,19-4,23-9s-8-2-8-2s4-1,9-7s-6-3-6-3s12-3,13-7s-6-4-6-4s1-1,5-8s-13,4-13,4s1-3,0-10
		s-13,18-13,18s3-8-2-11s-4,18-4,18s-2-2-7-5s2,19,2,19"/>
	<rect x="581" y="305.875" class="st10" width="68" height="102"/>
	<circle class="st11" cx="615.5" cy="344.375" r="14.5"/>
	<path class="st12" d="M685,404.875c0,0-26,7-22,21s50,18,82,18s91-6,90-23s-26-19-57-21
		C729.061,396.718,703.354,400.848,685,404.875z"/>
	<path class="st13" d="M1485,280.875h208c0,0-2,92-23,108s-43,19.381-81,19.381s-60-6.381-76-19.381
		C1489.344,369.655,1485,280.875,1485,280.875z"/>
</g>
<g id="ingredients__x28_back_x29_">
	<path class="st11" d="M235,311.875c0,0,30,0,61-8s60-10,60-10s-5,41,0,70s8,46,8,46l-118,6c0,0,2-38-1-61S235,311.875,235,311.875z
		"/>
	<line class="st11" x1="239.048" y1="325.398" x2="354.576" y2="309.928"/>
	<line class="st11" x1="246.448" y1="403.694" x2="361.486" y2="396.519"/>
	<path class="st7" d="M894.485,364.661c11.955-2.174,40.213,1.087,42.387,14.129c2.174,13.042-23.91,25.709-38.039,26.084
		c-14.129,0.375-21.737-9.782-22.824-17.389S881.654,366.994,894.485,364.661z"/>
	<path class="st14" d="M696,386.875c4-8,29-25,41-26s67,1,71,4s5,42.731,0,48.866c-5,6.134-21,15.134-28,16.134s-75,4-82,0
		S696,386.875,696,386.875z"/>
	<line class="st14" x1="704" y1="386.875" x2="765" y2="386.875"/>
	<line class="st14" x1="776" y1="383.875" x2="801" y2="369.875"/>
	<line class="st14" x1="773" y1="392.875" x2="773" y2="419.875"/>
</g>
</svg>
