<svg enable-background="new 0 0 256.701 254" viewBox="0 0 256.701 254" xmlns="http://www.w3.org/2000/svg"><path d="m128.142 2c75.782 0 132.862 47.736 126 137-5.342 69.49-45.399 113-125 113-72 0-130.405-42.059-127-134 3-81 67.255-116 126-116z" fill="#3b0083" stroke="#000" stroke-miterlimit="10" stroke-width="4"/><path d="m127.889 50.77c48.653 0 85.298 30.647 80.893 87.955-3.429 44.613-29.146 72.547-80.251 72.547-46.225 0-83.721-27.002-81.535-86.029 1.926-52.002 43.179-74.473 80.893-74.473z" fill="#231f20" stroke="#000" stroke-miterlimit="10" stroke-width="4"/><path d="m104.827 73.971c.11-.818-.762-1.405-1.479-.998-8.179 4.64-41.229 25.669-34.206 59.027 8 38 33 53 63 51 25.358-1.691 45.715-27.673 51.407-35.674.545-.767-.177-1.785-1.084-1.538-10.355 2.825-48.018 10.956-64.323-14.789-16.066-25.366-14.257-50.019-13.315-57.028z" fill="#e7d1af" stroke="#000" stroke-miterlimit="10" stroke-width="4"/><path d="m84.152 112.263c-.125-1.652 1.114-3.092 2.766-3.217s4.09 1.039 4.214 2.691-2.111 3.168-3.763 3.292c-1.653.125-3.093-1.114-3.217-2.766z"/><path d="m108.135 142.735c.088 1.655-2.181 3.12-3.836 3.207s-6.063-1.024-6.15-2.678c-.088-1.655 4.178-3.226 5.833-3.313 1.654-.087 4.065 1.13 4.153 2.784z"/><path d="m119.142 168.5c0 .828-1.343 1.5-3 1.5s-3-.672-3-1.5.343-2.5 2-2.5 4 1.672 4 2.5z"/><path d="m138.661 164.473c-.976 1.339-3.299 1.307-4.192.656-.892-.651-.824-2.264.152-3.602.976-1.339 3.299-1.307 4.192-.656s.825 2.264-.152 3.602z"/><g fill="#fff"><path d="m126.142 109c0 1.381-.448 2-1 2s-1-1.119-1-2.5.448-2.5 1-2.5 1 1.619 1 3z"/><path d="m169.142 122.5c0 1.381-1.119 2.5-2.5 2.5s-4.5-2.119-4.5-3.5 1-3.5 3.5-3.5 3.5 3.119 3.5 4.5z"/><path d="m160.142 85c0 1.105-1.351 2.234-2.5 3-1.5 1-3.5-.895-3.5-2s1.619-2 3-2 3 0 3 1z"/><path d="m44.577 54.881 8.376 7.329c1.809 1.583 4.487 1.661 6.375.173 9.215-7.261 37.017-23.698 64.814-25.383 33-2 59.15 19.827 68.89 25.978 1.872 1.182 4.29.989 5.956-.468l8.519-7.454c2.428-2.124 2.235-5.95-.386-7.831-12.607-9.049-47.16-31.225-82.979-31.225-35.752 0-67.716 22.092-79.345 31.172-2.476 1.935-2.585 5.639-.22 7.709z"/><path d="m60.138 207.006c1.631-2.175 4.696-2.651 6.906-1.068 9.648 6.911 35.688 23.445 61.098 21.062 24.744-2.32 45.9-12.412 54.222-16.87 2.199-1.178 4.925-.565 6.4 1.446l5.595 7.63c1.606 2.19 1.181 5.268-.977 6.916-8.508 6.498-32.182 17.878-66.24 17.878-34.912 0-61.899-14.628-71.971-21.91-2.265-1.637-2.739-4.811-1.062-7.047z"/></g></svg>