<?xml version="1.0" encoding="utf-8"?>
<!-- Generator: Adobe Illustrator 22.1.0, SVG Export Plug-In . SVG Version: 6.00 Build 0)  -->
<svg version="1.1" xmlns="http://www.w3.org/2000/svg" xmlns:xlink="http://www.w3.org/1999/xlink" x="0px" y="0px"
	 viewBox="0 0 200.404 272.095" style="enable-background:new 0 0 200.404 272.095;" xml:space="preserve">
<style type="text/css">
	.st0{display:none;}
	.st1{display:inline;fill:#F15A24;stroke:#000000;stroke-width:5;stroke-miterlimit:10;}
	.st2{display:inline;fill:#FFFFFF;stroke:#000000;stroke-width:5;stroke-miterlimit:10;}
	.st3{display:inline;stroke:#000000;stroke-miterlimit:10;}
	.st4{display:inline;fill:#0F7DC1;stroke:#000000;stroke-width:5;stroke-miterlimit:10;}
	.st5{fill:#F58232;stroke:#000000;stroke-width:5;stroke-miterlimit:10;}
	.st6{fill:#FFFFFF;stroke:#000000;stroke-width:5;stroke-miterlimit:10;}
	.st7{stroke:#000000;stroke-miterlimit:10;}
</style>
<g id="base" class="st0">
	
		<image style="display:inline;overflow:visible;" width="318" height="159" xlink:href="../../../../Desktop/download.png"  transform="matrix(3.0314 0 0 3.0314 -635.7993 -105)">
	</image>
</g>
<g id="html" class="st0">
	<polygon class="st1" points="2.701,53.5 197.701,53.5 182.701,245.5 100.701,269.5 17.701,247.5 	"/>
	<polygon class="st2" points="160.701,92.5 38.701,92.5 43.701,167.5 129.701,167.5 128.701,195.5 100.701,204.5 71.701,198.5 
		71.701,177.5 44.701,177.5 47.701,215.5 99.701,230.5 152.701,215.5 157.701,141.5 66.701,141.5 66.701,117.5 160.701,117.5 	"/>
	<polygon class="st3" points="19.701,0.5 19.701,36.5 31.701,36.5 31.701,24.5 43.701,24.5 43.701,36.5 55.701,36.5 55.701,0.5 
		43.701,0.5 43.701,12.5 31.701,12.5 31.701,0.5 	"/>
	<polygon class="st3" points="62.701,0.5 95.701,0.5 95.701,12.5 83.701,12.5 83.701,36.5 74.701,36.5 74.701,12.5 62.701,12.5 	"/>
	<polygon class="st3" points="101.701,0.5 114.701,0.5 122.701,12.5 131.701,0.5 144.701,0.5 144.701,36.5 131.701,36.5 
		131.701,16.5 122.701,30.5 113.701,16.5 113.701,36.5 101.701,36.5 	"/>
	<polygon class="st3" points="152.701,0.5 152.701,36.5 179.701,36.5 179.701,24.5 162.701,24.5 162.701,0.5 	"/>
</g>
<g id="css" class="st0">
	<polygon class="st4" points="2.701,53.5 197.701,53.5 182.701,245.5 100.701,269.5 17.701,247.5 	"/>
</g>
<g id="css_1" class="st0">
	<polygon class="st2" points="35.701,94.5 162.701,94.5 162.701,117.5 106.701,139.5 157.701,139.5 151.701,213.5 101.701,229.5 
		47.701,214.5 45.701,176.5 71.701,176.5 71.701,193.5 99.701,201.5 128.701,196.5 131.701,164.5 43.701,164.5 40.701,140.5 
		98.701,117.5 35.701,117.5 	"/>
	<polygon class="st3" points="41.701,0.5 41.701,34.5 71.701,34.5 71.701,24.5 53.701,24.5 53.701,10.5 71.701,10.5 71.701,0.5 	"/>
	<polygon class="st3" points="85.701,0.5 85.701,11.5 97.701,24.5 85.701,24.5 85.701,35.5 115.701,35.5 115.701,24.5 104.701,11.5 
		115.701,11.5 115.701,0.5 	"/>
	<polygon class="st3" points="129.701,0.5 129.701,11.5 141.701,24.5 129.701,24.5 129.701,35.5 159.701,35.5 159.701,24.5 
		148.701,11.5 159.701,11.5 159.701,0.5 	"/>
</g>
<g id="JS">
	<polygon class="st5" points="2.701,52.5 197.701,52.5 182.701,244.5 100.701,268.5 17.701,246.5 	"/>
	<polygon class="st6" points="75.701,198.5 75.701,92.5 95.701,92.5 95.701,229.5 45.701,215.5 45.701,177.5 62.701,181.5 
		62.701,194.5 	"/>
	<polygon class="st6" points="161.701,92.5 105.701,92.5 105.701,165.5 135.701,165.5 133.701,194.5 105.701,203.5 105.701,229.5 
		151.701,215.5 158.701,142.5 125.701,142.5 125.701,116.5 161.701,116.5 	"/>
	<polygon class="st7" points="82.701,0.5 94.701,0.5 94.701,37.5 64.701,37.5 64.701,22.5 76.701,22.5 76.701,25.5 82.701,25.5 	"/>
	<polygon class="st7" points="136.701,0.5 106.701,0.5 106.701,13.5 115.701,25.5 106.701,25.5 106.701,37.5 136.701,37.5 
		136.701,25.5 124.701,13.5 136.701,13.5 	"/>
</g>
</svg>
