<svg enable-background="new 0 0 1999.076 421.5" viewBox="0 0 1999.076 421.5" xmlns="http://www.w3.org/2000/svg"><g stroke="#000" stroke-miterlimit="10" stroke-width="4"><path d="m0 417.5h539" fill="none"/><path d="m252.382 2.982c43.806-5.841 104.278 42.275 98.641 99.581s-38.517 101.46-103.339 93.005-98.641-77.034-77.034-125.885 53.549-62.944 81.732-66.701z" fill="#fff"/><circle cx="276.5" cy="124" fill="none" r="1.5"/><circle cx="310.5" cy="131" fill="none" r="1.5"/><path d="m170 417.5s1-12.834 1-25c0-12 1-18 1-18s-65-12-74-37 16-83 42-109 62.097-50.25 62.097-50.25 26.363 18.357 55.633 18.357 51.27-11.478 51.27-11.478 138 43.371 140 68.371-26 38-40 44-48 11-48 11 7-19 3-30-23-23-23-23-18-1-23 7-5 23-5 23h-109l1 19s23 6 36 11 29 15 29 15-8 10-8 23 8 30 8 30l-53-4s0 9 15 23c8.335 7.78 26.153 15 26.153 15z" fill="#9b59b6"/><path d="m233 156.5s17 8 29 10 26 0 26 0" fill="none"/><path d="m256.73 166.642s-5.305 11.602-13.73 7.858c-9-4-.777-13.556-.777-13.556s1.413.434 7.777 2.556c6 2 6.73 3.142 6.73 3.142z" fill="#efabc7"/><path d="m205 304.5s-37-7-54-7" fill="#f7931e"/><path d="m175 276.5-1 23" fill="#f7931e"/><path d="m341 255.5s6-5 20-7 21-3 21-3" fill="#f7931e"/><path d="m409 297.5s-2 57-14 81-33.5 39-33.5 39" fill="none"/><path d="m313 285.5s5.227 33.457 29 29c16-3 19-6 19-6" fill="none"/><path d="m270 330.5s29-14 40 7-4 45-17 46-23 0-23 0-8-18-8-30 8-23 8-23z" fill="#fff"/><path d="m270.794 410.696c21.415-.208 74.028 1.399 81.206-.196 9-2 14-4 27-21 12.058-15.768 18-43 18-43s-27 16-45 8c-17.362-7.717-38.185 3-38.185 3s.185-3-1.895 6.898-10.92 16.102-15.407 18.298-27.513.804-27.513.804l-44.573-3.096s3.573 7.096 9.573 14.096c0 0 16.588 16.392 36.794 16.196z" fill="#8c6239"/><path d="m319 230.5 6 27" fill="#f7931e"/><path d="m337 314.909 3 13.591s-9.877 19.984-8 35c2 16 7 23 7 23" fill="none"/><path d="m370 380.5s-2-22-11-36-19-16-19-16-2 25 0 35 5 16 5 16" fill="none"/><path d="m341 329.5s9 10 15 25 4 23 4 23" fill="none"/><path d="m340 331.913s8 22.587 10 28.587 3 17 3 17" fill="none"/><path d="m303 223.5s-4 2-6 7c-1.857 4.642 0 11 0 11" fill="none"/><path d="m166.284 373.304s13.716 3.196 25.716 4.196 25 2 25 2" fill="#f7931e"/><path d="m286 247.5s-5-13-2-22 12-13 12-13" fill="none"/><path d="m467 229.5s9 3 11 9-2 14-2 14" fill="none"/><path d="m480.792 214.587s8.977 2.358 14.208 14.913c5 12 1 26 1 26" fill="none"/><path d="m785 417.5h408" fill="#fff"/><path d="m947.448 45.015c42.208-35.002 146.228-22.979 155.629 58.491s-37.602 136.828-125.339 110.716-73.114-133.694-30.29-169.207z" fill="#fff"/><circle cx="964.5" cy="149" fill="none" r="1.5"/><circle cx="997.5" cy="152" fill="none" r="1.5"/><path d="m991 192.5h28" fill="none"/><path d="m979.001 215.5s-48.003 14-66.005 32-34.003 46-40.003 65-9.001 53-9.001 53 17.001-5 26.002 0 15.001 14 15.001 14l1-30h57.005v68h133l.01-72s64.005-8 73.005-19c9.001-11 16.001-41-32.002-70s-87.981-39.889-87.981-39.889-14.76 4.137-33.895 4.137-36.136-5.248-36.136-5.248z" fill="#9b59b6"/><path d="m1018.601 294.661-23.601-4.161-37 41 24 4 54 58 23-23 8.473-22.75-12.473-1.25z" fill="#f5ead5"/><path d="m982 334.5 20-21-7-23" fill="none"/><path d="m1058 370.5-20.949-21.181" fill="none"/><path d="m1002 312.5 3.766 4" fill="#f7931e"/><path d="m968 319.681s-15 2-23 12-8.377 17.819-8.377 17.819h17.573s-1.196-.819 3.804-7.819 5-9 5-9l-5-1z" fill="#f2f2f2"/><path d="m905 379.5s-7.385-12.506-18.182-15.288c-10.663-2.748-22.818 1.288-22.818 1.288s-10 7-11 17-.016 32.346 17.492 32.673 28.508-5.673 31.508-16.673 3-19 3-19" fill="#fff"/><path d="m1127 282.5s-15 0-37 1c-16.015.728-48 6-48 6s11 14 16 27-3 30-3 30 28 1 41-1 25.493-3.944 25.493-3.944" fill="none"/><path d="m1042 289.5s-19-4-29 10-13 38 6 46 36 1 36 1 7-18 3-30c-5.215-15.646-16-27-16-27z" fill="#fff"/><path d="m923 314.5v35" fill="#fff"/><path d="m905 361.5-4.842-.036c-2.291-.017-4.158 1.836-4.158 4.127v3.909" fill="none"/><path d="m905 374.5v42" fill="none"/><path d="m1404 43.5 85 41h423l86-41" fill="#98cfe2"/><path d="m1489 84.5v203l38-43h9v-122h324v122h13l39 43v-203z" fill="#98cfe2"/><path d="m1527 244.5h346l98 111-25.36 23h-486.64l-26-23z" fill="#999"/><path d="m1784.28 244.5s20.72-26 20.72-61-20.72-61-20.72-61h-150.089s-18.191 26-17.191 63c.964 35.68 22.87 59 22.87 59z" fill="#fff"/><circle cx="1683.5" cy="201" fill="none" r="1.5"/><circle cx="1727.5" cy="204" fill="none" r="1.5"/><g fill="#a67c52"><ellipse cx="1574" cy="287" rx="33" ry="10.5"/><ellipse cx="1658" cy="286" rx="33" ry="10.5"/><ellipse cx="1743" cy="287" rx="33" ry="10.5"/><ellipse cx="1827" cy="286" rx="33" ry="10.5"/><ellipse cx="1554" cy="327" rx="33" ry="10.5"/><ellipse cx="1652" cy="327" rx="33" ry="10.5"/><ellipse cx="1752" cy="327" rx="33" ry="10.5"/><ellipse cx="1851" cy="327" rx="33" ry="10.5"/></g><path d="m1873 244.5-13 18h-317l-16-18" fill="none"/><path d="m1433 355.5h538" fill="none"/><path d="m1860 262.5 79.418 93" fill="none"/><path d="m1543 262.5-74.676 93" fill="none"/><path d="m1468.703 378.737-26.703 35.763" fill="none"/><path d="m1929.358 377.686 25.642 32.814" fill="none"/><path d="m1489 421.5v-43h423v43" fill="#98cfe2"/><path d="m1536 378.737-19 35.763" fill="none"/><path d="m1864 378.737 19 35.763" fill="none"/><path d="m1593.564 378.737-12.564 35.763" fill="none"/><path d="m1805 378.737 12.564 35.763" fill="none"/><path d="m1701 378.5v36" fill="none"/><path d="m1646.685 378.737-6.685 35.763" fill="none"/><path d="m1752 378.737 6.685 35.763" fill="none"/></g></svg>