<?xml version="1.0" encoding="utf-8"?>
<!-- Generator: Adobe Illustrator 22.1.0, SVG Export Plug-In . SVG Version: 6.00 Build 0)  -->
<svg version="1.1" xmlns="http://www.w3.org/2000/svg" xmlns:xlink="http://www.w3.org/1999/xlink" x="0px" y="0px"
	 viewBox="0 0 1999.076 421.5" style="enable-background:new 0 0 1999.076 421.5;" xml:space="preserve">
<style type="text/css">
	.st0{display:none;}
	.st1{fill:none;stroke:#000000;stroke-width:4;stroke-miterlimit:10;}
	.st2{fill:#9B59B6;stroke:#000000;stroke-width:4;stroke-miterlimit:10;}
	.st3{fill:#EFABC7;stroke:#000000;stroke-width:4;stroke-miterlimit:10;}
	.st4{fill:#F7931E;stroke:#000000;stroke-width:4;stroke-miterlimit:10;}
	.st5{fill:#8C6239;stroke:#000000;stroke-width:4;stroke-miterlimit:10;}
	.st6{fill:#FFFFFF;stroke:#000000;stroke-width:4;stroke-miterlimit:10;}
	.st7{fill:#F5EAD5;stroke:#000000;stroke-width:4;stroke-miterlimit:10;}
	.st8{fill:#F2F2F2;stroke:#000000;stroke-width:4;stroke-miterlimit:10;}
	.st9{fill:#98CFE2;stroke:#000000;stroke-width:4;stroke-miterlimit:10;}
	.st10{fill:#B3B3B3;stroke:#000000;stroke-width:4;stroke-miterlimit:10;}
	.st11{fill:#999999;stroke:#000000;stroke-width:4;stroke-miterlimit:10;}
	.st12{fill:#A67C52;stroke:#000000;stroke-width:4;stroke-miterlimit:10;}
</style>
<g id="Layer_1" class="st0">
</g>
<g id="_x31__body">
	<line class="st1" x1="0" y1="417.5" x2="539" y2="417.5"/>
	<path class="st1" d="M252.382,2.982c43.806-5.841,104.278,42.275,98.641,99.581c-5.637,57.306-38.517,101.46-103.339,93.005
		s-98.641-77.034-77.034-125.885S224.199,6.739,252.382,2.982z"/>
	<circle class="st1" cx="276.5" cy="124" r="1.5"/>
	<circle class="st1" cx="310.5" cy="131" r="1.5"/>
	<path class="st2" d="M170,417.5c0,0,1-12.834,1-25c0-12,1-18,1-18s-65-12-74-37s16-83,42-109s62.097-50.25,62.097-50.25
		s26.363,18.357,55.633,18.357S309,185.129,309,185.129S447,228.5,449,253.5s-26,38-40,44s-48,11-48,11s7-19,3-30s-23-23-23-23
		s-18-1-23,7s-5,23-5,23H204l1,19c0,0,23,6,36,11s29,15,29,15s-8,10-8,23s8,30,8,30l-53-4c0,0,0,9,15,23
		c8.335,7.78,26.153,15,26.153,15H170z"/>
	<path class="st1" d="M233,156.5c0,0,17,8,29,10s26,0,26,0"/>
	<path class="st3" d="M256.73,166.642c0,0-5.305,11.602-13.73,7.858c-9-4-0.777-13.556-0.777-13.556s1.413,0.434,7.777,2.556
		C256,165.5,256.73,166.642,256.73,166.642z"/>
</g>
<g id="_x31__lines">
	<path class="st4" d="M205,304.5c0,0-37-7-54-7"/>
	<line class="st4" x1="175" y1="276.5" x2="174" y2="299.5"/>
	<path class="st4" d="M341,255.5c0,0,6-5,20-7s21-3,21-3"/>
	<path class="st1" d="M409,297.5c0,0-2,57-14,81s-33.5,39-33.5,39"/>
	<path class="st1" d="M313,285.5c0,0,5.227,33.457,29,29c16-3,19-6,19-6"/>
	<path class="st1" d="M270,330.5c0,0,29-14,40,7s-4,45-17,46s-23,0-23,0s-8-18-8-30S270,330.5,270,330.5z"/>
	<path class="st5" d="M270.794,410.696c21.415-0.208,74.028,1.399,81.206-0.196c9-2,14-4,27-21c12.058-15.768,18-43,18-43
		s-27,16-45,8c-17.362-7.717-38.185,3-38.185,3s0.185-3-1.895,6.898c-2.08,9.898-10.92,16.102-15.407,18.298S269,383.5,269,383.5
		l-44.573-3.096c0,0,3.573,7.096,9.573,14.096C234,394.5,250.588,410.892,270.794,410.696z"/>
	<line class="st4" x1="319" y1="230.5" x2="325" y2="257.5"/>
	<path class="st1" d="M337,314.909l3,13.591c0,0-9.877,19.984-8,35c2,16,7,23,7,23"/>
	<path class="st1" d="M370,380.5c0,0-2-22-11-36s-19-16-19-16s-2,25,0,35s5,16,5,16"/>
	<path class="st1" d="M341,329.5c0,0,9,10,15,25s4,23,4,23"/>
	<path class="st1" d="M340,331.913c0,0,8,22.587,10,28.587s3,17,3,17"/>
	<path class="st1" d="M303,223.5c0,0-4,2-6,7c-1.857,4.642,0,11,0,11"/>
	<path class="st4" d="M166.284,373.304c0,0,13.716,3.196,25.716,4.196s25,2,25,2"/>
	<path class="st1" d="M286,247.5c0,0-5-13-2-22s12-13,12-13"/>
	<path class="st1" d="M467,229.5c0,0,9,3,11,9s-2,14-2,14"/>
	<path class="st1" d="M480.792,214.587c0,0,8.977,2.358,14.208,14.913c5,12,1,26,1,26"/>
</g>
<g id="_x32__body">
	<line class="st6" x1="785" y1="417.5" x2="1193" y2="417.5"/>
	<path class="st1" d="M947.448,45.015c42.208-35.002,146.228-22.979,155.629,58.491s-37.602,136.828-125.339,110.716
		S904.624,80.528,947.448,45.015z"/>
	<circle class="st1" cx="964.5" cy="149" r="1.5"/>
	<circle class="st1" cx="997.5" cy="152" r="1.5"/>
	<line class="st1" x1="991" y1="192.5" x2="1019" y2="192.5"/>
	<path class="st2" d="M979.001,215.5c0,0-48.003,14-66.005,32s-34.003,46-40.003,65s-9.001,53-9.001,53s17.001-5,26.002,0
		c9.001,5,15.001,14,15.001,14l1-30H963v68h133l0.01-72c0,0,64.005-8,73.005-19c9.001-11,16.001-41-32.002-70
		c-48.003-29-87.981-39.889-87.981-39.889s-14.76,4.137-33.895,4.137C996.002,220.748,979.001,215.5,979.001,215.5z"/>
</g>
<g id="_x32__carton">
	<polygon class="st7" points="1018.601,294.661 995,290.5 958,331.5 982,335.5 1036,393.5 1059,370.5 1067.473,347.75 1055,346.5 	
		"/>
	<polyline class="st1" points="982,334.5 1002,313.5 995,290.5 	"/>
	<line class="st1" x1="1058" y1="370.5" x2="1037.051" y2="349.319"/>
	<line class="st4" x1="1002" y1="312.5" x2="1005.766" y2="316.5"/>
	<path class="st8" d="M968,319.681c0,0-15,2-23,12s-8.377,17.819-8.377,17.819h17.573c0,0-1.196-0.819,3.804-7.819s5-9,5-9l-5-1
		L968,319.681z"/>
</g>
<g id="_x32__lines">
	<path class="st1" d="M864,365.5c0,0-10,7-11,17s-0.016,32.346,17.492,32.673S899,409.5,902,398.5s3-19,3-19"/>
	<path class="st1" d="M1096,345.5"/>
	<path class="st1" d="M1127,282.5c0,0-15,0-37,1c-16.015,0.728-48,6-48,6s11,14,16,27s-3,30-3,30s28,1,41-1
		s25.493-3.944,25.493-3.944"/>
	<path class="st6" d="M1042,289.5c0,0-19-4-29,10s-13,38,6,46s36,1,36,1s7-18,3-30C1052.785,300.854,1042,289.5,1042,289.5z"/>
	<line class="st6" x1="923" y1="314.5" x2="923" y2="349.5"/>
	<path class="st1" d="M905,361.5l-4.842-0.036c-2.291-0.017-4.158,1.836-4.158,4.127v3.909"/>
	<path class="st8" d="M904.766,383.489"/>
	<line class="st1" x1="905" y1="374.5" x2="905" y2="416.5"/>
</g>
<g id="_x33__oven__x2B__pan">
	<polyline class="st9" points="1404,43.5 1489,84.5 1912,84.5 1998,43.5 	"/>
	<polygon class="st9" points="1489,84.5 1489,287.5 1527,244.5 1536,244.5 1536,122.5 1860,122.5 1860,244.5 1873,244.5 1912,287.5 
		1912,84.5 	"/>
	<path class="st10" d="M1860,244.5"/>
	<path class="st10" d="M1536,244.5"/>
	<polygon class="st11" points="1527,244.5 1873,244.5 1971,355.5 1945.64,378.5 1459,378.5 1433,355.5 	"/>
	<path class="st1" d="M1634.191,122.5c0,0-18.191,26-17.191,63c0.964,35.68,22.87,59,22.87,59"/>
	<path class="st1" d="M1784.28,122.5c0,0,20.72,26,20.72,61s-20.72,61-20.72,61"/>
	<circle class="st1" cx="1683.5" cy="201" r="1.5"/>
	<circle class="st1" cx="1727.5" cy="204" r="1.5"/>
	<ellipse class="st12" cx="1574" cy="287" rx="33" ry="10.5"/>
	<ellipse class="st12" cx="1658" cy="286" rx="33" ry="10.5"/>
	<ellipse class="st12" cx="1743" cy="287" rx="33" ry="10.5"/>
	<ellipse class="st12" cx="1827" cy="286" rx="33" ry="10.5"/>
	<ellipse class="st12" cx="1554" cy="327" rx="33" ry="10.5"/>
	<ellipse class="st12" cx="1652" cy="327" rx="33" ry="10.5"/>
	<ellipse class="st12" cx="1752" cy="327" rx="33" ry="10.5"/>
	<ellipse class="st12" cx="1851" cy="327" rx="33" ry="10.5"/>
</g>
<g id="_x33__lines">
	<polyline class="st1" points="1873,244.5 1860,262.5 1543,262.5 1527,244.5 	"/>
	<line class="st1" x1="1433" y1="355.5" x2="1971" y2="355.5"/>
	<line class="st1" x1="1860" y1="262.5" x2="1939.418" y2="355.5"/>
	<line class="st1" x1="1543" y1="262.5" x2="1468.324" y2="355.5"/>
	<line class="st1" x1="1468.703" y1="378.737" x2="1442" y2="414.5"/>
	<line class="st1" x1="1929.358" y1="377.686" x2="1955" y2="410.5"/>
	<polyline class="st9" points="1489,421.5 1489,378.5 1912,378.5 1912,421.5 	"/>
	<line class="st1" x1="1536" y1="378.737" x2="1517" y2="414.5"/>
	<line class="st1" x1="1864" y1="378.737" x2="1883" y2="414.5"/>
	<line class="st1" x1="1593.564" y1="378.737" x2="1581" y2="414.5"/>
	<line class="st1" x1="1805" y1="378.737" x2="1817.564" y2="414.5"/>
	<line class="st1" x1="1701" y1="378.5" x2="1701" y2="414.5"/>
	<line class="st1" x1="1646.685" y1="378.737" x2="1640" y2="414.5"/>
	<line class="st1" x1="1752" y1="378.737" x2="1758.685" y2="414.5"/>
</g>
</svg>
