<svg viewBox="0 0 204.309 166.847" xmlns="http://www.w3.org/2000/svg"><path d="m94.815 91.343a2.5 2.5 0 0 1 -2.5 2.5c-1.38 0-4.5-2.12-4.5-3.5a3.46 3.46 0 0 1 3.5-3.5c2.5 0 3.5 3.119 3.5 4.5z" fill="#fff"/><g stroke="#000" stroke-miterlimit="10"><path d="m110.212 45-13.358 15.267a6.405 6.405 0 0 0 -1.584 4.217v91.516s34.154 8.538 53.365 8.538c17.077 0 53.365-8.538 53.365-8.538v-93.4a6.4 6.4 0 0 0 -1.876-4.529l-13.066-13.071z" fill="#fcfcfc" stroke-width="4.618"/><path d="m110.212 12.982v32.018s21.346 8.538 38.423 8.538 38.423-8.538 38.423-8.538v-29.884" fill="#2f35a3" stroke-width="4.618"/><ellipse cx="148.635" cy="12.982" fill="#2f35a3" rx="38.423" ry="10.673" stroke-width="4.618"/><path d="m95.27 73.962s27.75 11.6 53.365 11.6 53.365-11.6 53.365-11.6v48.978s-29.884 9.579-53.365 9.579-53.365-10.025-53.365-10.025z" fill="#2b97e0" stroke-width="4.618"/><rect fill="#18a0a0" height="13.817" rx="6.908" stroke-width="4" transform="matrix(.96348105 .26777653 -.26777653 .96348105 38.524 -5.334)" width="36.845" x="20.396" y="131.667"/><rect fill="#18a0a0" height="13.817" rx="6.908" stroke-width="4" width="36.845" x="2" y="140.222"/></g></svg>