<svg enable-background="new 0 0 386 219.8" viewBox="0 0 386 219.8" xmlns="http://www.w3.org/2000/svg"><path d="m206.8 158.1c0 1.4-1.1 2.5-2.5 2.5s-4.5-2.1-4.5-3.5 1-3.5 3.5-3.5 3.5 3.1 3.5 4.5z" fill="#fff"/><g stroke="#000" stroke-miterlimit="10" stroke-width="4"><path d="m292.2 80.8-13.3 15.2c-1 1.2-1.6 2.7-1.6 4.2v91.5s34.2 8.5 53.4 8.5c17.1 0 53.4-8.5 53.4-8.5v-93.4c0-1.7-.7-3.3-1.9-4.5l-13.1-13.1h-76.9z" fill="#fcfcfc"/><path d="m292.2 48.7v32s21.3 8.5 38.4 8.5 38.4-8.5 38.4-8.5v-29.8" fill="#2f35a3"/><ellipse cx="330.6" cy="48.7" fill="#2f35a3" rx="38.4" ry="10.7"/><path d="m277.3 109.7s27.7 11.6 53.4 11.6 53.4-11.6 53.4-11.6v49s-29.9 9.6-53.4 9.6-53.4-10-53.4-10z" fill="#2b97e0"/><path d="m222.1 212.1-22.2-6.2c-3.7-1-5.8-4.8-4.8-8.5 1-3.7 4.8-5.8 8.5-4.8l22.2 6.2c3.7 1 5.8 4.8 4.8 8.5-1 3.6-4.9 5.8-8.5 4.8z" fill="#18a0a0"/><path d="m205.9 217.8h-23c-3.8 0-6.9-3.1-6.9-6.9 0-3.8 3.1-6.9 6.9-6.9h23c3.8 0 6.9 3.1 6.9 6.9 0 3.8-3.1 6.9-6.9 6.9z" fill="#18a0a0"/><path d="m81.6 138.7c-40.8 4.8-71.9-2.4-79.1-55.1s62.3-16.8 62.3-16.8l-.4 14.2s-33.1-19.3-43.8-9.9c-9.9 8.8 1.1 33.9 9.9 43.8 9.9 11.1 19.7 10.9 30.7 12s14.2-3.3 14.2-3.3z" fill="#49569e"/><path d="m232.7 28.4s-9.6 105.5-21.6 119.9-45.6 28.8-69.5 28.8-55.1-7.2-69.5-28.8-31.2-115.1-31.2-115.1 47.9-31.2 98.3-31.2 93.5 26.4 93.5 26.4z" fill="#49569e"/><path d="m40.9 28.4c0 14.6 43.7 26.4 94.7 26.4s97.1-11.8 97.1-26.4-46.1-26.4-97.1-26.4-94.7 11.8-94.7 26.4z" fill="#49569e"/></g></svg>