<svg enable-background="new 0 0 2711.425 572.184" viewBox="0 0 2711.425 572.184" xmlns="http://www.w3.org/2000/svg"><g stroke="#000" stroke-miterlimit="10" stroke-width="4"><path d="m2091.758 143.184h277s34-57-10-77c-49.996-22.725-67 18-67 18s-15-111-98-75-70 81-70 81-21-30-43-6 11 59 11 59z" fill="none"/><path d="m2482.758 570.184h220s15-20 0-28-28 1-28 1 35-30 7-43-66 15-66 15-18-73-74-54-41 69-41 69-13.979-14.021-26-2c-15 15 8 42 8 42z" fill="none"/><path d="m1642.758 349.184s88 0 59-27-152-132-215-132-939 13-939 13-31 8-15 27 147.134 87.067 171 99c28 14 44 17 83 17s856 3 856 3z" fill="#fefefe"/><path d="m26.758 515.184h215s33-5 7-32-53 0-53 0 4-73-53-67-46 53-46 53-5-33-42-37-57 32-52 50 24 33 24 33z" fill="none"/><path d="m776.573 199.736-222.815-166.552-56 4 92.089 165.289z" fill="#00645a"/><g fill="#f2f2f2"><path d="m666.758 248.184 110-5s-25 35-49 48-137 49-137 49h-28z"/><path d="m795.758 199.485s.09-10.043-1-25.301c-1-14-2-31-2-31h-11l-33.433 35.436 28.433 20.564z"/><path d="m1321.758 309.184s-156 115-164 119-231 67-246 67-47-3-61-24-14-23-4-26 14 11 29 9 216-127 216-127 40-28 71-29 120-6 159 11z"/><path d="m1413.969 191.184s18.79-18 19.79-22-7-69-10-76-41-27-49-27 5 15 3 24-1 17-18 33-87.896 69.512-87.896 69.512z"/></g><path d="m529.331 72.767c-.766-.9.39-2.147 1.347-1.454 14.577 10.551 53.381 37.407 81.08 45.871 30.81 9.414 56.155 12.898 63.976 14.573.819.175 1.076 1.214.429 1.745-5.633 4.63-25.024 20.377-39.405 29.682-13.519 8.748-35.261 16.231-43.596 18.928-.965.312-1.724-.848-1.056-1.612l25.652-29.317s-26-13-39-24c-10.074-8.523-37.564-40.468-49.427-54.416z" fill="#fff"/><path d="m984.758 478.184 114.847-32.094s15.153 5.094 7.153 24.094-28 24-41 24-74.159-.879-81-10c-6-8 0-6 0-6z" fill="#989898"/><path d="m1078.021 493.008c-7.019-.831-14.088-1.674-18.835-7.545-7.353-9.094-5.174-26.562 6.953-30.344" fill="none"/><path d="m1429.306 125.064s2.452 1.12 6.452 4.12c7.131 5.348 14 9 12 19-2.511 12.558-14 13-14 13z" fill="#989898"/><path d="m1157.758 428.184 92.257-66.309s20.743 8.309 14.743 34.309-24 38-53 38-54-6-54-6z" fill="#989898"/><path d="m1235.758 431.184s-26 1-30-15 10.5-29.662 10.5-29.662" fill="none"/></g><g fill="#333"><circle cx="896.758" cy="243.184" r="13"/><circle cx="968.758" cy="243.184" r="13"/><circle cx="1039.758" cy="243.184" r="13"/><circle cx="1113.758" cy="243.184" r="13"/><circle cx="1185.758" cy="243.184" r="13"/><circle cx="1256.758" cy="243.184" r="13"/><circle cx="1326.758" cy="243.184" r="13"/><circle cx="1398.758" cy="243.184" r="13"/><circle cx="1469.758" cy="243.184" r="13"/></g><path d="m1606.758 119.184c60.069-2.772 103 44 103 92s-9 84-60 105-133-14-135-84 27-110 92-113z" fill="#fff" stroke="#000" stroke-miterlimit="10" stroke-width="4"/><circle cx="1635.258" cy="240.684" fill="none" r="1.5" stroke="#000" stroke-miterlimit="10" stroke-width="4"/><circle cx="1670.258" cy="242.684" fill="none" r="1.5" stroke="#000" stroke-miterlimit="10" stroke-width="4"/><path d="m1606.758 279.184s13 7 22 8 21-2 21-2" fill="none" stroke="#000" stroke-miterlimit="10" stroke-width="4"/></svg>