<svg enable-background="new 0 0 212 212" viewBox="0 0 212 212" xmlns="http://www.w3.org/2000/svg"><g stroke="#000" stroke-miterlimit="10" stroke-width="5"><path d="m55.5 47.5v-23s-2-22 49-22 51 23 51 23v55s-1 22-32 22-49 0-49 0-12 1-19 9-7 20-7 20v25s-23 3-31-5-15-16-15-50 19-46 30-46 74 0 74 0v-8z" fill="#3775a9"/><path d="m156.5 164.5v23s2 22-49 22-51-23-51-23v-55s1-22 32-22 49 0 49 0 12-1 19-9 7-20 7-20v-25s23-3 31 5 15 16 15 50-19 46-30 46-74 0-74 0v8z" fill="#ffd848"/><g fill="#fff"><circle cx="77.5" cy="26.5" r="9"/><circle cx="135.5" cy="183.5" r="9"/></g></g></svg>