<?xml version="1.0" encoding="utf-8"?>
<!-- Generator: Adobe Illustrator 22.1.0, SVG Export Plug-In . SVG Version: 6.00 Build 0)  -->
<svg version="1.1" xmlns="http://www.w3.org/2000/svg" xmlns:xlink="http://www.w3.org/1999/xlink" x="0px" y="0px"
	 viewBox="0 0 205 183.552" style="enable-background:new 0 0 205 183.552;" xml:space="preserve">
<style type="text/css">
	.st0{display:none;}
	.st1{fill:#61DAFB;stroke:#000000;stroke-width:5;stroke-miterlimit:10;}
	.st2{fill:#FFFFFF;stroke:#000000;stroke-width:5;stroke-miterlimit:10;}
	.st3{fill:#61DAFB;stroke:#000000;stroke-width:4.9275;stroke-miterlimit:10;}
</style>
<g id="Layer_1" class="st0">
	
		<image style="display:inline;overflow:visible;" width="267" height="189" xlink:href="../../../../Desktop/download-1.png"  transform="matrix(1.2846 0 0 1.2846 -69 -28.875)">
	</image>
</g>
<g id="Layer_3">
	<path class="st1" d="M52.5,4.625c11-6,27,2,36,8s14,12,14,12s4-4,13-11s26-15,37-9s12,28,11,37s-2,16-2,16s10,3,17,7s24,13,24,28
		s-19,24-26,27s-16,5-16,5s3,13,3,19s3,28-11,35s-34-6-39-10s-11-10-11-10s-5,6-11,10s-24,18-39,10s-12-35-11-41s3-12,3-12
		s-12-4-19-7s-23-13-23-27s19-25,27-28s15-5,15-5s-2-8-3-18S41.5,10.625,52.5,4.625z"/>
</g>
<g id="Layer_4">
	<path class="st2" d="M96.5,31.625c0,0-6,5-10,9s-7,11-7,11s-11,1-15,2s-11,3-11,3s-6.126-37.193,3-43
		C67.5,6.625,96.5,31.625,96.5,31.625z"/>
	<path class="st2" d="M152.353,56.075c0,0-7.418-2.443-12.929-3.719c-5.511-1.276-13.038-0.115-13.038-0.115
		s-6.672-8.803-9.638-11.667c-2.966-2.864-8.368-7.744-8.368-7.744s28.311-24.886,38.069-20.218
		C158.21,18.237,152.353,56.075,152.353,56.075z"/>
	<path class="st2" d="M157.51,116.119c0,0-1.06-7.738-2.332-13.25s-5.618-11.766-5.618-11.766s4.982-9.858,6.253-13.78
		c1.272-3.922,3.286-10.918,3.286-10.918s34.787,14.516,34.875,25.333C194.08,104.776,157.51,116.119,157.51,116.119z"/>
	<path class="st2" d="M108.962,152.522c0,0,6-5,10-9s7-11,7-11s11-1,15-2s11-3,11-3s6.126,37.193-3,43
		C137.962,177.522,108.962,152.522,108.962,152.522z"/>
	<path class="st2" d="M53.108,128.072c0,0,7.418,2.443,12.929,3.719c5.511,1.276,13.038,0.115,13.038,0.115
		s6.672,8.803,9.638,11.667c2.966,2.864,8.368,7.744,8.368,7.744s-28.311,24.886-38.069,20.218
		C47.251,165.91,53.108,128.072,53.108,128.072z"/>
	<path class="st2" d="M47.951,68.027c0,0,1.06,7.738,2.332,13.25c1.272,5.512,5.618,11.766,5.618,11.766s-4.982,9.858-6.253,13.78
		c-1.272,3.922-3.286,10.918-3.286,10.918s-34.787-14.516-34.875-25.333C11.382,79.371,47.951,68.027,47.951,68.027z"/>
	<path class="st2" d="M56.5,65.625c0,0,0,5,1,8s4,9,4,9s4-9,5-11s7-10,7-10s-6,0-10,1C59.619,63.595,56.5,65.625,56.5,65.625z"/>
	<path class="st2" d="M101.245,39.497c0,0-4.298,2.555-6.366,4.947s-5.693,8.037-5.693,8.037s9.78-1.16,12.01-1.322
		c2.23-0.162,12.173,0.908,12.173,0.908s-3.066-5.158-5.969-8.085C104.583,41.142,101.245,39.497,101.245,39.497z"/>
	<path class="st2" d="M148.5,64.625c0,0,0,5-1,8s-4,9-4,9s-4-9-5-11s-7-10-7-10s6,0,10,1C145.381,62.595,148.5,64.625,148.5,64.625z
		"/>
	<path class="st2" d="M56.5,118.497c0,0,0-5,1-8s4-9,4-9s4,9,5,11s7,10,7,10s-6,0-10-1C59.619,120.527,56.5,118.497,56.5,118.497z"
		/>
	<path class="st2" d="M103.245,144.625c0,0-4.298-2.555-6.366-4.947c-2.068-2.392-5.693-8.037-5.693-8.037s9.78,1.16,12.01,1.322
		c2.23,0.162,12.173-0.908,12.173-0.908s-3.066,5.158-5.969,8.085C106.583,142.981,103.245,144.625,103.245,144.625z"/>
	<path class="st2" d="M148.5,119.497c0,0,0-5-1-8s-4-9-4-9s-4,9-5,11s-7,10-7,10s6,0,10-1
		C145.381,121.527,148.5,119.497,148.5,119.497z"/>
	<path class="st2" d="M101.5,59.625c11,0,20,1,20,1s6,8,9,14s8,18,8,18s-3,9-7,15s-10,16-10,16s-8,1-16,1s-21-1-21-1s-7-8-10-14
		s-8-18-8-18s4-10,7-16s10-15,10-15S90.5,59.625,101.5,59.625z"/>
</g>
<g id="Layer_2">
	<circle class="st3" cx="102.5" cy="92.625" r="17"/>
</g>
</svg>
