<svg enable-background="new 0 0 205 183.552" viewBox="0 0 205 183.552" xmlns="http://www.w3.org/2000/svg"><g stroke="#000" stroke-miterlimit="10"><g stroke-width="5"><path d="m52.5 4.625c11-6 27 2 36 8s14 12 14 12 4-4 13-11 26-15 37-9 12 28 11 37-2 16-2 16 10 3 17 7 24 13 24 28-19 24-26 27-16 5-16 5 3 13 3 19 3 28-11 35-34-6-39-10-11-10-11-10-5 6-11 10-24 18-39 10-12-35-11-41 3-12 3-12-12-4-19-7-23-13-23-27 19-25 27-28 15-5 15-5-2-8-3-18 0-30 11-36z" fill="#61dafb"/><path d="m96.5 31.625s-6 5-10 9-7 11-7 11-11 1-15 2-11 3-11 3-6.126-37.193 3-43c11-7 40 18 40 18z" fill="#fff"/><path d="m152.353 56.075s-7.418-2.443-12.929-3.719-13.038-.115-13.038-.115-6.672-8.803-9.638-11.667-8.368-7.744-8.368-7.744 28.311-24.886 38.069-20.218c11.761 5.625 5.904 43.463 5.904 43.463z" fill="#fff"/><path d="m157.51 116.119s-1.06-7.738-2.332-13.25-5.618-11.766-5.618-11.766 4.982-9.858 6.253-13.78c1.272-3.922 3.286-10.918 3.286-10.918s34.787 14.516 34.875 25.333c.106 13.038-36.464 24.381-36.464 24.381z" fill="#fff"/><path d="m108.962 152.522s6-5 10-9 7-11 7-11 11-1 15-2 11-3 11-3 6.126 37.193-3 43c-11 7-40-18-40-18z" fill="#fff"/><path d="m53.108 128.072s7.418 2.443 12.929 3.719 13.038.115 13.038.115 6.672 8.803 9.638 11.667 8.368 7.744 8.368 7.744-28.311 24.886-38.069 20.218c-11.761-5.625-5.904-43.463-5.904-43.463z" fill="#fff"/><path d="m47.951 68.027s1.06 7.738 2.332 13.25 5.618 11.766 5.618 11.766-4.982 9.858-6.253 13.78c-1.272 3.922-3.286 10.918-3.286 10.918s-34.787-14.516-34.875-25.333c-.105-13.037 36.464-24.381 36.464-24.381z" fill="#fff"/><path d="m56.5 65.625s0 5 1 8 4 9 4 9 4-9 5-11 7-10 7-10-6 0-10 1c-3.881.97-7 3-7 3z" fill="#fff"/><path d="m101.245 39.497s-4.298 2.555-6.366 4.947-5.693 8.037-5.693 8.037 9.78-1.16 12.01-1.322 12.173.908 12.173.908-3.066-5.158-5.969-8.085c-2.817-2.84-6.155-4.485-6.155-4.485z" fill="#fff"/><path d="m148.5 64.625s0 5-1 8-4 9-4 9-4-9-5-11-7-10-7-10 6 0 10 1c3.881.97 7 3 7 3z" fill="#fff"/><path d="m56.5 118.497s0-5 1-8 4-9 4-9 4 9 5 11 7 10 7 10-6 0-10-1c-3.881-.97-7-3-7-3z" fill="#fff"/><path d="m103.245 144.625s-4.298-2.555-6.366-4.947-5.693-8.037-5.693-8.037 9.78 1.16 12.01 1.322 12.173-.908 12.173-.908-3.066 5.158-5.969 8.085c-2.817 2.841-6.155 4.485-6.155 4.485z" fill="#fff"/><path d="m148.5 119.497s0-5-1-8-4-9-4-9-4 9-5 11-7 10-7 10 6 0 10-1c3.881-.97 7-3 7-3z" fill="#fff"/><path d="m101.5 59.625c11 0 20 1 20 1s6 8 9 14 8 18 8 18-3 9-7 15-10 16-10 16-8 1-16 1-21-1-21-1-7-8-10-14-8-18-8-18 4-10 7-16 10-15 10-15 7-1 18-1z" fill="#fff"/></g><circle cx="102.5" cy="92.625" fill="#61dafb" r="17" stroke-width="4.9275"/></g></svg>