<?xml version="1.0" encoding="utf-8"?>
<!-- Generator: Adobe Illustrator 22.1.0, SVG Export Plug-In . SVG Version: 6.00 Build 0)  -->
<svg version="1.1" xmlns="http://www.w3.org/2000/svg" xmlns:xlink="http://www.w3.org/1999/xlink" x="0px" y="0px"
	 viewBox="0 0 213.331 160.691" style="enable-background:new 0 0 213.331 160.691;" xml:space="preserve">
<style type="text/css">
	.st0{display:none;}
	.st1{fill:#CD679A;stroke:#000000;stroke-width:5;stroke-miterlimit:10;}
	.st2{fill:#FFFFFF;stroke:#000000;stroke-width:5;stroke-miterlimit:10;}
	.st3{fill:none;stroke:#000000;stroke-width:2;stroke-miterlimit:10;}
	.st4{fill:none;stroke:#000000;stroke-width:3;stroke-miterlimit:10;}
</style>
<g id="Layer_2" class="st0">
	
		<image style="display:inline;overflow:visible;" width="427" height="320" xlink:href="../../../../Desktop/color-1c4aab2b.png"  transform="matrix(0.4871 0 0 0.4871 2.7027 2.0323)">
	</image>
</g>
<g id="Layer_3">
	<path class="st1" d="M132.703,97.032c0,0,7-11,9-16s5-12,6-13s12-2,13,0s-4,9-2,17s4,11,4,11s7-5,22-4s25,10,26,19s-4,17-9,18
		s-9,0-7-2s9.533-5.935,10-12c0.5-6.5-6-15-21-15s-17,3-17,3s4,10-5,17s-15,7-17,6s-4-8,2-16s8-9,8-9s-3-5-4-8s-2-8-2-8s-3,7-6,12
		c-2.572,4.287-5,9-5,9s3,10-2,17s-8,8-14,10s-12-1-9-6s14-18,14-18s-2-5-3-8s-2-6-2-6s-6,13-8,17s-7.5,18.5-14.5,23.5
		c-5.146,3.676-7.5,0.5-9-4c-1-3-1.5-6.5-1.5-6.5s-6,16-14,14s-8-9-8-18s2-16,2-16l-12,7c0,0,2.5,5.5-1,22
		c-3.876,18.275-28,29-40,22s-4-26,7-35s17-12,17-12s-34.5-23.5-37-41c-2.404-16.829,17-35,36-47s35-18,56.5-18.5
		c27.992-0.651,34.886,8.657,38,18c3,9-2,27-14,37s-24.5,14.5-36.5,15.5s-20,0-27-5s-5-9-5-9s0-1,2,1s6,7,22,6s31-10,38-18
		s10-13,9-20s-3-11-18-13s-36.785,6.392-42,9c-6,3-19.055,9.938-27,17c-9,8-17,16-16,27s9,17,17,23s15,14,15,14l21-12
		c0,0,11-13,19-12s6,13,6,13s3-2,6,0s-3,14-4,20s-1,10,0,10s10-21,13-28s6-14,7-18s3-5,8-5c5,0,6,1,6,3s-2.383,2.492-2,9
		C131.203,93.532,132.703,97.032,132.703,97.032z"/>
	<path class="st2" d="M47.203,116.532c0,0-13,6-18,11c-6,6-12,15-5,18s16-2,19-6S50.203,131.532,47.203,116.532z"/>
	<path class="st2" d="M79.203,100.532c-5,11-6,22-3,26c3.499,4.665,13-33,13-35S84.388,89.125,79.203,100.532z"/>
	<path class="st3" d="M129.703,117.032l-7,8c0,0,3.543-1.264,5.007-3.269C129.703,119.032,129.703,117.032,129.703,117.032z"/>
	<path class="st4" d="M158.703,108.032c0,0-0.5,0.5-2.5,3.5s-3.5,5.5-3.5,5.5s2,0,5-3S158.703,108.032,158.703,108.032z"/>
</g>
</svg>
