<svg enable-background="new 0 0 213.331 160.691" viewBox="0 0 213.331 160.691" xmlns="http://www.w3.org/2000/svg"><g stroke="#000" stroke-miterlimit="10"><g stroke-width="5"><path d="m132.703 97.032s7-11 9-16 5-12 6-13 12-2 13 0-4 9-2 17 4 11 4 11 7-5 22-4 25 10 26 19-4 17-9 18-9 0-7-2 9.533-5.935 10-12c.5-6.5-6-15-21-15s-17 3-17 3 4 10-5 17-15 7-17 6-4-8 2-16 8-9 8-9-3-5-4-8-2-8-2-8-3 7-6 12c-2.572 4.287-5 9-5 9s3 10-2 17-8 8-14 10-12-1-9-6 14-18 14-18-2-5-3-8-2-6-2-6-6 13-8 17-7.5 18.5-14.5 23.5c-5.146 3.676-7.5.5-9-4-1-3-1.5-6.5-1.5-6.5s-6 16-14 14-8-9-8-18 2-16 2-16l-12 7s2.5 5.5-1 22c-3.876 18.275-28 29-40 22s-4-26 7-35 17-12 17-12-34.5-23.5-37-41c-2.404-16.829 17-35 36-47s35-18 56.5-18.5c27.992-.651 34.886 8.657 38 18 3 9-2 27-14 37s-24.5 14.5-36.5 15.5-20 0-27-5-5-9-5-9 0-1 2 1 6 7 22 6 31-10 38-18 10-13 9-20-3-11-18-13-36.785 6.392-42 9c-6 3-19.055 9.938-27 17-9 8-17 16-16 27s9 17 17 23 15 14 15 14l21-12s11-13 19-12 6 13 6 13 3-2 6 0-3 14-4 20-1 10 0 10 10-21 13-28 6-14 7-18 3-5 8-5 6 1 6 3-2.383 2.492-2 9c.5 8.5 2 12 2 12z" fill="#cd679a"/><path d="m47.203 116.532s-13 6-18 11c-6 6-12 15-5 18s16-2 19-6 7-8 4-23z" fill="#fff"/><path d="m79.203 100.532c-5 11-6 22-3 26 3.499 4.665 13-33 13-35s-4.815-2.407-10 9z" fill="#fff"/></g><path d="m129.703 117.032-7 8s3.543-1.264 5.007-3.269c1.993-2.731 1.993-4.731 1.993-4.731z" fill="none" stroke-width="2"/><path d="m158.703 108.032s-.5.5-2.5 3.5-3.5 5.5-3.5 5.5 2 0 5-3 1-6 1-6z" fill="none" stroke-width="3"/></g></svg>