<svg viewBox="0 0 2342.982 875.07" xmlns="http://www.w3.org/2000/svg"><g stroke="#000" stroke-width="4"><path d="m2 874.85v-281l19-18h38l.309 299" fill="#7a5237" stroke-miterlimit="10"/><path d="m56.691 577.85-13 16h-39.691" fill="none" stroke-miterlimit="10"/><path d="m44 874.85v-281" fill="none" stroke-miterlimit="10"/><path d="m143 370.85h38v434h-57v-415.996z" fill="#7a5237" stroke-miterlimit="10"/><path d="m178.97 372.85-13 16h-39.97" fill="none" stroke-miterlimit="10"/><path d="m166 826.85v-438" fill="none" stroke-miterlimit="10"/><path d="m58.938 723.857 86.062-165.417.062-102.015-86.062 165.417z" fill="#aa8a6a" stroke-linecap="round" stroke-linejoin="round"/><g stroke-miterlimit="10"><path d="m522 874.85v-248s-409-18-425-5c-9.051 7.353-6 253-6 253" fill="#e4e5ea"/><path d="m255 403.85h-51s-4-2-12 7-97 187-97 187-7 14-2 23c3.071 5.528 24 4 24 4h393l63-221z" fill="#eaeaea"/><path d="m220 396.85c-8.182-71.6 31-117 112-117 66 0 106 64 103 121s-37.772 91.4-105.04 91.4c-66 .003-105.96-60.4-109.96-95.4z" fill="#fff"/><circle cx="367.5" cy="339.35" fill="#fff" r="1.5"/><circle cx="365.5" cy="367.35" fill="#fff" r="1.5"/><path d="m401 366.85s-9 7-8 16 8 21 8 21" fill="#fff"/><path d="m462 309.85s-20-2-27 6-12.223 25-12.223 25 14.223 26 12.223 60c-1.472 25.022-13.627 49.032-13.627 49.032s21.627 53.968 35.627 56.968 65 6 65 6l-5-137z" fill="#892b2b"/><path d="m546 874.85-19-547s181-12 275 0 260-18 328-18 150 5 188 56 72 128 77 193-17 316-17 316" fill="#5f616b"/><path d="m577 874.85s-9-145-9-181 4-51 22-111 9-132 0-172-39-100-50-112-29-9-40-10-46 2-47 15 8 14 20 34 32 56 38 123-19 107-32 162 0 252 0 252" fill="#fff"/><path d="m1260 874.85v-281l19-18h38v299" fill="#7a5237"/><path d="m1315 577.85-13 16h-40" fill="none"/><path d="m1302 874.85v-281" fill="none"/><path d="m1382 874.85v-486l19-18h38v504" fill="#7a5237"/><path d="m1437.279 372.85-13 16h-40.279" fill="none"/><path d="m1424 874.85v-486" fill="none"/></g><path d="m1316.938 723.944 86.062-165.417.062-102.016-86.062 165.417z" fill="#aa8a6a" stroke-linecap="round" stroke-linejoin="round"/><path d="m2098 874.85v-473.269l-583 77.269v396" fill="#70482d" stroke-miterlimit="10"/><path d="m1943 874.85s1.2-20.863 1.332-45.069c.163-29.837-1.78-64.754-2.332-71.931-1-13-3-47-3-47l-59 79v51s21-18 31-30 14-18 14-18 4 29 4 43-1 39-1 39" fill="#a07a60" stroke-miterlimit="10"/><path d="m1881 798.85s22-12 39-37 34-54 20-61-56-4-64-4-335.584 18.569-335.584 18.569l10.584 95.431z" fill="#2c5382" stroke-miterlimit="10"/><path d="m1508.928 540.806s10.072-15.956 153.072-14.956 165 11 165 11l42 112v81s-67 49-156 48-171-50-171-50z" fill="#426b93" stroke-miterlimit="10"/><path d="m1889 874.85s5-81 0-148-33.254-159.04-45-184c-8-16.994-23.989-18-29-14-7.6 6.076 6 24 10.19 36.725 24.443 74.125 37.87 154.243 34.81 231.275 0 0-102 6-164 5s-132 2-132 2-10-108-20-155-21-105-26-109-13-8-17 2 19 115 23 144 12 108 14 139c2 30.951 0 50 0 50" fill="#b78d70" stroke-miterlimit="10"/><path d="m1567 874.85s1-9 1-16v-14s109 1 146 0 145-4 145-4v19c0 5-1 15-1 15" fill="#70482d" stroke-miterlimit="10"/><path d="m1923.285 795.711s4.715-7.861 8.715-13.861 10-17 10-17" fill="none" stroke-miterlimit="10"/><path d="m1983 874.85-1-428 347-133v561" fill="#a37b61" stroke-linejoin="round"/><path d="m2248 470.85 1 404" fill="none" stroke-linejoin="round"/><path d="m1596.753 2.85h732.501l-22.178 311-720.33.213z" fill="#9e785f" stroke-linecap="round" stroke-linejoin="round"/><path d="m2254.986 484.055 85.996-170.205h-754.29l-85.846 165z" fill="#936a4e" stroke-linecap="round" stroke-linejoin="round"/><path d="m1597.143 2.218-45.143 88.281v308.982l45-85.485z" fill="#a07c64" stroke-linecap="round" stroke-linejoin="round"/><path d="m1552 178.346 44.964-77.496h710.036v77z" fill="#936a4e" stroke-linecap="round" stroke-linejoin="round"/><path d="m2329.143 2-45.143 88.281v308.981l45-85.484z" fill="#7a543b" stroke-linecap="round" stroke-linejoin="round"/><path d="m1982 585.85h262" fill="none" stroke-linecap="round" stroke-linejoin="round"/><path d="m2247 691.85h-262" fill="none" stroke-linecap="round" stroke-linejoin="round"/><path d="m1733 389.85s29-15 26 7-16 25-33 23" fill="none" stroke-miterlimit="10"/><path d="m1663 373.85s4 44 9 50 19 12 29 12 23-3 29-12 13-48 13-48-20-13-41-13-39 11-39 11z" fill="#49569e" stroke-miterlimit="10"/><path d="m1743 373.85c0 6.075-18.237 11-39.5 11s-40.5-4.925-40.5-11 19.237-11 40.5-11 39.5 4.924 39.5 11z" fill="#49569e" stroke-miterlimit="10"/><path d="m1829 372.85-6.258 7.15a3 3 0 0 0 -.742 1.976v42.874s16 4 25 4c8 0 25-4 25-4v-43.758a3 3 0 0 0 -.879-2.121l-6.121-6.121z" fill="#fcfcfc" stroke-miterlimit="10"/><path d="m1829 357.85v15s10 4 18 4 18-4 18-4v-14" fill="#2f35a3" stroke-miterlimit="10"/><ellipse cx="1847" cy="357.85" fill="#2f35a3" rx="18" ry="5" stroke-miterlimit="10"/><path d="m1822 386.417s13 5.433 25 5.433 25-5.433 25-5.433v22.945s-14 4.488-25 4.488-25-4.7-25-4.7z" fill="#2b97e0" stroke-miterlimit="10"/><path d="m2078 362.85h-10.264a3 3 0 0 1 -2.464-4.712l46.43-66.859a1 1 0 0 1 .821-.429h163.477a1 1 0 0 1 1 1v30.706a1 1 0 0 1 -.158.54l-42.542 66.294a1 1 0 0 1 -.841.46h-170.783c-2.572 0-3.491-1.739-2.042-3.864l12.366-18.136z" fill="#408928" stroke-miterlimit="10"/><path d="m2271 320.557v-20.683c-1-5.154-6.25 3.773-6.812 4.57-7.594 10.769-38.583 53.8-41.188 56.407a13.873 13.873 0 0 1 -9 4l-141.986-1.986a1 1 0 0 0 -1.014 1v16.985a1 1 0 0 0 .994 1l155.474.989a1 1 0 0 0 .832-.435z" fill="#fff" stroke-miterlimit="10"/><path d="m199 214.85v36" fill="#c7b299" stroke-linecap="round" stroke-linejoin="round"/><path d="m188 232.85h22" fill="#c7b299" stroke-linecap="round" stroke-linejoin="round"/><path d="m191 221.85 16 20" fill="#c7b299" stroke-linecap="round" stroke-linejoin="round"/><path d="m207.088 222.094-16.088 19.756" fill="#c7b299" stroke-linecap="round" stroke-linejoin="round"/><path d="m249 121.85c9-3 49-1 52 4s-31 12-42 9-13-9 15-8 22 21 1 21-24-7-8-8c15.1-.944 31 16 8 19s-11-6-1-6-2 15-2 15" fill="none" stroke-linecap="round" stroke-linejoin="round"/><path d="m407 164.85v36" fill="#c7b299" stroke-linecap="round" stroke-linejoin="round"/><path d="m396 182.85h22" fill="#c7b299" stroke-linecap="round" stroke-linejoin="round"/><path d="m399 171.85 16 20" fill="#c7b299" stroke-linecap="round" stroke-linejoin="round"/><path d="m415.088 172.094-16.088 19.756" fill="#c7b299" stroke-linecap="round" stroke-linejoin="round"/><path d="m349 33.85v36" fill="#c7b299" stroke-linecap="round" stroke-linejoin="round"/><path d="m338 51.85h22" fill="#c7b299" stroke-linecap="round" stroke-linejoin="round"/><path d="m341 40.85 16 20" fill="#c7b299" stroke-linecap="round" stroke-linejoin="round"/><path d="m357.088 41.094-16.088 19.756" fill="#c7b299" stroke-linecap="round" stroke-linejoin="round"/></g></svg>