<svg enable-background="new 0 0 1336 599" viewBox="0 0 1336 599" xmlns="http://www.w3.org/2000/svg"><path d="m176 0v570h600.392v-570" fill="#ccc" stroke="#000" stroke-miterlimit="10" stroke-width="4"/><path d="m485 0v570" fill="#a67c52" stroke="#000" stroke-miterlimit="10" stroke-width="4"/><path d="m500 181h12v236h-12" fill="none" stroke="#000" stroke-miterlimit="10" stroke-width="4"/><path d="m468 181h-12v236h12" fill="none" stroke="#000" stroke-miterlimit="10" stroke-width="4"/><path d="m831 0v344" fill="#a67c52" stroke="#000" stroke-miterlimit="10" stroke-width="4"/><path d="m1154 0v344h24.3v-344" fill="#666" stroke="#000" stroke-miterlimit="10" stroke-width="4"/><path d="m1336 570h-769.227v-104l67.227-122h702" fill="#a67c52" stroke="#000" stroke-miterlimit="10" stroke-width="4"/><path d="m567 466h769" fill="#a67c52" stroke="#000" stroke-miterlimit="10" stroke-width="4"/><path d="m656.459 370.883c7.574-2.525 18.211 3.035 13.355 7.284s-13.962 3.642-16.39 1.821c-2.428-1.82-6.07-6.069 3.035-9.105z" fill="#999" stroke="#000" stroke-miterlimit="10" stroke-width="4"/><path d="m657.821 377.031c1.172 0 1.174-1.821 0-1.821-1.172 0-1.174 1.821 0 1.821z"/><path d="m662.993 375.006c1.172 0 1.174-1.821 0-1.821-1.172 0-1.174 1.821 0 1.821z"/><path d="m652.817 380.596s4.064 1.123 7.891.607c3.828-.516 7.77-1.225 7.77-1.225s4.067 5.171 3.46 13.062-.607 22.46-.607 22.46h-21.853s-.183-20.32.304-24.585c.64-5.611 3.045-10.739 3.035-10.319z" fill="none" stroke="#000" stroke-miterlimit="10" stroke-width="4"/><path d="m649.782 391.522s1.821-2.428 5.463-3.035 4.856 3.642 9.105 3.642 7.039-.802 7.039-.802l-.362 23.869h-21.246v-23.674z" fill="#e5e4e3" stroke="#000" stroke-miterlimit="10" stroke-width="4"/><path d="m662.07 378.245c1.172 0 1.174-1.821 0-1.821-1.172 0-1.174 1.821 0 1.821z"/><path d="m83.393 475.628c-10.11-14.261-26.393-12.628-28.393.372s4 31 3 47-14 43 1 52 37.398 8.683 45-5c10-18-4.072-28.207-13-54-9-26-2.213-27.744-7.607-40.372" fill="#b2464a" stroke="#000" stroke-miterlimit="10" stroke-width="4"/><path d="m0 570h1336" fill="#fff" stroke="#000" stroke-miterlimit="10" stroke-width="4"/><path d="m27 535h124s8 62-47 62-15 0-15 0 21 0-20 0c-49 0-42-62-42-62z" fill="none" stroke="#000" stroke-miterlimit="10" stroke-width="4"/><path d="m29 552.665s33.682-8.707 59.803-.967 60.197-3.206 60.197-3.206-1.289 46.658-42.352 46.658-17.845.083-17.845.083 2.902 0-23.219 0c-32.893 0-36.584-42.568-36.584-42.568z" fill="#29abe2" opacity=".45"/><g stroke="#000" stroke-miterlimit="10" stroke-width="4"><path d="m29 553s20.032-4.497 36.016-4.497c18.984 0 21.412 6.327 48.198 5.912s38.077-6.914 38.077-6.914" fill="none"/><path d="m265.5 190.5c54.264-25.147 130 0 135 79s-48 104-82 108-97-9-109-67 15-101 56-120z" fill="#fff"/><circle cx="250.5" cy="298.5" fill="none" r="1.5"/><circle cx="288.5" cy="300.5" fill="none" r="1.5"/><path d="m270 344s10 6 19 6 20-6 20-6" fill="none"/><path d="m270 372.689s24.87 5.476 36.935 5.476 32.553-5.476 32.553-5.476 73.512 6.311 82.512 64.311 6 133 6 133h-215s-2-24.955-2-36c0-11 0-25 0-25s-31 9-50 10-48-4-48-4 1-10 0-21-9-20-9-20 27 1 48-3 27-9 27-9 7-50 28-67c22.23-17.996 63-22.311 63-22.311z" fill="#3446c6"/><path d="m102.484 474s-19.475-4-28.639 5-6.32 40 13.155 41 26.126-5.25 26.126-5.25 3.106-13.75-.331-23.75-10.311-17-10.311-17z" fill="#fff"/><path d="m211 509s4-48 8-60" fill="none"/><path d="m368 453 2.874 117" fill="none"/><path d="m888 95c32.676-38.901 120-29 134 31s-19 91-48 101-84-4-98-39-9-68 12-93z" fill="#fff"/><circle cx="903" cy="161" fill="none" r="13"/><circle cx="899.5" cy="162.5" fill="none" r="1.5"/><circle cx="938" cy="162" fill="none" r="13"/><circle cx="934.5" cy="163.5" fill="none" r="1.5"/><path d="m919.99 224.582s17.734 6.724 37.872 5.571 31.018-10.111 31.018-10.111 45.12 11.958 65.12 23.958 82 5 82 5-3 7 0 23 0 16 0 16-43 13-64 11-54-14-54-14l2.866 59h-169.4s-6.466-62 9.534-85 58.99-34.418 58.99-34.418z" fill="#9b59b6"/><path d="m880 282v62" fill="#9b59b6"/></g><path d="m936 193c12-2 23.691 14.132 17 17-7 3-7 0-14 1s-5.978 2.86-12 2c-7-1-7.268-17.289 9-20z"/><path d="m1136 249s6-16 12-15 6.493 12.447 6.247 31.723-1.247 22.277-5.247 23.277-12-3-12-3" fill="none" stroke="#000" stroke-miterlimit="10" stroke-width="4"/></svg>