<?xml version="1.0" encoding="utf-8"?>
<!-- Generator: Adobe Illustrator 22.1.0, SVG Export Plug-In . SVG Version: 6.00 Build 0)  -->
<svg version="1.1" xmlns="http://www.w3.org/2000/svg" xmlns:xlink="http://www.w3.org/1999/xlink" x="0px" y="0px"
	 viewBox="0 0 1336 599" style="enable-background:new 0 0 1336 599;" xml:space="preserve">
<style type="text/css">
	.st0{display:none;}
	.st1{fill:#CCCCCC;stroke:#000000;stroke-width:4;stroke-miterlimit:10;}
	.st2{fill:#A67C52;stroke:#000000;stroke-width:4;stroke-miterlimit:10;}
	.st3{fill:none;stroke:#000000;stroke-width:4;stroke-miterlimit:10;}
	.st4{fill:#666666;stroke:#000000;stroke-width:4;stroke-miterlimit:10;}
	.st5{fill:#999999;stroke:#000000;stroke-width:4;stroke-miterlimit:10;}
	.st6{fill:#E5E4E3;stroke:#000000;stroke-width:4;stroke-miterlimit:10;}
	.st7{fill:#B2464A;stroke:#000000;stroke-width:4;stroke-miterlimit:10;}
	.st8{fill:#FFFFFF;stroke:#000000;stroke-width:4;stroke-miterlimit:10;}
	.st9{opacity:0.45;fill:#29ABE2;}
	.st10{fill:#3446C6;stroke:#000000;stroke-width:4;stroke-miterlimit:10;}
	.st11{fill:none;stroke:#000000;stroke-width:4.3333;stroke-miterlimit:10;}
	.st12{fill:#9B59B6;stroke:#000000;stroke-width:4;stroke-miterlimit:10;}
</style>
<g id="Layer_1" class="st0">
</g>
<g id="fridge">
	<polyline class="st1" points="176,0 176,570 776.392,570 776.392,0 	"/>
	<line class="st2" x1="485" y1="0" x2="485" y2="570"/>
	<polyline class="st3" points="500,181 512,181 512,417 500,417 	"/>
	<polyline class="st3" points="468,181 456,181 456,417 468,417 	"/>
	<line class="st2" x1="831" y1="0" x2="831" y2="344"/>
	<polyline class="st4" points="1154,0 1154,344 1178.3,344 1178.3,0 	"/>
</g>
<g id="counter">
	<polyline class="st2" points="1336,570 566.773,570 566.773,466 634,344 1336,344 	"/>
	<line class="st2" x1="567" y1="466" x2="1336" y2="466"/>
	<path class="st5" d="M656.459,370.883c7.574-2.525,18.211,3.035,13.355,7.284c-4.856,4.249-13.962,3.642-16.39,1.821
		C650.996,378.168,647.354,373.919,656.459,370.883z"/>
	<g>
		<g>
			<path d="M657.821,377.031c1.172,0,1.174-1.821,0-1.821C656.649,375.21,656.647,377.031,657.821,377.031L657.821,377.031z"/>
		</g>
	</g>
	<g>
		<g>
			<path d="M662.993,375.006c1.172,0,1.174-1.821,0-1.821C661.821,373.185,661.819,375.006,662.993,375.006L662.993,375.006z"/>
		</g>
	</g>
	<path class="st3" d="M652.817,380.596c0,0,4.064,1.123,7.891,0.607c3.828-0.516,7.77-1.225,7.77-1.225s4.067,5.171,3.46,13.062
		s-0.607,22.46-0.607,22.46h-21.853c0,0-0.183-20.32,0.304-24.585C650.422,385.304,652.827,380.176,652.817,380.596z"/>
	<path class="st6" d="M649.782,391.522c0,0,1.821-2.428,5.463-3.035c3.642-0.607,4.856,3.642,9.105,3.642s7.039-0.802,7.039-0.802
		l-0.362,23.869h-21.246V391.522z"/>
	<g>
		<g>
			<path d="M662.07,378.245c1.172,0,1.174-1.821,0-1.821C660.898,376.424,660.896,378.245,662.07,378.245L662.07,378.245z"/>
		</g>
	</g>
</g>
<g id="steak_and_table">
	<path class="st7" d="M83.393,475.628C73.283,461.367,57,463,55,476s4,31,3,47s-14,43,1,52s37.398,8.683,45-5
		c10-18-4.072-28.207-13-54C82,490,88.787,488.256,83.393,475.628"/>
	<line class="st8" x1="0" y1="570" x2="1336" y2="570"/>
</g>
<g id="bowl">
	<path class="st3" d="M27,535h124c0,0,8,62-47,62s-15,0-15,0s21,0-20,0C20,597,27,535,27,535z"/>
	<path class="st9" d="M29,552.665c0,0,33.682-8.707,59.803-0.967c26.121,7.74,60.197-3.206,60.197-3.206
		s-1.289,46.658-42.352,46.658s-17.845,0.083-17.845,0.083s2.902,0-23.219,0C32.691,595.233,29,552.665,29,552.665z"/>
	<path class="st3" d="M29,553c0,0,20.032-4.497,36.016-4.497c18.984,0,21.412,6.327,48.198,5.912
		c26.786-0.415,38.077-6.914,38.077-6.914"/>
</g>
<g id="brother">
	<path class="st8" d="M265.5,190.5c54.264-25.147,130,0,135,79s-48,104-82,108s-97-9-109-67S224.5,209.5,265.5,190.5z"/>
	<circle class="st3" cx="250.5" cy="298.5" r="1.5"/>
	<circle class="st3" cx="288.5" cy="300.5" r="1.5"/>
	<path class="st3" d="M270,344c0,0,10,6,19,6s20-6,20-6"/>
	<path class="st10" d="M270,372.689c0,0,24.87,5.476,36.935,5.476c12.065,0,32.553-5.476,32.553-5.476S413,379,422,437s6,133,6,133
		H213c0,0-2-24.955-2-36c0-11,0-25,0-25s-31,9-50,10s-48-4-48-4s1-10,0-21s-9-20-9-20s27,1,48-3s27-9,27-9s7-50,28-67
		C229.23,377.004,270,372.689,270,372.689z"/>
	<path class="st8" d="M102.484,474c0,0-19.475-4-28.639,5S67.525,519,87,520s26.126-5.25,26.126-5.25s3.106-13.75-0.331-23.75
		C109.358,481,102.484,474,102.484,474z"/>
	<path class="st3" d="M211,509c0,0,4-48,8-60"/>
	<line class="st3" x1="368" y1="453" x2="370.874" y2="570"/>
</g>
<g id="me">
	<path class="st3" d="M888,95c32.676-38.901,120-29,134,31s-19,91-48,101s-84-4-98-39S867,120,888,95z"/>
	<circle class="st11" cx="903" cy="161" r="13"/>
	<circle class="st3" cx="899.5" cy="162.5" r="1.5"/>
	<circle class="st11" cx="938" cy="162" r="13"/>
	<circle class="st3" cx="934.5" cy="163.5" r="1.5"/>
	<path class="st12" d="M919.99,224.582c0,0,17.734,6.724,37.872,5.571C978,229,988.88,220.042,988.88,220.042S1034,232,1054,244
		s82,5,82,5s-3,7,0,23s0,16,0,16s-43,13-64,11s-54-14-54-14l2.866,59h-169.4c0,0-6.466-62,9.534-85S919.99,224.582,919.99,224.582z"
		/>
	<line class="st12" x1="880" y1="282" x2="880" y2="344"/>
	<path d="M936,193c12-2,23.691,14.132,17,17c-7,3-7,0-14,1s-5.978,2.86-12,2C920,212,919.732,195.711,936,193z"/>
	<path class="st3" d="M1136,249c0,0,6-16,12-15s6.493,12.447,6.247,31.723S1153,288,1149,289s-12-3-12-3"/>
</g>
</svg>
