<svg enable-background="new 0 0 1909 528.846" viewBox="0 0 1909 528.846" xmlns="http://www.w3.org/2000/svg"><g stroke="#000" stroke-miterlimit="10" stroke-width="4"><path d="m0 397.846h1909" fill="none"/><path d="m567 405.761.059-55.216c-.026-.781-.897-.232-1.55.198l-79.024 53.317c-.951.642-.249 2.118.849 1.786z" fill="#0071bb"/><path d="m693 377.846 80.396-57.149c.799-.568 5.583-2.862 4.604-2.851l-180 3-85 55v31h180z" fill="#192e99"/><path d="m1415 458.846v59s11 9 29 9 27-8 27-8v-60s-16-7-28-7-28 7-28 7z" fill="#c6b198"/><path d="m1415 458.846s14 6 28 6 28-6 28-6" fill="none"/><path d="m1473 473.846s18-1 19 14-19 17-19 17" fill="none"/><path d="m1554 420.846c3.302-9.905 16-9 25-7s18-3 23 3 4 20 1 29-11 15-23 15-20-4-23-11-6-20-3-29z" fill="#c0272d"/><path d="m1574 418.846s3 3 6 3 6-1 6-1" fill="#c0272d"/><path d="m1582 402.846s-3 3-3 9 1 10 1 10" fill="#c0272d"/><path d="m792 507.846 120 8 67-106-115-6z" fill="#fff"/><path d="m494 442.846h196v31h-196z" fill="#c0272d"/><path d="m691.571 473.753 93-65.609c.269-.187.429-.494.429-.821v-27.547c0-.811-.915-1.285-1.577-.817l-93 65.587c-.265.187-.423.492-.423.817v27.568c0 .809.908 1.283 1.571.822z" fill="#f2eae2"/><path d="m693 440.846 83-57v-34l-83 58z" fill="#e5d9cc"/><path d="m486 406.846v36h206c.552 0 1-.448 1-1v-35z" fill="#0071bb"/><path d="m693 406.846 86-57 .059-31.216c-.026-.781-.897-.232-1.55.198l-84.509 57.018z" fill="#f2e0ce"/><path d="m513 375.846h180" fill="#192e99"/><path d="m987.473 497.575-51.26-62.277-15.594-9.038c-.728-.422-1.621.19-1.489 1.022l4.551 16.26 51.137 64.273z" fill="#fbed21"/><path d="m987.473 497.575 7.751 9.76c.341.43.272 1.054-.154 1.399l-11.1 8.982c-.432.35-1.066.28-1.412-.156l-7.739-9.745z" fill="#ff7bab"/><path d="m935.624 437.361-9.769 6.426c-.592.389-1.39.057-1.53-.638l-5.14-16.041c-.161-.797.646-1.442 1.388-1.111l14.909 9.614c.721.325.802 1.316.142 1.75z" fill="#c6b198"/><path d="m981.989 493.842-10.611 8.131c-.444.34-.523.979-.174 1.416l3.016 3.673c.334.42.941.501 1.374.184l10.935-8.025c.474-.348.547-1.028.158-1.468l-3.34-3.779c-.349-.394-.942-.452-1.358-.132z" fill="#cbcbcb"/><path d="m1272 483.846 54-73-70.959-13.582z" fill="#cbcbcb"/><path d="m1251 212.086s20.507 11.623 45.254 11.191c24.746-.432 46.353-9.236 46.353-9.236s64.393 7.805 84.393 31.805 27 47 23 96-12 82-28 85-107-17-107-17v-12h-135.311s-9.689-108 13.311-147c16.771-28.438 58-38.76 58-38.76z" fill="#9e5bd8"/><path d="m1290 11.846c57.323-9.701 117 52 109 118s-60 98-109 93-101-44-97-106 32-94 97-105z" fill="#fff"/><g fill="none"><circle cx="1244.5" cy="148.346" r="1.5"/><circle cx="1279.5" cy="148.346" r="1.5"/><path d="m1270 193.846s6-2 14-2 14 1 14 1"/><path d="m1374 361.846s.883-12.049 0-20c-1-9-2-18-2-18"/><path d="m1306 360.846s42.411-2.859 61-1c20 2 39 8 39 8"/></g><g fill="#fff"><path d="m1296 359.846c12.015-.801 28 4 31 22s-6 37-28 34-27-24-25-34 7-21 22-22z"/><path d="m1158 30.846 20 12"/><path d="m1168 10.846 19 16"/><path d="m1187 3.846 9 12"/><path d="m1389 15.846 7-15"/><path d="m1398 21.846 9-6"/><path d="m1403 26.846h18"/></g><path d="m1063 485.846c8.321 5.547 18 5 18 5h172s12 1 18-5c7.517-7.517 7-15 7-15v-127s1-15-7-21-19-6-19-6h-179s-9-1-15 6-5 16-5 16v126s1 15 10 21z" fill="#cbcbcb"/></g></svg>