<?xml version="1.0" encoding="utf-8"?>
<!-- Generator: Adobe Illustrator 22.1.0, SVG Export Plug-In . SVG Version: 6.00 Build 0)  -->
<svg version="1.1" xmlns="http://www.w3.org/2000/svg" xmlns:xlink="http://www.w3.org/1999/xlink" x="0px" y="0px"
	 viewBox="0 0 800 800" style="enable-background:new 0 0 800 800;" xml:space="preserve">
<style type="text/css">
	.st0{display:none;}
	.st1{display:inline;}
	.st2{fill:none;stroke:#000000;stroke-width:4;stroke-miterlimit:10;}
	.st3{fill:#29ABE2;stroke:#000000;stroke-width:4;stroke-miterlimit:10;}
	.st4{fill:#F7F9DE;stroke:#000000;stroke-width:4;stroke-miterlimit:10;}
	.st5{stroke:#000000;stroke-width:4;stroke-miterlimit:10;}
	.st6{fill:#FFFFFF;stroke:#000000;stroke-width:4;stroke-miterlimit:10;}
	.st7{fill:#FCEE21;stroke:#000000;stroke-width:4;stroke-miterlimit:10;}
	.st8{fill:#FF7BAC;stroke:#000000;stroke-width:4;stroke-miterlimit:10;}
</style>
<g id="Layer_2" class="st0">
	<g class="st1">
		<g>
			<path d="M96,624c13.345,0,26.691,0,40.036,0c34.456,0,68.913,0,103.369,0c46.59,0,93.18,0,139.77,0c50.19,0,100.379,0,150.569,0
				c45.319,0,90.637,0,135.956,0c4.767,0,9.534,0,14.3,0c1.93,0,1.934-3,0-3c-43.883,0-87.766,0-131.649,0
				c-50.248,0-100.496,0-150.744,0c-47.498,0-94.995,0-142.493,0c-36.315,0-72.629,0-108.944,0c-11.336,0-22.672,0-34.008,0
				c-4.913,0-10.637-0.82-15.501,0c-0.208,0.035-0.448,0-0.661,0C94.07,621,94.066,624,96,624L96,624z"/>
		</g>
	</g>
	<g class="st1">
		<g>
			<path d="M362,621.04c38,0,76,0,114,0c3.913,0,3.919-6.081,0-6.081c-38,0-76,0-114,0C358.087,614.96,358.081,621.04,362,621.04
				L362,621.04z"/>
		</g>
	</g>
	<g class="st1">
		<g>
			<path d="M323.94,479.973c-36.488,19.4-68.33,45.969-99.22,73.14c-11.074,9.742-30.014,25.297-13.772,39.553
				c14.158,12.426,32.937,18.7,50.839,23.401c18.964,4.979,40.578,10.995,59.469,2.729c1.765-0.772,0.239-3.358-1.514-2.59
				c-16.553,7.243-35.498,2.396-52.208-1.768c-16.753-4.175-33.708-9.259-48.118-19.076c-3.672-2.502-8.046-5.407-10.411-9.296
				c-3.622-5.953-0.268-12.826,3.718-17.616c5.408-6.499,12.514-11.825,18.857-17.371c13.913-12.165,28.013-24.141,42.73-35.329
				c16.205-12.318,33.161-23.624,51.145-33.186C327.16,481.656,325.646,479.066,323.94,479.973L323.94,479.973z"/>
		</g>
	</g>
	<g class="st1">
		<g>
			<path d="M275.672,566.102c21.676-2.589,45.188-0.414,61.254,15.965c1.354,1.38,3.475-0.741,2.121-2.121
				c-16.609-16.932-40.9-19.529-63.375-16.844C273.779,563.329,273.756,566.331,275.672,566.102L275.672,566.102z"/>
		</g>
	</g>
	<g class="st1">
		<g>
			<path d="M311.377,539.555c-1.969,8.179-3.673,16.491-3.377,24.945c0.067,1.925,3.068,1.934,3,0
				c-0.286-8.198,1.361-16.217,3.27-24.148C314.722,538.476,311.83,537.676,311.377,539.555L311.377,539.555z"/>
		</g>
	</g>
	<g class="st1">
		<g>
			<path d="M323.459,617.049c-0.829-15.018,9.417-31.058,23.909-35.725c9.995-3.218,36.453-7.622,40.323,6.594
				c1.457,5.353-2.171,8.605-7.417,8.01c-2.303-0.261-4.186-0.434-6.457,0.292c-4.896,1.565-8.447,5.834-12.228,9.059
				c-5.592,4.77-12.116,8.477-19.078,10.833c-2.829,0.957-5.74,1.722-8.685,2.22c-4.585,0.774-6.627-0.298-10.569-2.127
				c-1.74-0.807-3.266,1.778-1.514,2.59c5.088,2.361,8.027,3.368,13.684,2.288c6.795-1.297,13.386-3.812,19.352-7.307
				c5.794-3.394,10.189-8.141,15.498-12.131c3.752-2.819,6.426-2.876,11.003-2.5c2.196,0.18,4.076-0.006,5.917-1.303
				c9.581-6.751,0.439-18.047-7.392-20.77c-6.455-2.245-13.474-1.85-20.154-1.1c-6.106,0.686-12.325,1.648-17.902,4.359
				c-13.134,6.384-22.087,22.291-21.29,36.718C320.565,618.969,323.566,618.981,323.459,617.049L323.459,617.049z"/>
		</g>
	</g>
	<g class="st1">
		<g>
			<path d="M367.884,614.49c-0.284-1.678-1.751-5.482-1.389-6.856c0.206-0.782,1.84-0.726,3.27-0.914
				c1.506-0.197,3.013-0.383,4.522-0.552c5.682-0.633,11.386-1.067,17.099-1.301c5.397-0.221,10.8-0.266,16.2-0.13
				c6.099,0.154,17.477-0.22,18.007,8.247c0.123,1.965,3.198,1.979,3.074,0c-0.733-11.712-15.398-11.26-23.94-11.375
				c-6.989-0.094-13.981,0.111-20.953,0.614c-5.956,0.43-13.319,0.22-18.989,2.233c-0.474,0.168-0.982,0.533-1.074,1.074
				c-0.532,3.149,0.679,6.66,1.207,9.777C365.25,617.253,368.213,616.428,367.884,614.49L367.884,614.49z"/>
		</g>
	</g>
	<g class="st1">
		<g>
			<path d="M428.952,614.24c-1.475-9.014,17.163-8.977,22.196-8.829c6.473,0.19,12.902,1.066,19.352,1.589
				c1.924,0.156,1.914-2.845,0-3c-9.879-0.801-19.891-2.523-29.79-1.076c-6.591,0.963-16.021,3.739-14.651,12.113
				C426.37,616.938,429.262,616.132,428.952,614.24L428.952,614.24z"/>
		</g>
	</g>
	<g class="st1">
		<g>
			<path d="M517.054,570.505c-12.765,3.692-22.678,13.359-26.731,26.006c-0.591,1.843,2.305,2.632,2.893,0.798
				c3.73-11.639,12.903-20.518,24.636-23.911C519.702,572.862,518.915,569.966,517.054,570.505L517.054,570.505z"/>
		</g>
	</g>
	<g class="st1">
		<g>
			<path d="M490.27,596.255c-8.651-0.886-27.152,6.194-19.035,17.578c3.711,5.205,11.219,5.788,16.969,6.606
				c8.227,1.17,16.529,1.762,24.84,1.728c4.976-0.02,12.102,0.671,15.957-3.273c2.884-2.952,2.927-7.182-0.183-9.892
				c-10.408-9.071-27.107-12.613-40.477-12.863c-1.931-0.036-1.931,2.964,0,3c9.432,0.176,18.725,2.064,27.37,5.879
				c3.2,1.413,15.455,6.074,11.169,11.754c-2.525,3.346-10.278,2.38-13.836,2.395c-10.133,0.042-20.577-0.591-30.507-2.67
				c-5.682-1.189-14.746-6.182-7.54-12.781c4.161-3.81,9.814-5.021,15.274-4.462C492.189,599.451,492.175,596.45,490.27,596.255
				L490.27,596.255z"/>
		</g>
	</g>
	<g class="st1">
		<g>
			<path d="M465.525,480.105c13.983,11.676,27.966,23.352,41.949,35.028c12.092,10.097,24.307,20.128,35.29,31.452
				c10.843,11.18,23.742,25.491,26.882,41.268c2.065,10.375-10.265,13.118-17.381,16.931c-7.249,3.884-14.391,7.708-22.765,8.216
				c-1.918,0.116-1.932,3.117,0,3c7.799-0.473,14.658-3.507,21.476-7.119c3.757-1.99,7.479-4,11.333-5.798
				c3.005-1.402,6.193-2.818,8.338-5.463c4.547-5.605,1.471-13.424-1.066-19.223c-3.557-8.128-8.789-15.468-14.353-22.333
				c-11.664-14.391-25.819-26.481-39.975-38.326c-15.855-13.267-31.738-26.502-47.607-39.753
				C466.174,476.755,464.04,478.866,465.525,480.105L465.525,480.105z"/>
		</g>
	</g>
	<g class="st1">
		<g>
			<path d="M482.467,550.279c4.455,14.923,6.864,30.674,7.533,46.221c0.083,1.923,3.083,1.934,3,0
				c-0.679-15.793-3.115-31.862-7.64-47.018C484.809,547.636,481.913,548.422,482.467,550.279L482.467,550.279z"/>
		</g>
	</g>
	<g class="st1">
		<g>
			<path d="M293.946,412.101c-2.626-17.866,0.888-38.104,8.31-54.485c8.348-18.423,26.076-31.122,44.099-39.142
				c33.694-14.994,76.656-16.378,108.158,4.779c18.29,12.284,29.317,31.683,35.697,52.375c6.41,20.79,8.42,43.88,1.068,64.707
				c-7.504,21.257-25.56,37.289-43.974,49.306c-19.744,12.885-41.968,19.181-65.428,14.54c-12.36-2.445-24.147-7.246-35.221-13.182
				c-5.651-3.029-11.137-6.365-16.477-9.914c-5.545-3.686-9.462-8.036-13.472-13.302c-7.066-9.281-13.345-17.597-16.999-28.872
				c-2.931-9.043-4.437-18.423-5.761-27.81c-0.269-1.904-3.16-1.094-2.893,0.798c2.76,19.566,7.135,37.794,19.908,53.365
				c3.625,4.42,6.751,9.346,10.925,13.295c4.126,3.904,9.303,6.863,14.131,9.801c10.043,6.111,20.642,11.431,31.808,15.167
				c22.452,7.511,45.6,6.873,67.067-3.397c19.919-9.53,39.983-25.115,51.933-43.88c12.297-19.31,14.141-43.016,10.239-65.124
				c-3.917-22.197-13.125-45.167-29.487-61.123c-28.385-27.681-73.444-31.05-109.66-19.197c-21.408,7.007-44.251,19.98-55.673,40.18
				c-10.077,17.824-14.161,41.706-11.192,61.913C291.333,414.802,294.224,413.993,293.946,412.101L293.946,412.101z"/>
		</g>
	</g>
	<path class="st1" d="M443.848,437.41c0.243,2.226-0.95,3.71-2.955,3.645c-0.9-0.029-2.23-1.735-2.504-2.885
		c-0.499-2.103,1.21-4.855,2.571-4.673C443.137,433.787,443.809,435.421,443.848,437.41z"/>
	<path class="st1" d="M397.696,431.91c0.381-3.073,2.56-5.276,4.743-5.186c0.566,0.023,1.467,1.175,1.546,1.882
		c0.175,1.571-3.337,5.192-4.865,4.94C398.419,433.431,397.907,432.171,397.696,431.91z"/>
	<g class="st1">
		<g>
			<path d="M370.98,469.487c17.448,11.92,39.478,15.342,59.731,9.336c1.847-0.548,1.06-3.444-0.798-2.893
				c-19.542,5.795-40.594,2.461-57.419-9.033C370.896,465.805,369.394,468.404,370.98,469.487L370.98,469.487z"/>
		</g>
	</g>
	<g class="st1">
		<g>
			<path d="M361.946,576.101c-4.293-10.496-9.707-20.505-14-31c-0.23,0.565-0.46,1.129-0.689,1.694
				c1.941-0.884,4.496-2.602,6.569-2.908c1.633-0.241,1.824-0.9,3.195,1.16c0.207,0.31,0.495,1.23,0.612,1.512
				c1.351,3.248,2.963,6.405,4.495,9.571c3.396,7.018,6.983,13.967,10.077,21.127c0.764,1.767,3.349,0.241,2.59-1.514
				c-3.901-9.029-8.536-17.732-12.713-26.634c-1.205-2.569-2.042-7.31-4.806-8.698c-3.114-1.564-8.714,2.51-11.534,3.793
				c-0.54,0.246-0.919,1.132-0.689,1.694c4.293,10.496,9.707,20.505,14,31C359.775,578.662,362.678,577.89,361.946,576.101
				L361.946,576.101z"/>
		</g>
	</g>
	<g class="st1">
		<g>
			<path d="M371.903,599.991c1.701,2.047,3.664,3.811,5.842,5.338c0.891,0.625,2.361-0.198,2.257-1.295
				c-0.175-1.858-0.1-3.675-0.002-5.535c0.102-1.929-2.898-1.924-3,0c-0.099,1.86-0.174,3.676,0.002,5.535
				c0.752-0.432,1.505-0.863,2.257-1.295c-1.965-1.379-3.702-3.024-5.235-4.869C372.789,596.384,370.677,598.516,371.903,599.991
				L371.903,599.991z"/>
		</g>
	</g>
	<g class="st1">
		<g>
			<path d="M351.634,553.823c2.369-0.895,4.737-1.79,7.106-2.685c1.789-0.676,1.014-3.577-0.798-2.893
				c-2.369,0.895-4.737,1.79-7.106,2.685C349.047,551.606,349.823,554.507,351.634,553.823L351.634,553.823z"/>
		</g>
	</g>
	<g class="st1">
		<g>
			<path d="M353.634,557.823c2.369-0.895,4.737-1.79,7.106-2.685c1.789-0.676,1.014-3.577-0.798-2.893
				c-2.369,0.895-4.737,1.79-7.106,2.685C351.047,555.606,351.823,558.507,353.634,557.823L353.634,557.823z"/>
		</g>
	</g>
	<g class="st1">
		<g>
			<path d="M355.322,556.219c3.581,6.875,6.647,13.997,9.883,21.038c0.805,1.752,3.392,0.23,2.59-1.514
				c-3.236-7.041-6.302-14.162-9.883-21.038C357.02,552.992,354.43,554.507,355.322,556.219L355.322,556.219z"/>
		</g>
	</g>
	<g class="st1">
		<g>
			<path d="M478.199,622.564c3.826,0,3.832-5.946,0-5.946C474.373,616.618,474.367,622.564,478.199,622.564L478.199,622.564z"/>
		</g>
	</g>
	<g class="st1">
		<g>
			<path d="M481.749,623.181c3.826,0,3.832-5.946,0-5.946C477.923,617.235,477.917,623.181,481.749,623.181L481.749,623.181z"/>
		</g>
	</g>
	<g class="st1">
		<g>
			<path d="M484,622c2.667,0,5.333,0,8,0c1.93,0,1.934-3,0-3c-2.667,0-5.333,0-8,0C482.07,619,482.066,622,484,622L484,622z"/>
		</g>
	</g>
</g>
<g id="body">
	<path class="st2" d="M403.5,305.5c-63.875-4.121-102,35-107,65s-13,93,55,125s137-17,146-76S465.5,309.5,403.5,305.5z"/>
	<circle class="st2" cx="401.5" cy="430.5" r="1.5"/>
	<circle class="st2" cx="441.5" cy="437.5" r="1.5"/>
	<path class="st2" d="M372,468c0,0,16,10,28,12s30-3,30-3"/>
	<path class="st3" d="M325.698,480.045c0,0,34.302,28.826,74.802,25.391s62.534-25.391,62.534-25.391S527,528,544,548s40,43,18,54
		s-33,13-33,13s-6-9-21-13s-26-3-31-1s-8,5-8,9s1,13,1,13H306c0,0-46-3-70-16s-42-17-22-42S325.698,480.045,325.698,480.045z"/>
	<line class="st2" x1="46" y1="622" x2="724" y2="622"/>
</g>
<g id="book">
	<path class="st4" d="M470,605.453V615H366.17l-1-9.898c0,0,41-4,49-2s13,5,13,10c0-5,9-9,20-9S470,605.453,470,605.453z"/>
	<rect x="360" y="615" class="st5" width="113" height="6"/>
</g>
<g id="hands_and_lines">
	<path class="st2" d="M491,596c0,0,5.631-10.398,11-15c7-6,17-10,17-10"/>
	<path class="st2" d="M483,548c0,0,3.646,10.877,6,25c2,12,2,24,2,24"/>
	<path class="st2" d="M530,615c-1,5-13,7-31,5s-28-3-29-11"/>
	<path class="st2" d="M276,565c0,0,20-4,37,1s26,17,26,17"/>
	<path class="st2" d="M313,539c0,0-1.014,7.082-2,13c-1,6-1.561,13.09-1.561,13.09"/>
	<path class="st2" d="M322,617c0,0-2,1-7,3s-8,2-8,2"/>
	<path class="st6" d="M325.115,599.057c1.565-3.112,3.671-5.974,6.122-8.405c6.694-6.639,17.237-12.786,26.763-13.652
		c11-1,24-1,29,6s2,15-7,14s-19,12-26,16s-29.019,10.934-31,4C321.26,610.911,322.332,604.59,325.115,599.057z"/>
	<polygon class="st7" points="363,553 374.77,576.882 361,576 352,558 	"/>
	<path class="st3" d="M349.887,553"/>
	<line class="st3" x1="367" y1="576" x2="357" y2="555"/>
	<polyline class="st2" points="372.963,598.931 377.502,602.197 379,596 	"/>
	<path class="st3" d="M352.245,557.266"/>
	<path class="st8" d="M361.963,551.377l-4.037-7.628c-0.531-1.003-1.719-1.46-2.785-1.073l-7.187,2.613
		c-1.041,0.378-1.519,1.579-1.024,2.57L351,556L361.963,551.377z"/>
</g>
</svg>
