<?xml version="1.0" encoding="utf-8"?>
<!-- Generator: Adobe Illustrator 22.1.0, SVG Export Plug-In . SVG Version: 6.00 Build 0)  -->
<svg version="1.1" id="Layer_1" xmlns="http://www.w3.org/2000/svg" xmlns:xlink="http://www.w3.org/1999/xlink" x="0px" y="0px"
	 viewBox="0 0 1400 321.8" style="enable-background:new 0 0 1400 321.8;" xml:space="preserve">
<style type="text/css">
	.st0{fill:#FFFFFF;stroke:#000000;stroke-width:4;stroke-miterlimit:10;}
	.st1{fill:none;stroke:#000000;stroke-width:4;stroke-miterlimit:10;}
	.st2{fill:#29ABE2;stroke:#000000;stroke-width:4;stroke-miterlimit:10;}
	.st3{fill:#F7F9DE;stroke:#000000;stroke-width:4;stroke-miterlimit:10;}
	.st4{stroke:#000000;stroke-width:4;stroke-miterlimit:10;}
	.st5{fill:#FCEE21;stroke:#000000;stroke-width:4;stroke-miterlimit:10;}
	.st6{fill:#FF7BAC;stroke:#000000;stroke-width:4;stroke-miterlimit:10;}
</style>
<g>
	<path class="st0" d="M718.5,2.3c-63.875-4.121-102,35-107,65s-13,93,55,125s137-17,146-76S780.5,6.3,718.5,2.3z"/>
	<circle class="st1" cx="716.5" cy="127.3" r="1.5"/>
	<circle class="st1" cx="756.5" cy="134.3" r="1.5"/>
	<path class="st1" d="M687,164.8c0,0,16,10,28,12s30-3,30-3"/>
	<path class="st2" d="M640.698,176.845c0,0,34.302,28.826,74.802,25.391s62.534-25.391,62.534-25.391S842,224.8,859,244.8
		s40,43,18,54s-33,13-33,13s-6-9-21-13s-26-3-31-1s-8,5-8,9s1,13,1,13H621c0,0-46-3-70-16s-42-17-22-42
		S640.698,176.845,640.698,176.845L640.698,176.845z"/>
	<path class="st1" d="M0,319.8h1400"/>
	<path class="st3" d="M785,302.253v9.547H681.17l-1-9.898c0,0,41-4,49-2s13,5,13,10c0-5,9-9,20-9S785,302.253,785,302.253z"/>
	<path class="st4" d="M675,311.8h113v6H675V311.8z"/>
	<g>
		<path class="st1" d="M806,292.8c0,0,5.631-10.398,11-15c7-6,17-10,17-10"/>
		<path class="st1" d="M798,244.8c0,0,3.646,10.877,6,25c2,12,2,24,2,24"/>
		<path class="st1" d="M845,311.8c-1,5-13,7-31,5s-28-3-29-11"/>
		<path class="st1" d="M591,261.8c0,0,20-4,37,1s26,17,26,17"/>
		<path class="st1" d="M628,235.8c0,0-1.014,7.082-2,13c-1,6-1.561,13.09-1.561,13.09"/>
		<path class="st1" d="M637,313.8c0,0-2,1-7,3s-8,2-8,2"/>
	</g>
	<path class="st0" d="M640.115,295.858c1.565-3.112,3.671-5.974,6.122-8.405c6.694-6.639,17.237-12.786,26.763-13.652
		c11-1,24-1,29,6s2,15-7,14s-19,12-26,16s-29.019,10.934-31,4C636.26,307.711,637.332,301.39,640.115,295.858z"/>
	<path class="st5" d="M678,249.8l11.77,23.882L676,272.8l-9-18L678,249.8z"/>
	<path class="st2" d="M682,272.8l-10-21"/>
	<path class="st1" d="M687.963,295.731l4.539,3.266L694,292.8"/>
	<path class="st6" d="M676.963,248.177l-4.037-7.628c-0.531-1.002-1.719-1.46-2.785-1.073l-7.187,2.613
		c-1.041,0.378-1.519,1.579-1.024,2.57l4.07,8.14L676.963,248.177z"/>
</g>
</svg>
