<svg enable-background="new 0 0 1400 321.8" viewBox="0 0 1400 321.8" xmlns="http://www.w3.org/2000/svg"><g stroke="#000" stroke-miterlimit="10" stroke-width="4"><path d="m718.5 2.3c-63.875-4.121-102 35-107 65s-13 93 55 125 137-17 146-76-32-110-94-114z" fill="#fff"/><circle cx="716.5" cy="127.3" fill="none" r="1.5"/><circle cx="756.5" cy="134.3" fill="none" r="1.5"/><path d="m687 164.8s16 10 28 12 30-3 30-3" fill="none"/><path d="m640.698 176.845s34.302 28.826 74.802 25.391 62.534-25.391 62.534-25.391 63.966 47.955 80.966 67.955 40 43 18 54-33 13-33 13-6-9-21-13-26-3-31-1-8 5-8 9 1 13 1 13h-164s-46-3-70-16-42-17-22-42 111.698-84.955 111.698-84.955z" fill="#29abe2"/><path d="m0 319.8h1400" fill="none"/><path d="m785 302.253v9.547h-103.83l-1-9.898s41-4 49-2 13 5 13 10c0-5 9-9 20-9s22.83 1.351 22.83 1.351z" fill="#f7f9de"/><path d="m675 311.8h113v6h-113z"/><g fill="none"><path d="m806 292.8s5.631-10.398 11-15c7-6 17-10 17-10"/><path d="m798 244.8s3.646 10.877 6 25c2 12 2 24 2 24"/><path d="m845 311.8c-1 5-13 7-31 5s-28-3-29-11"/><path d="m591 261.8s20-4 37 1 26 17 26 17"/><path d="m628 235.8s-1.014 7.082-2 13c-1 6-1.561 13.09-1.561 13.09"/><path d="m637 313.8s-2 1-7 3-8 2-8 2"/></g><path d="m640.115 295.858c1.565-3.112 3.671-5.974 6.122-8.405 6.694-6.639 17.237-12.786 26.763-13.652 11-1 24-1 29 6s2 15-7 14-19 12-26 16-29.019 10.934-31 4c-1.74-6.09-.668-12.411 2.115-17.943z" fill="#fff"/><path d="m678 249.8 11.77 23.882-13.77-.882-9-18z" fill="#fcee21"/><path d="m682 272.8-10-21" fill="#29abe2"/><path d="m687.963 295.731 4.539 3.266 1.498-6.197" fill="none"/><path d="m676.963 248.177-4.037-7.628c-.531-1.002-1.719-1.46-2.785-1.073l-7.187 2.613c-1.041.378-1.519 1.579-1.024 2.57l4.07 8.14z" fill="#ff7bac"/></g></svg>