<?xml version="1.0" encoding="utf-8"?>
<!-- Generator: Adobe Illustrator 22.1.0, SVG Export Plug-In . SVG Version: 6.00 Build 0)  -->
<svg version="1.1" xmlns="http://www.w3.org/2000/svg" xmlns:xlink="http://www.w3.org/1999/xlink" x="0px" y="0px"
	 viewBox="0 0 678 321.8" style="enable-background:new 0 0 678 321.8;" xml:space="preserve">
<style type="text/css">
	.st0{display:none;}
	.st1{display:inline;}
	.st2{fill:none;stroke:#000000;stroke-width:4;stroke-miterlimit:10;}
	.st3{fill:#29ABE2;stroke:#000000;stroke-width:4;stroke-miterlimit:10;}
	.st4{fill:#F7F9DE;stroke:#000000;stroke-width:4;stroke-miterlimit:10;}
	.st5{stroke:#000000;stroke-width:4;stroke-miterlimit:10;}
	.st6{fill:#FFFFFF;stroke:#000000;stroke-width:4;stroke-miterlimit:10;}
	.st7{fill:#FCEE21;stroke:#000000;stroke-width:4;stroke-miterlimit:10;}
	.st8{fill:#FF7BAC;stroke:#000000;stroke-width:4;stroke-miterlimit:10;}
</style>
<g id="Layer_2" class="st0">
	<g class="st1">
		<g>
			<path d="M50,320.8c13.345,0,26.691,0,40.036,0c34.457,0,68.913,0,103.369,0c46.59,0,93.18,0,139.77,0
				c50.19,0,100.379,0,150.569,0c45.319,0,90.637,0,135.956,0c4.767,0,9.534,0,14.3,0c1.93,0,1.934-3,0-3
				c-43.883,0-87.766,0-131.649,0c-50.248,0-100.496,0-150.744,0c-47.498,0-94.995,0-142.493,0c-36.315,0-72.629,0-108.944,0
				c-11.336,0-22.672,0-34.008,0c-4.913,0-10.637-0.82-15.501,0c-0.208,0.035-0.448,0-0.661,0C48.07,317.8,48.066,320.8,50,320.8
				L50,320.8z"/>
		</g>
	</g>
	<g class="st1">
		<g>
			<path d="M316,317.841c38,0,76,0,114,0c3.913,0,3.919-6.081,0-6.081c-38,0-76,0-114,0C312.087,311.76,312.081,317.841,316,317.841
				L316,317.841z"/>
		</g>
	</g>
	<g class="st1">
		<g>
			<path d="M277.94,176.773c-36.488,19.4-68.33,45.969-99.22,73.14c-11.074,9.742-30.014,25.297-13.772,39.553
				c14.158,12.426,32.937,18.7,50.839,23.401c18.964,4.979,40.578,10.995,59.469,2.729c1.765-0.772,0.239-3.358-1.514-2.59
				c-16.553,7.243-35.498,2.396-52.208-1.768c-16.753-4.175-33.708-9.259-48.118-19.076c-3.672-2.502-8.046-5.407-10.411-9.296
				c-3.622-5.953-0.268-12.826,3.718-17.616c5.408-6.499,12.514-11.825,18.857-17.371c13.913-12.165,28.013-24.141,42.73-35.329
				c16.205-12.318,33.161-23.624,51.145-33.186C281.16,178.457,279.646,175.866,277.94,176.773L277.94,176.773z"/>
		</g>
	</g>
	<g class="st1">
		<g>
			<path d="M229.672,262.903c21.676-2.589,45.188-0.414,61.254,15.965c1.354,1.381,3.475-0.741,2.121-2.121
				c-16.609-16.932-40.9-19.529-63.375-16.844C227.779,260.129,227.756,263.132,229.672,262.903L229.672,262.903z"/>
		</g>
	</g>
	<g class="st1">
		<g>
			<path d="M265.377,236.355c-1.969,8.179-3.673,16.491-3.377,24.945c0.067,1.925,3.068,1.934,3,0
				c-0.286-8.198,1.361-16.217,3.27-24.148C268.722,235.277,265.83,234.476,265.377,236.355L265.377,236.355z"/>
		</g>
	</g>
	<g class="st1">
		<g>
			<path d="M277.459,313.849c-0.829-15.018,9.417-31.058,23.909-35.725c9.995-3.218,36.453-7.622,40.323,6.594
				c1.457,5.353-2.171,8.605-7.417,8.01c-2.303-0.261-4.186-0.434-6.457,0.292c-4.896,1.565-8.447,5.834-12.228,9.059
				c-5.592,4.77-12.116,8.477-19.078,10.833c-2.829,0.957-5.74,1.722-8.685,2.22c-4.585,0.774-6.627-0.298-10.569-2.127
				c-1.74-0.807-3.266,1.778-1.514,2.59c5.088,2.361,8.027,3.368,13.684,2.288c6.795-1.297,13.386-3.812,19.352-7.307
				c5.794-3.394,10.189-8.141,15.498-12.131c3.752-2.819,6.426-2.876,11.003-2.5c2.196,0.18,4.076-0.006,5.917-1.303
				c9.581-6.751,0.439-18.047-7.392-20.77c-6.455-2.245-13.474-1.85-20.154-1.1c-6.106,0.686-12.325,1.648-17.902,4.359
				c-13.134,6.384-22.087,22.291-21.29,36.718C274.565,315.769,277.566,315.781,277.459,313.849L277.459,313.849z"/>
		</g>
	</g>
	<g class="st1">
		<g>
			<path d="M321.884,311.29c-0.284-1.678-1.751-5.482-1.389-6.856c0.206-0.782,1.84-0.726,3.27-0.914
				c1.506-0.197,3.013-0.383,4.522-0.552c5.682-0.633,11.386-1.067,17.099-1.301c5.397-0.221,10.8-0.266,16.2-0.13
				c6.099,0.154,17.477-0.22,18.007,8.247c0.123,1.965,3.198,1.979,3.074,0c-0.733-11.712-15.398-11.26-23.94-11.375
				c-6.989-0.094-13.981,0.111-20.953,0.614c-5.956,0.43-13.319,0.22-18.989,2.233c-0.474,0.168-0.982,0.533-1.074,1.074
				c-0.532,3.149,0.679,6.66,1.207,9.777C319.25,314.054,322.213,313.229,321.884,311.29L321.884,311.29z"/>
		</g>
	</g>
	<g class="st1">
		<g>
			<path d="M382.952,311.04c-1.475-9.014,17.163-8.977,22.196-8.829c6.473,0.19,12.902,1.066,19.352,1.589
				c1.924,0.156,1.914-2.845,0-3c-9.879-0.801-19.891-2.523-29.79-1.076c-6.591,0.963-16.021,3.739-14.651,12.113
				C380.37,313.738,383.262,312.932,382.952,311.04L382.952,311.04z"/>
		</g>
	</g>
	<g class="st1">
		<g>
			<path d="M471.054,267.305c-12.765,3.691-22.678,13.359-26.731,26.006c-0.591,1.843,2.305,2.632,2.893,0.798
				c3.73-11.639,12.903-20.518,24.636-23.911C473.702,269.663,472.915,266.767,471.054,267.305L471.054,267.305z"/>
		</g>
	</g>
	<g class="st1">
		<g>
			<path d="M444.27,293.055c-8.651-0.886-27.152,6.194-19.035,17.578c3.711,5.205,11.219,5.788,16.969,6.606
				c8.227,1.17,16.529,1.762,24.84,1.728c4.976-0.02,12.102,0.671,15.957-3.273c2.884-2.952,2.927-7.182-0.183-9.892
				c-10.408-9.071-27.107-12.613-40.477-12.863c-1.931-0.036-1.931,2.964,0,3c9.432,0.176,18.725,2.064,27.37,5.879
				c3.2,1.413,15.455,6.074,11.169,11.754c-2.525,3.346-10.278,2.38-13.836,2.395c-10.133,0.042-20.576-0.591-30.507-2.67
				c-5.682-1.189-14.746-6.183-7.54-12.781c4.161-3.81,9.814-5.021,15.274-4.462C446.189,296.252,446.175,293.25,444.27,293.055
				L444.27,293.055z"/>
		</g>
	</g>
	<g class="st1">
		<g>
			<path d="M419.525,176.906c13.983,11.676,27.966,23.352,41.949,35.028c12.092,10.097,24.307,20.128,35.29,31.452
				c10.843,11.18,23.742,25.491,26.882,41.268c2.065,10.375-10.265,13.118-17.381,16.931c-7.249,3.884-14.391,7.708-22.765,8.216
				c-1.918,0.116-1.932,3.117,0,3c7.799-0.473,14.658-3.507,21.476-7.119c3.757-1.99,7.479-4,11.333-5.798
				c3.005-1.402,6.193-2.818,8.338-5.463c4.547-5.605,1.471-13.424-1.066-19.223c-3.557-8.128-8.789-15.468-14.353-22.333
				c-11.664-14.391-25.819-26.481-39.975-38.326c-15.855-13.267-31.738-26.502-47.607-39.753
				C420.174,173.555,418.04,175.667,419.525,176.906L419.525,176.906z"/>
		</g>
	</g>
	<g class="st1">
		<g>
			<path d="M436.467,247.08c4.455,14.923,6.864,30.675,7.533,46.221c0.083,1.923,3.083,1.934,3,0
				c-0.679-15.793-3.115-31.862-7.64-47.018C438.809,244.437,435.913,245.223,436.467,247.08L436.467,247.08z"/>
		</g>
	</g>
	<g class="st1">
		<g>
			<path d="M247.946,108.902c-2.626-17.866,0.888-38.104,8.31-54.485c8.348-18.423,26.076-31.122,44.099-39.142
				C334.05,0.28,377.012-1.104,408.513,20.053c18.29,12.284,29.317,31.683,35.697,52.375c6.41,20.79,8.42,43.88,1.068,64.707
				c-7.504,21.257-25.56,37.289-43.974,49.306c-19.744,12.885-41.968,19.181-65.428,14.54c-12.36-2.445-24.147-7.246-35.221-13.182
				c-5.651-3.029-11.137-6.365-16.477-9.914c-5.545-3.686-9.462-8.036-13.472-13.302c-7.066-9.281-13.345-17.597-16.999-28.872
				c-2.931-9.043-4.437-18.423-5.761-27.81c-0.269-1.904-3.16-1.094-2.893,0.798c2.76,19.566,7.135,37.794,19.908,53.365
				c3.625,4.42,6.751,9.346,10.925,13.295c4.126,3.904,9.303,6.863,14.131,9.801c10.043,6.111,20.642,11.431,31.808,15.167
				c22.452,7.511,45.6,6.873,67.067-3.397c19.919-9.529,39.983-25.115,51.933-43.88c12.297-19.31,14.141-43.015,10.239-65.124
				c-3.917-22.197-13.125-45.167-29.487-61.123c-28.385-27.681-73.444-31.05-109.66-19.197c-21.408,7.007-44.251,19.98-55.673,40.18
				c-10.077,17.824-14.161,41.706-11.192,61.913C245.333,111.602,248.224,110.793,247.946,108.902L247.946,108.902z"/>
		</g>
	</g>
	<path class="st1" d="M397.848,134.21c0.243,2.226-0.95,3.71-2.955,3.645c-0.9-0.029-2.23-1.735-2.504-2.885
		c-0.499-2.103,1.21-4.855,2.571-4.673C397.137,130.588,397.809,132.222,397.848,134.21z"/>
	<path class="st1" d="M351.696,128.71c0.381-3.073,2.56-5.276,4.743-5.186c0.566,0.023,1.467,1.175,1.546,1.882
		c0.175,1.571-3.337,5.192-4.865,4.94C352.419,130.231,351.907,128.972,351.696,128.71z"/>
	<g class="st1">
		<g>
			<path d="M324.98,166.288c17.448,11.92,39.478,15.342,59.731,9.336c1.847-0.548,1.06-3.444-0.798-2.893
				c-19.542,5.795-40.594,2.461-57.419-9.033C324.896,162.606,323.394,165.204,324.98,166.288L324.98,166.288z"/>
		</g>
	</g>
	<g class="st1">
		<g>
			<path d="M315.946,272.902c-4.293-10.496-9.707-20.505-14-31c-0.23,0.565-0.46,1.129-0.689,1.694
				c1.941-0.884,4.496-2.602,6.569-2.908c1.633-0.241,1.824-0.9,3.195,1.16c0.207,0.31,0.495,1.23,0.612,1.512
				c1.351,3.248,2.963,6.405,4.495,9.571c3.396,7.018,6.983,13.967,10.077,21.127c0.764,1.767,3.349,0.241,2.59-1.514
				c-3.901-9.029-8.536-17.732-12.713-26.634c-1.205-2.569-2.042-7.31-4.806-8.698c-3.114-1.564-8.714,2.51-11.534,3.793
				c-0.54,0.246-0.919,1.132-0.689,1.694c4.293,10.496,9.707,20.505,14,31C313.775,275.462,316.678,274.691,315.946,272.902
				L315.946,272.902z"/>
		</g>
	</g>
	<g class="st1">
		<g>
			<path d="M325.903,296.792c1.701,2.047,3.664,3.811,5.842,5.338c0.891,0.625,2.361-0.198,2.257-1.295
				c-0.175-1.858-0.1-3.675-0.002-5.535c0.102-1.929-2.898-1.924-3,0c-0.099,1.86-0.174,3.676,0.002,5.535
				c0.752-0.432,1.505-0.863,2.257-1.295c-1.965-1.379-3.702-3.024-5.235-4.869C326.789,293.184,324.677,295.316,325.903,296.792
				L325.903,296.792z"/>
		</g>
	</g>
	<g class="st1">
		<g>
			<path d="M305.634,250.624c2.369-0.895,4.737-1.79,7.106-2.685c1.789-0.676,1.014-3.577-0.798-2.893
				c-2.369,0.895-4.737,1.79-7.106,2.685C303.047,248.407,303.823,251.308,305.634,250.624L305.634,250.624z"/>
		</g>
	</g>
	<g class="st1">
		<g>
			<path d="M307.634,254.624c2.369-0.895,4.737-1.79,7.106-2.685c1.789-0.676,1.014-3.577-0.798-2.893
				c-2.369,0.895-4.737,1.79-7.106,2.685C305.047,252.407,305.823,255.308,307.634,254.624L307.634,254.624z"/>
		</g>
	</g>
	<g class="st1">
		<g>
			<path d="M309.322,253.02c3.581,6.875,6.647,13.997,9.883,21.038c0.805,1.752,3.392,0.23,2.59-1.514
				c-3.236-7.041-6.302-14.162-9.883-21.038C311.02,249.793,308.43,251.308,309.322,253.02L309.322,253.02z"/>
		</g>
	</g>
	<g class="st1">
		<g>
			<path d="M432.199,319.364c3.826,0,3.832-5.946,0-5.946C428.373,313.418,428.367,319.364,432.199,319.364L432.199,319.364z"/>
		</g>
	</g>
	<g class="st1">
		<g>
			<path d="M435.749,319.981c3.826,0,3.832-5.946,0-5.946C431.923,314.036,431.917,319.981,435.749,319.981L435.749,319.981z"/>
		</g>
	</g>
	<g class="st1">
		<g>
			<path d="M438,318.8c2.667,0,5.333,0,8,0c1.93,0,1.934-3,0-3c-2.667,0-5.333,0-8,0C436.07,315.8,436.066,318.8,438,318.8
				L438,318.8z"/>
		</g>
	</g>
</g>
<g id="body">
	<path class="st2" d="M357.5,2.3c-63.875-4.121-102,35-107,65s-13,93,55,125s137-17,146-76S419.5,6.3,357.5,2.3z"/>
	<circle class="st2" cx="355.5" cy="127.3" r="1.5"/>
	<circle class="st2" cx="395.5" cy="134.3" r="1.5"/>
	<path class="st2" d="M326,164.8c0,0,16,10,28,12s30-3,30-3"/>
	<path class="st3" d="M279.698,176.845c0,0,34.302,28.826,74.802,25.391s62.534-25.391,62.534-25.391S481,224.8,498,244.8
		s40,43,18,54s-33,13-33,13s-6-9-21-13s-26-3-31-1s-8,5-8,9s1,13,1,13H260c0,0-46-3-70-16s-42-17-22-42
		S279.698,176.845,279.698,176.845z"/>
	<line class="st2" x1="0" y1="318.8" x2="678" y2="318.8"/>
</g>
<g id="book">
	<path class="st4" d="M424,302.253v9.547H320.17l-1-9.898c0,0,41-4,49-2s13,5,13,10c0-5,9-9,20-9S424,302.253,424,302.253z"/>
	<rect x="314" y="311.8" class="st5" width="113" height="6"/>
</g>
<g id="hands_and_lines">
	<path class="st2" d="M445,292.8c0,0,5.631-10.398,11-15c7-6,17-10,17-10"/>
	<path class="st2" d="M437,244.8c0,0,3.646,10.877,6,25c2,12,2,24,2,24"/>
	<path class="st2" d="M484,311.8c-1,5-13,7-31,5s-28-3-29-11"/>
	<path class="st2" d="M230,261.8c0,0,20-4,37,1s26,17,26,17"/>
	<path class="st2" d="M267,235.8c0,0-1.014,7.082-2,13c-1,6-1.561,13.09-1.561,13.09"/>
	<path class="st2" d="M276,313.8c0,0-2,1-7,3s-8,2-8,2"/>
	<path class="st6" d="M279.115,295.858c1.565-3.112,3.671-5.974,6.122-8.405c6.694-6.639,17.237-12.786,26.763-13.652
		c11-1,24-1,29,6s2,15-7,14s-19,12-26,16s-29.019,10.934-31,4C275.26,307.711,276.332,301.39,279.115,295.858z"/>
	<polygon class="st7" points="317,249.8 328.77,273.682 315,272.8 306,254.8 	"/>
	<path class="st3" d="M303.887,249.8"/>
	<line class="st3" x1="321" y1="272.8" x2="311" y2="251.8"/>
	<polyline class="st2" points="326.963,295.731 331.502,298.997 333,292.8 	"/>
	<path class="st3" d="M306.245,254.067"/>
	<path class="st8" d="M315.963,248.177l-4.037-7.628c-0.531-1.002-1.719-1.46-2.785-1.073l-7.187,2.613
		c-1.041,0.378-1.519,1.579-1.024,2.57l4.07,8.14L315.963,248.177z"/>
</g>
</svg>
