<svg enable-background="new 0 0 669 352.471" viewBox="0 0 669 352.471" xmlns="http://www.w3.org/2000/svg"><g stroke="#000" stroke-miterlimit="10" stroke-width="4"><path d="m259 2.471c65.616-6.37 115 53 115 107s-62 130-147 86-71-183 32-193z" fill="#fff"/><g fill="none"><circle cx="273.5" cy="131.971" r="1.5"/><circle cx="312.5" cy="130.971" r="1.5"/><path d="m248 174.471h47"/></g><path d="m203 56.471s-26 49 0 49 0-49 0-49z" fill="#29abe2"/><path d="m0 350.471h669" fill="none"/><path d="m209.044 183.654s22.956 23.136 62.456 24.977 67.464-24.977 67.464-24.977 30.036-6.183 46.036 37.817 14 77 14 92 0 37 0 37h-270s-4.969-98.61 11-127c18-32 69.044-39.817 69.044-39.817z" fill="#e67e22"/><path d="m171 274.471-3.667 76" fill="none"/><path d="m364 274.471v76" fill="none"/><path d="m192 340.471h161v10h-161z"/><path d="m197 340.471-1-18s27.98-1.685 41-1c19 1 30 7 33 11s3.5 8 3.5 8z" fill="#fcfcf0"/><path d="m349 340.471v-17s-21-3-40-2-22 4-27 8-7 11-7 11z" fill="#fcfcf0"/></g></svg>