<svg enable-background="new 0 0 413.5 367.2" viewBox="0 0 413.5 367.2" xmlns="http://www.w3.org/2000/svg"><g stroke="#000" stroke-miterlimit="10"><g stroke-width="5"><path d="m270.4 205.4c-61.5-1.4-75.2-30.3-88.1-49.5-12.8-19.3-13.8-71.6 0-104.6s59.6-53.2 92.7-48.6 70.6 12.8 89.9 56.9-7.3 102.8-17.4 115.6-37.7 31.1-77.1 30.2z" fill="#fff"/><circle cx="229.2" cy="108.4" fill="none" r="1.5"/><circle cx="269.2" cy="109.4" fill="none" r="1.5"/><path d="m237.7 166.9c8 4.6 16.6 8 26 8 8.6 0 15.2-3.1 22-8" fill="none"/><path d="m410.7 366.9c1.6-11.2.2-23.3 0-34.5-.4-23.7 1.6-46.5-9.2-68.4-8.9-18-23.6-31.6-39.8-43.1-24-17-58.9-19.3-58.9-19.3s-11.1 3.3-28.1 3.8-26.7 0-26.7 0-36.3 7.5-59.3 18.5-60 39-60 39-2-30-6-53-22-64-22-64-10 8-23 7-22-7-22-7-1 41 3 78 13 95 25 104 36 3 47 2 44-15 44-15 0 19 0 30c0 9 1 22 1 22" fill="#6ab04c"/></g><path d="m360.7 308.9c3 11 0 58 0 58" fill="#f7931e" stroke-width="4"/><path d="m55.7 145.9c-9.5-19.9-12.2-42.5-7.6-64.1 2.7-12.9 9.8-30.9 25.6-30.9 14 0 25 12 24 25s-2 32 3 31 8-12 13-9 6 12 1 22-14 26-14 26-9.65 6.885-23 7-22-7-22-7z" fill="#fff" stroke-width="5"/><path d="m35.5 34.3c-10.7 4.1-15.6 17.9-13.9 28.6" fill="none" stroke-width="5"/><path d="m24.2 17.9c-16.7 10.5-25.5 32.6-21.1 51.8" fill="none" stroke-width="5"/></g></svg>