<?xml version="1.0" encoding="utf-8"?>
<!-- Generator: Adobe Illustrator 22.1.0, SVG Export Plug-In . SVG Version: 6.00 Build 0)  -->
<svg version="1.1" id="Layer_2" xmlns="http://www.w3.org/2000/svg" xmlns:xlink="http://www.w3.org/1999/xlink" x="0px" y="0px"
	 viewBox="0 0 413.467 367.184" style="enable-background:new 0 0 413.467 367.184;" xml:space="preserve">
<style type="text/css">
	.st0{fill:none;stroke:#000000;stroke-width:4;stroke-miterlimit:10;}
	.st1{fill:#F7931E;stroke:#000000;stroke-width:4;stroke-miterlimit:10;}
	.st2{fill:#E84118;stroke:#000000;stroke-width:4;stroke-miterlimit:10;}
</style>
<path class="st0" d="M270.386,205.404c-61.453-1.429-75.231-30.276-88.075-49.542c-12.844-19.267-13.762-71.561,0-104.59
	c13.762-33.028,59.634-53.212,92.663-48.625s70.644,12.844,89.91,56.882s-7.34,102.755-17.432,115.599
	C337.36,187.972,309.836,206.321,270.386,205.404z"/>
<circle class="st0" cx="229.209" cy="108.401" r="1.5"/>
<circle class="st0" cx="269.209" cy="109.401" r="1.5"/>
<path class="st0" d="M237.709,166.901c7.997,4.598,16.568,7.967,25.951,7.996c8.601,0.026,15.219-3.15,22.049-7.996"/>
<path class="st1" d="M364.709,366.901"/>
<path class="st2" d="M410.709,366.901c1.593-11.154,0.213-23.333,0.017-34.547c-0.414-23.673,1.566-46.477-9.196-68.352
	c-8.875-18.04-23.628-31.631-39.821-43.102c-24-17-58.882-19.292-58.882-19.292s-11.118,3.292-28.133,3.816
	c-17.015,0.524-26.683,0.012-26.683,0.012s-36.302,7.464-59.302,18.464s-60,39-60,39s-2-30-6-53s-22-64-22-64s-10,8-23,7s-22-7-22-7
	s-1,41,3,78s13,95,25,104s36,3,47,2s44-15,44-15s0,19,0,30c0,9,1,22,1,22"/>
<path class="st1" d="M360.709,308.901c3,11,0,58,0,58"/>
<path class="st0" d="M55.709,145.901c-9.475-19.934-12.208-42.465-7.604-64.056c2.742-12.86,9.793-30.944,25.604-30.944
	c14,0,25,12,24,25s-2,32,3,31s8-12,13-9s6,12,1,22s-14,26-14,26"/>
<path class="st0" d="M35.53,34.336C24.858,38.481,19.881,52.283,21.654,62.91"/>
<path class="st0" d="M24.206,17.924C7.474,28.385-1.263,50.47,3.126,69.699"/>
</svg>
