<?xml version="1.0" encoding="utf-8"?>
<!-- Generator: Adobe Illustrator 22.1.0, SVG Export Plug-In . SVG Version: 6.00 Build 0)  -->
<svg version="1.1" id="Layer_2_1_" xmlns="http://www.w3.org/2000/svg" xmlns:xlink="http://www.w3.org/1999/xlink" x="0px" y="0px"
	 viewBox="0 0 413.5 367.2" style="enable-background:new 0 0 413.5 367.2;" xml:space="preserve">
<style type="text/css">
	.st0{fill:none;stroke:#000000;stroke-width:5;stroke-miterlimit:10;}
	.st1{fill:#F7931E;stroke:#000000;stroke-width:4;stroke-miterlimit:10;}
	.st2{fill:#6AB04C;stroke:#000000;stroke-width:5;stroke-miterlimit:10;}
</style>
<path class="st0" d="M270.4,205.4c-61.5-1.4-75.2-30.3-88.1-49.5c-12.8-19.3-13.8-71.6,0-104.6c13.8-33,59.6-53.2,92.7-48.6
	s70.6,12.8,89.9,56.9s-7.3,102.8-17.4,115.6C337.4,188,309.8,206.3,270.4,205.4z"/>
<circle class="st0" cx="229.2" cy="108.4" r="1.5"/>
<circle class="st0" cx="269.2" cy="109.4" r="1.5"/>
<path class="st0" d="M237.7,166.9c8,4.6,16.6,8,26,8c8.6,0,15.2-3.1,22-8"/>
<path class="st1" d="M364.7,366.9"/>
<path class="st2" d="M410.7,366.9c1.6-11.2,0.2-23.3,0-34.5c-0.4-23.7,1.6-46.5-9.2-68.4c-8.9-18-23.6-31.6-39.8-43.1
	c-24-17-58.9-19.3-58.9-19.3s-11.1,3.3-28.1,3.8c-17,0.5-26.7,0-26.7,0s-36.3,7.5-59.3,18.5s-60,39-60,39s-2-30-6-53s-22-64-22-64
	s-10,8-23,7s-22-7-22-7s-1,41,3,78s13,95,25,104s36,3,47,2s44-15,44-15s0,19,0,30c0,9,1,22,1,22"/>
<path class="st1" d="M360.7,308.9c3,11,0,58,0,58"/>
<path class="st0" d="M55.7,145.9c-9.5-19.9-12.2-42.5-7.6-64.1c2.7-12.9,9.8-30.9,25.6-30.9c14,0,25,12,24,25s-2,32,3,31s8-12,13-9
	s6,12,1,22s-14,26-14,26"/>
<path class="st0" d="M35.5,34.3c-10.7,4.1-15.6,17.9-13.9,28.6"/>
<path class="st0" d="M24.2,17.9C7.5,28.4-1.3,50.5,3.1,69.7"/>
</svg>
