<svg enable-background="new 0 0 596 432.5" viewBox="0 0 596 432.5" xmlns="http://www.w3.org/2000/svg"><g stroke="#000" stroke-miterlimit="10"><g stroke-width="5"><path d="m304.3 431.5h-244c-5.5 0-10-4.5-10-10v-169c0-5.5 4.5-10 10-10h244c5.5 0 10 4.5 10 10v169c0 5.5-4.4 10-10 10z" fill="#e6e6e6"/><path d="m50.3 306s-62 50.5-47 66.5 47 26.5 47 26.5z" fill="#74b9ff"/><path d="m314.3 292s61 54.9 45 71.1-45 34.5-45 34.5z" fill="#74b9ff"/><path d="m35 392.9 15.3 31.8v-26.2z" fill="#e6e6e6"/><path d="m314.3 424.5 13.9-35.3-13.9 8.3z" fill="#e6e6e6"/><path d="m95.3 154.5c0-61 54-98.5 98.5-98.5s100 39.5 100 100-37.8 86.5-37.8 86.5h-115.3s-45.4-27-45.4-88z" fill="none"/><circle cx="176.3" cy="190.5" fill="none" r="1.5"/><circle cx="217.3" cy="197.5" fill="none" r="1.5"/><circle cx="369.8" cy="150" fill="none" r="8"/><circle cx="408.8" cy="142" fill="none" r="8"/><circle cx="439.8" cy="118" fill="none" r="8"/></g><circle cx="483.3" cy="49.5" fill="none" r="1.5" stroke-width="6"/><circle cx="507.3" cy="50.5" fill="none" r="1.5" stroke-width="6"/><circle cx="533.3" cy="51.5" fill="none" r="1.5" stroke-width="6"/><path d="m466.8 18.1c.1 0 .2 0 .3.1 5.7-11 18.3-18 30.7-17.1s23.8 9.7 27.9 21.4c17.7-11.3 42.7-9.6 58.8 3.9 6.7 5.7 12.2 14.4 10 22.9-1.8 7.1-8.2 11.9-14.6 15.4-2.6 1.4-6.7 2.2-7.9-.5 4.5 9.7 4.5 22.8-3.8 29.4-6.5 5.2-16.1 4.8-23.9 1.7s-14.5-8.3-21.8-12.3c-1.4 6.8-7.1 12.2-13.7 14.5-6.6 2.2-13.8 1.7-20.6-.2-9.6-2.6-19.1-8.7-21.8-18.3-1.5 4.2-6.3 6.6-10.7 6.4-4.5-.2-8.6-2.3-12.3-4.8-3.8-2.6-7.5-5.8-8.9-10.2-1.3-4.4.7-10.1 5.2-11.2-5.6-2.7-11.1-6-14.8-10.9-10.8-14.2 1.7-29.4 16.7-31.9 8.5-1.3 16.9.2 25.2 1.7z" fill="none" stroke-width="5"/><path d="m187.8 304s-4 0-7 4-2 7-2 7 4 0 7-4 2-7 2-7z" fill="#fff" stroke-width="5"/><path d="m197.3 323.5s-4.5 3.5-4.5 7.5 1 7 3 9 3 2 3 2-2 4-4 7-4 5-6 5-6-2-8-2-5 2-8 2-7-5-10-12-2-14 1-18c1.1-1.4 2.2-2.4 3.4-3.2 2.2-1.4 4.3-1.8 5.6-1.8 2 0 4 2 7 2s5-2 9-2 7 3 8.5 4.5z" fill="#fff" stroke-width="5"/></g></svg>