<svg id="Layer_2" data-name="Layer 2" xmlns="http://www.w3.org/2000/svg" viewBox="0 0 596.044 432.5"><defs><style>.cls-1,.cls-2,.cls-3{fill:none;stroke:#000;stroke-miterlimit:10;}.cls-1{stroke-width:2px;}.cls-2{stroke-width:4px;}.cls-3{stroke-width:6px;}</style></defs><title>blog</title><path class="cls-1" d="M187.841,306a9.458,9.458,0,0,0-7,4c-3,4-2,7-2,7a9.458,9.458,0,0,0,7-4C188.841,309,187.841,306,187.841,306Z"/><path class="cls-1" d="M197.341,323.5s-4.5,3.5-4.5,7.5,1,7,3,9,3,2,3,2a77.62,77.62,0,0,1-4,7c-2,3-4,5-6,5s-6-2-8-2-5,2-8,2-7-5-10-12-2-14,1-18a13.06,13.06,0,0,1,3.414-3.2,10.864,10.864,0,0,1,5.586-1.8c2,0,4,2,7,2s5-2,9-2S195.841,322,197.341,323.5Z"/><rect class="cls-1" x="50.341" y="242.5" width="264" height="189" rx="10" ry="10"/><path class="cls-1" d="M50.341,306s-62,50.5-47,66.5,47,26.483,47,26.483Z"/><path class="cls-1" d="M314.341,292s61,54.862,45,71.066-45,34.481-45,34.481Z"/><polygon class="cls-1" points="34.98 392.891 50.341 424.669 50.341 398.5 34.98 392.891"/><polygon class="cls-1" points="314.341 424.5 328.169 389.238 314.341 397.5 314.341 424.5"/><path class="cls-1" d="M95.341,154.5c0-61,54-98.5,98.5-98.5s100,39.5,100,100-37.889,86.5-37.889,86.5H140.739S95.341,215.5,95.341,154.5Z"/><circle class="cls-2" cx="176.341" cy="190.5" r="1.5"/><circle class="cls-2" cx="217.341" cy="197.5" r="1.5"/><circle class="cls-1" cx="369.841" cy="150" r="8"/><circle class="cls-1" cx="408.841" cy="142" r="8"/><circle class="cls-1" cx="439.841" cy="118" r="8"/><circle class="cls-3" cx="483.341" cy="49.5" r="1.5"/><circle class="cls-3" cx="507.341" cy="50.5" r="1.5"/><circle class="cls-3" cx="533.341" cy="51.5" r="1.5"/><path class="cls-1" d="M466.817,18.124l.342.064a32,32,0,0,1,58.584,4.259c17.744-11.253,42.7-9.583,58.788,3.935,6.725,5.651,12.172,14.351,10.047,22.874-1.761,7.059-8.161,11.93-14.572,15.368-2.622,1.407-6.675,2.246-7.9-.466,4.472,9.694,4.5,22.782-3.846,29.443-6.53,5.214-16.084,4.771-23.863,1.719S529.926,87.02,522.6,83c-1.362,6.82-7.109,12.231-13.691,14.477s-13.848,1.693-20.552-.158c-9.552-2.636-19.06-8.738-21.788-18.264-1.462,4.208-6.26,6.561-10.712,6.395s-8.576-2.348-12.266-4.845c-3.817-2.582-7.546-5.818-8.893-10.225s.714-10.1,5.189-11.2c-5.574-2.7-11.083-5.958-14.843-10.877-10.847-14.19,1.736-29.412,16.7-31.87C450.057,15.07,458.535,16.579,466.817,18.124Z"/></svg>