<?xml version="1.0" encoding="utf-8"?>
<!-- Generator: Adobe Illustrator 22.1.0, SVG Export Plug-In . SVG Version: 6.00 Build 0)  -->
<svg version="1.1" id="Layer_2_1_" xmlns="http://www.w3.org/2000/svg" xmlns:xlink="http://www.w3.org/1999/xlink" x="0px" y="0px"
	 viewBox="0 0 596 432.5" style="enable-background:new 0 0 596 432.5;" xml:space="preserve">
<style type="text/css">
	.st0{fill:#E6E6E6;stroke:#000000;stroke-width:5;stroke-miterlimit:10;}
	.st1{fill:#74B9FF;stroke:#000000;stroke-width:5;stroke-miterlimit:10;}
	.st2{fill:none;stroke:#000000;stroke-width:5;stroke-miterlimit:10;}
	.st3{fill:none;stroke:#000000;stroke-width:6;stroke-miterlimit:10;}
	.st4{fill:#FFFFFF;stroke:#000000;stroke-width:5;stroke-miterlimit:10;}
</style>
<path class="st0" d="M304.3,431.5h-244c-5.5,0-10-4.5-10-10v-169c0-5.5,4.5-10,10-10h244c5.5,0,10,4.5,10,10v169
	C314.3,427,309.9,431.5,304.3,431.5z"/>
<path class="st1" d="M50.3,306c0,0-62,50.5-47,66.5s47,26.5,47,26.5V306z"/>
<path class="st1" d="M314.3,292c0,0,61,54.9,45,71.1s-45,34.5-45,34.5V292z"/>
<polygon class="st0" points="35,392.9 50.3,424.7 50.3,398.5 "/>
<polygon class="st0" points="314.3,424.5 328.2,389.2 314.3,397.5 "/>
<path class="st2" d="M95.3,154.5c0-61,54-98.5,98.5-98.5s100,39.5,100,100S256,242.5,256,242.5H140.7
	C140.7,242.5,95.3,215.5,95.3,154.5z"/>
<circle class="st2" cx="176.3" cy="190.5" r="1.5"/>
<circle class="st2" cx="217.3" cy="197.5" r="1.5"/>
<circle class="st2" cx="369.8" cy="150" r="8"/>
<circle class="st2" cx="408.8" cy="142" r="8"/>
<circle class="st2" cx="439.8" cy="118" r="8"/>
<circle class="st3" cx="483.3" cy="49.5" r="1.5"/>
<circle class="st3" cx="507.3" cy="50.5" r="1.5"/>
<circle class="st3" cx="533.3" cy="51.5" r="1.5"/>
<path class="st2" d="M466.8,18.1c0.1,0,0.2,0,0.3,0.1c5.7-11,18.3-18,30.7-17.1s23.8,9.7,27.9,21.4c17.7-11.3,42.7-9.6,58.8,3.9
	c6.7,5.7,12.2,14.4,10,22.9c-1.8,7.1-8.2,11.9-14.6,15.4c-2.6,1.4-6.7,2.2-7.9-0.5c4.5,9.7,4.5,22.8-3.8,29.4
	c-6.5,5.2-16.1,4.8-23.9,1.7c-7.8-3.1-14.5-8.3-21.8-12.3c-1.4,6.8-7.1,12.2-13.7,14.5c-6.6,2.2-13.8,1.7-20.6-0.2
	c-9.6-2.6-19.1-8.7-21.8-18.3c-1.5,4.2-6.3,6.6-10.7,6.4c-4.5-0.2-8.6-2.3-12.3-4.8c-3.8-2.6-7.5-5.8-8.9-10.2
	c-1.3-4.4,0.7-10.1,5.2-11.2c-5.6-2.7-11.1-6-14.8-10.9c-10.8-14.2,1.7-29.4,16.7-31.9C450.1,15.1,458.5,16.6,466.8,18.1z"/>
<path class="st4" d="M187.8,304c0,0-4,0-7,4s-2,7-2,7s4,0,7-4S187.8,304,187.8,304z"/>
<path class="st4" d="M197.3,323.5c0,0-4.5,3.5-4.5,7.5s1,7,3,9s3,2,3,2s-2,4-4,7s-4,5-6,5s-6-2-8-2s-5,2-8,2s-7-5-10-12s-2-14,1-18
	c1.1-1.4,2.2-2.4,3.4-3.2c2.2-1.4,4.3-1.8,5.6-1.8c2,0,4,2,7,2s5-2,9-2S195.8,322,197.3,323.5z"/>
</svg>
