<svg enable-background="new 0 0 593.044 428.5" viewBox="0 0 593.044 428.5" xmlns="http://www.w3.org/2000/svg"><g stroke="#000" stroke-miterlimit="10"><g stroke-width="4"><path d="m305.341 426.5h-244c-5.523 0-10-4.477-10-10v-169c0-5.523 4.477-10 10-10h244c5.523 0 10 4.477 10 10v169c0 5.522-4.477 10-10 10z" fill="#e6e6e6"/><path d="m51.341 301s-62 50.5-47 66.5 47 26.483 47 26.483z" fill="#74b9ff"/><path d="m315.341 287s61 54.862 45 71.066-45 34.482-45 34.482z" fill="#74b9ff"/><path d="m35.98 387.891 13.46 27.846c.462.957 1.9.627 1.9-.435v-21.802z" fill="#e6e6e6"/><path d="m317.272 414.576 11.897-30.338-13.828 8.261v21.711c0 1.105 1.527 1.394 1.931.366z" fill="#e6e6e6"/><path d="m96.341 149.5c0-61 54-98.5 98.5-98.5s100 39.5 100 100-37.888 86.5-37.888 86.5h-115.214s-45.398-27-45.398-88z" fill="none"/><circle cx="177.341" cy="185.5" fill="none" r="1.5"/><circle cx="218.341" cy="192.5" fill="none" r="1.5"/><circle cx="370.841" cy="145" fill="none" r="8"/><circle cx="404.841" cy="140" fill="none" r="8"/><circle cx="435.841" cy="116" fill="none" r="8"/></g><circle cx="479.341" cy="47.5" fill="none" r="1.5" stroke-width="6"/><circle cx="503.341" cy="48.5" fill="none" r="1.5" stroke-width="6"/><circle cx="529.341" cy="49.5" fill="none" r="1.5" stroke-width="6"/><path d="m462.817 19.124c.114.021.228.043.342.064 5.737-10.992 18.324-18.01 30.691-17.111s23.807 9.663 27.894 21.369c17.743-11.253 42.702-9.582 58.787 3.935 6.725 5.652 12.173 14.351 10.047 22.875-1.76 7.059-8.161 11.929-14.571 15.368-2.623 1.407-6.675 2.246-7.901-.466 4.472 9.694 4.497 22.781-3.846 29.443-6.53 5.214-16.083 4.771-23.863 1.719-7.779-3.051-14.47-8.3-21.796-12.319-1.362 6.82-7.109 12.231-13.691 14.477s-13.847 1.692-20.552-.158c-9.552-2.636-19.06-8.738-21.788-18.264-1.461 4.209-6.26 6.561-10.712 6.395-4.452-.167-8.576-2.348-12.266-4.844-3.816-2.582-7.546-5.818-8.893-10.225s.714-10.098 5.189-11.199c-5.574-2.697-11.083-5.958-14.843-10.877-10.847-14.19 1.736-29.412 16.704-31.871 8.308-1.365 16.786.144 25.068 1.689z" fill="none" stroke-width="4"/><path d="m188.841 300s-4 0-7 4-2 7-2 7 4 0 7-4 2-7 2-7z" fill="#fff" stroke-width="4"/><path d="m198.341 318.5s-4.5 3.5-4.5 7.5 1 7 3 9 3 2 3 2-2 4-4 7-4 5-6 5-6-2-8-2-5 2-8 2-7-5-10-12-2-14 1-18c1.058-1.41 2.239-2.447 3.414-3.199 2.158-1.381 4.291-1.801 5.586-1.801 2 0 4 2 7 2s5-2 9-2 7 3 8.5 4.5z" fill="#fff" stroke-width="4"/></g></svg>