<?xml version="1.0" encoding="utf-8"?>
<!-- Generator: Adobe Illustrator 22.1.0, SVG Export Plug-In . SVG Version: 6.00 Build 0)  -->
<svg version="1.1" id="Layer_2" xmlns="http://www.w3.org/2000/svg" xmlns:xlink="http://www.w3.org/1999/xlink" x="0px" y="0px"
	 viewBox="0 0 596.044 432.5" style="enable-background:new 0 0 596.044 432.5;" xml:space="preserve">
<style type="text/css">
	.st0{fill:#E6E6E6;stroke:#000000;stroke-width:4;stroke-miterlimit:10;}
	.st1{fill:#74B9FF;stroke:#000000;stroke-width:4;stroke-miterlimit:10;}
	.st2{fill:none;stroke:#000000;stroke-width:4;stroke-miterlimit:10;}
	.st3{fill:none;stroke:#000000;stroke-width:6;stroke-miterlimit:10;}
	.st4{fill:#FFFFFF;stroke:#000000;stroke-width:4;stroke-miterlimit:10;}
</style>
<path class="st0" d="M304.341,431.5h-244c-5.523,0-10-4.477-10-10v-169c0-5.523,4.477-10,10-10h244c5.523,0,10,4.477,10,10v169
	C314.341,427.022,309.864,431.5,304.341,431.5z"/>
<path class="st1" d="M50.341,306c0,0-62,50.5-47,66.5s47,26.483,47,26.483V306z"/>
<path class="st1" d="M314.341,292c0,0,61,54.862,45,71.066s-45,34.482-45,34.482V292z"/>
<polygon class="st0" points="34.98,392.891 50.341,424.669 50.341,398.5 "/>
<polygon class="st0" points="314.341,424.5 328.169,389.238 314.341,397.5 "/>
<path class="st2" d="M95.341,154.5c0-61,54-98.5,98.5-98.5s100,39.5,100,100s-37.888,86.5-37.888,86.5H140.739
	C140.739,242.5,95.341,215.5,95.341,154.5z"/>
<circle class="st2" cx="176.341" cy="190.5" r="1.5"/>
<circle class="st2" cx="217.341" cy="197.5" r="1.5"/>
<circle class="st2" cx="369.841" cy="150" r="8"/>
<circle class="st2" cx="408.841" cy="142" r="8"/>
<circle class="st2" cx="439.841" cy="118" r="8"/>
<circle class="st3" cx="483.341" cy="49.5" r="1.5"/>
<circle class="st3" cx="507.341" cy="50.5" r="1.5"/>
<circle class="st3" cx="533.341" cy="51.5" r="1.5"/>
<path class="st2" d="M466.817,18.124c0.114,0.021,0.228,0.043,0.342,0.064c5.737-10.992,18.324-18.01,30.691-17.111
	s23.807,9.663,27.894,21.369c17.743-11.253,42.702-9.582,58.787,3.935c6.725,5.652,12.173,14.351,10.047,22.875
	c-1.76,7.059-8.161,11.929-14.571,15.368c-2.623,1.407-6.675,2.246-7.901-0.466c4.472,9.694,4.497,22.781-3.846,29.443
	c-6.53,5.214-16.083,4.771-23.863,1.719c-7.779-3.051-14.47-8.3-21.796-12.319c-1.362,6.82-7.109,12.231-13.691,14.477
	c-6.582,2.246-13.847,1.692-20.552-0.158c-9.552-2.636-19.06-8.738-21.788-18.264c-1.461,4.209-6.26,6.561-10.712,6.395
	c-4.452-0.167-8.576-2.348-12.266-4.844c-3.816-2.582-7.546-5.818-8.893-10.225c-1.347-4.407,0.714-10.098,5.189-11.199
	c-5.574-2.697-11.083-5.958-14.843-10.877c-10.847-14.19,1.736-29.412,16.704-31.871C450.057,15.07,458.535,16.579,466.817,18.124z"
	/>
<path class="st4" d="M187.841,305c0,0-4,0-7,4s-2,7-2,7s4,0,7-4S187.841,305,187.841,305z"/>
<path class="st4" d="M197.341,323.5c0,0-4.5,3.5-4.5,7.5s1,7,3,9s3,2,3,2s-2,4-4,7s-4,5-6,5s-6-2-8-2s-5,2-8,2s-7-5-10-12
	s-2-14,1-18c1.058-1.41,2.239-2.447,3.414-3.199c2.158-1.381,4.291-1.801,5.586-1.801c2,0,4,2,7,2s5-2,9-2
	S195.841,322,197.341,323.5z"/>
</svg>
