<svg enable-background="new 0 0 73 87" viewBox="0 0 73 87" xmlns="http://www.w3.org/2000/svg"><path d="m2 84v-65.633c0-.237.084-.466.238-.647l13.048-15.367c.19-.224.468-.353.762-.353h53.952c.552 0 1 .448 1 1v81c0 .552-.448 1-1 1h-67c-.552 0-1-.448-1-1z" fill="none" stroke="#000" stroke-miterlimit="10" stroke-width="4"/><path d="m16 2v15c0 .552-.448 1-1 1h-13" fill="none" stroke="#000" stroke-miterlimit="10" stroke-width="4"/><path d="m33.392 40.312c.176 0 .328.067.456.204l.966 1.048c.174.189.184.487.011.676-.647.706-1.414 1.259-2.303 1.66-1.027.464-2.262.696-3.702.696-1.288 0-2.445-.221-3.474-.66-1.028-.44-1.906-1.052-2.634-1.836s-1.286-1.721-1.674-2.809-.582-2.275-.582-3.563c0-1.304.216-2.498.648-3.582s1.04-2.019 1.824-2.802c.784-.784 1.722-1.395 2.814-1.83 1.092-.437 2.298-.654 3.619-.654 1.287 0 2.413.206 3.378.618.815.348 1.531.792 2.148 1.332.193.168.216.463.066.671l-.817 1.135c-.063.096-.146.18-.246.252s-.238.107-.414.107c-.184 0-.372-.071-.563-.215-.192-.145-.437-.301-.732-.469-.296-.168-.67-.324-1.122-.468s-1.025-.216-1.722-.216c-.816 0-1.566.143-2.25.426-.684.284-1.272.689-1.764 1.219-.492.527-.876 1.169-1.152 1.926-.276.756-.414 1.605-.414 2.55 0 .976.138 1.844.414 2.604.276.761.65 1.4 1.122 1.92.472.521 1.028.918 1.668 1.194s1.328.414 2.064.414c.439 0 .838-.024 1.193-.072.356-.048.685-.124.984-.228.3-.104.584-.238.852-.402.269-.164.534-.366.798-.605.08-.072.164-.131.252-.175s.185-.066.288-.066z"/><path d="m36.13 27.738c-.133-.329.109-.687.464-.687h1.863c.279 0 .508.068.684.205.176.136.308.312.396.527l4.079 10.584c.137.344.267.723.391 1.134.124.412.242.847.354 1.303.185-.92.412-1.732.685-2.437l4.068-10.584c.072-.184.199-.352.385-.504.184-.152.41-.229.684-.229h1.862c.354 0 .596.359.464.687l-6.478 16.04c-.153.378-.52.626-.927.626h-1.567c-.408 0-.775-.248-.927-.626z"/></svg>