<svg enable-background="new 0 0 626.659 509" viewBox="0 0 626.659 509" xmlns="http://www.w3.org/2000/svg"><g fill="none" stroke="#000" stroke-miterlimit="10" stroke-width="2"><path d="m.812 508.5h625.5"/><path d="m44.312 509v-218.5h78v218.5"/><path d="m51.312 509v-218.5l-.214-34h63.214l1 34v218.5"/><path d="m51.312 256.5 24-22h13l26 22"/><path d="m75.312 235v-24.5h13v24.5"/><path d="m79.312 180v31"/><path d="m83.312 203v8"/><path d="m61.312 509v-194.5h12v-11h21v11h12v194.5"/><path d="m83.312 329v55"/><path d="m77.312 339v45"/><path d="m89.312 339v45"/><path d="m95.312 353v31"/><path d="m71.312 353v31"/><path d="m83.312 398v49"/><path d="m77.312 398v49"/><path d="m89.312 398v49"/><path d="m76.605 454.793h1.414v1.414h-1.414z" transform="matrix(.7071 -.7071 .7071 .7071 -299.4429 188.0809)"/><path d="m82.331 455.482 1-1 .981 1.018-1 1z"/><path d="m88.605 454.793h1.414v1.414h-1.414z" transform="matrix(.7071 -.7071 .7071 .7071 -295.9282 196.5662)"/><path d="m84.312 466v37"/><path d="m183.312 350.5-32 25v133.5"/><path d="m183.312 509v-250.5l31 23v227.5"/><path d="m151.312 457.5 32 36.597"/><path d="m157.312 509v-7"/><path d="m163.312 509v-7"/><path d="m170.312 509v-7"/><path d="m176.312 509v-7"/><path d="m214.312 281.743-30 21.757 29 21.957-30 25.286 30 21.422-29 24.335 29 22h-29l29 38.243-30 37.354"/><path d="m214.312 418.5-30.357 38 29.357 38h-61.413l30.407-37h-29.407l29.407-19.319-30.407-16.754 30.413-24.927-31-21"/><path d="m190.312 502v7"/><path d="m197.312 502v7"/><path d="m203.312 502v7"/><path d="m209.312 502v7"/><path d="m183.312 234v25"/><path d="m191.312 234v30"/><path d="m246.312 509v-240.5h76v240.5"/><path d="m246.312 268.5 12-10h51l13 10"/><circle cx="262.312" cy="287.5" r="3"/><circle cx="276.646" cy="287.5" r="3"/><circle cx="290.979" cy="287.5" r="3"/><circle cx="305.312" cy="287.5" r="3"/><circle cx="262.312" cy="300.5" r="3"/><circle cx="276.646" cy="300.5" r="3"/><circle cx="290.979" cy="300.5" r="3"/><circle cx="305.312" cy="300.5" r="3"/><circle cx="262.312" cy="313.5" r="3"/><circle cx="276.646" cy="313.5" r="3"/><circle cx="290.979" cy="313.5" r="3"/><circle cx="305.312" cy="313.5" r="3"/><circle cx="262.312" cy="326.5" r="3"/><circle cx="276.646" cy="326.5" r="3"/><circle cx="290.979" cy="326.5" r="3"/><circle cx="305.312" cy="326.5" r="3"/><circle cx="262.312" cy="339.5" r="3"/><circle cx="276.646" cy="339.5" r="3"/><circle cx="290.979" cy="339.5" r="3"/><circle cx="305.312" cy="339.5" r="3"/><circle cx="262.312" cy="352.5" r="3"/><circle cx="276.646" cy="352.5" r="3"/><circle cx="290.979" cy="352.5" r="3"/><circle cx="305.312" cy="352.5" r="3"/><circle cx="262.312" cy="365.5" r="3"/><circle cx="276.646" cy="365.5" r="3"/><circle cx="290.979" cy="365.5" r="3"/><circle cx="305.312" cy="365.5" r="3"/><circle cx="262.312" cy="378.5" r="3"/><circle cx="276.646" cy="378.5" r="3"/><circle cx="290.979" cy="378.5" r="3"/><circle cx="305.312" cy="378.5" r="3"/><circle cx="262.312" cy="391.5" r="3"/><circle cx="276.646" cy="391.5" r="3"/><circle cx="290.979" cy="391.5" r="3"/><circle cx="305.312" cy="391.5" r="3"/><circle cx="262.312" cy="404.5" r="3"/><circle cx="276.646" cy="404.5" r="3"/><circle cx="290.979" cy="404.5" r="3"/><circle cx="305.312" cy="404.5" r="3"/><circle cx="262.312" cy="417.5" r="3"/><circle cx="276.646" cy="417.5" r="3"/><circle cx="290.979" cy="417.5" r="3"/><circle cx="305.312" cy="417.5" r="3"/><circle cx="262.312" cy="430.5" r="3"/><circle cx="276.646" cy="430.5" r="3"/><circle cx="290.979" cy="430.5" r="3"/><circle cx="305.312" cy="430.5" r="3"/><circle cx="262.312" cy="443.5" r="3"/><circle cx="276.646" cy="443.5" r="3"/><circle cx="290.979" cy="443.5" r="3"/><circle cx="305.312" cy="443.5" r="3"/><circle cx="262.312" cy="456.5" r="3"/><circle cx="276.646" cy="456.5" r="3"/><circle cx="290.979" cy="456.5" r="3"/><circle cx="305.312" cy="456.5" r="3"/><circle cx="262.312" cy="469.5" r="3"/><circle cx="276.646" cy="469.5" r="3"/><circle cx="290.979" cy="469.5" r="3"/><circle cx="305.312" cy="469.5" r="3"/><circle cx="262.312" cy="482.5" r="3"/><circle cx="276.646" cy="482.5" r="3"/><circle cx="290.979" cy="482.5" r="3"/><circle cx="305.312" cy="482.5" r="3"/><circle cx="262.312" cy="495.5" r="3"/><circle cx="276.646" cy="495.5" r="3"/><circle cx="290.979" cy="495.5" r="3"/><circle cx="305.312" cy="495.5" r="3"/><path d="m341.312 509v-13.5h138v13.5"/><path d="m340.812 499.5h139"/><path d="m340.812 504.5h139"/><path d="m369.312 496v-371.5l10.774 8.1"/><path d="m451.312 496v-372.5l-10.916 9.314"/><path d="m369.812 274.5h82"/><path d="m388.795 495.5-10.483-48v-173.145s0-105.855 0-118.855c0-14 4-39 4-39h56c4.301 27.955 4 28 4 39v118.855 172.645l-8.333 48.5"/><path d="m398.812 130.5h23"/><path d="m394.812 162.5h31"/><path d="m394.812 182.5h31"/><path d="m394.812 188.5h31"/><path d="m394.812 193.5h31"/><path d="m390.812 258.5h40"/><path d="m395.812 265.5h30"/><path d="m396.812 281.5h29"/><path d="m395.812 337.5h29"/><path d="m395.812 342.5h29"/><path d="m395.812 347.5h29"/><path d="m395.812 351.5h29"/><path d="m395.812 356.5h29"/><path d="m395.812 361.5h29"/><path d="m386.812 485.5h49"/><path d="m402.812 458.5h18"/><path d="m402.812 464.5h18"/><path d="m402.812 469.5h18"/><path d="m500.312 509v-218.5h89v218.5"/><path d="m504.312 291v-59.5h81v59.5"/><path d="m506.428 231.5s.885-18 1.885-24 5-14 5-14h62.5"/><path d="m582.312 231.5s-.885-18-1.885-24-5-14-5-14"/><path d="m572.584 193.5s-.271-8-2.271-15-6-17-6-17h-40s-4 10-6 17c-2.215 7.752-2.195 15-2.195 15"/><path d="m525.312 161.5s0-8 1-12 3-7 3-7v19.5"/><path d="m559.312 142v19"/><path d="m563.312 161s0-8-1-12-3-7-3-7"/><path d="m532.312 147v15"/><path d="m536.312 147v15"/><path d="m540.312 147v14"/><path d="m544.312 147v15"/><path d="m548.312 147v14"/><path d="m552.312 147v14"/><path d="m556.312 147v14"/><path d="m526.312 162v347"/><path d="m562.312 162v347"/><path d="m526.812 239.5h36"/><path d="m526.812 246.5h36"/><path d="m526.812 298.5h36"/><path d="m526.812 306.5h36"/><path d="m526.812 362.5h36"/><path d="m526.812 369.5h36"/><path d="m526.812 377.5h36"/><path d="m526.812 477.5h36"/><path d="m526.812 490.5h36"/><path d="m.312 349.5c10-8 30-16 44-16"/><path d="m152.312 347.5c13 7 20 12 20 12"/><path d="m122.312 336.5s17 4 30 11"/><path d="m214.312 384.093c14.514 10.514 24.529 18.885 32 25.992"/><path d="m322.312 350.5s9-13 19-21 28-14 28-14"/><path d="m451.812 313.5c18.662 3.235 31.5 7 48.5 16"/><path d="m589.312 371c16 8.5 26 15.5 37 26.089"/><path d="m217.491 41.276s-2.178-4.776-12.179-4.776c-7.241 0-14.347 1.322-17.175 8.936-1.072 2.885-1.377 6.989-1.674 10.053-1.151-1.989-3.149-2.907-4.869-3.563-3.582-1.366-6.781 1.184-8.646 4.034-.72 1.1-1.318 2.332-1.369 3.646-.124 3.212 3.035 6.345 4.733 8.894h79s8-10 3-19c-4.923-8.861-14.692-.274-14.993-.006.472-.42-2.031-5.309-2.324-5.874-1.188-2.294-2.724-4.461-5.016-5.76-2.322-1.315-5.1-1.565-7.766-1.449-2.09.091-4.205.399-6.104 1.279-4.655 2.157-7.592 7.403-9.797 11.81"/><path d="m530.877 12.471c2.634-5.088 6.824-7.896 12.485-8.746 4.819-.723 10.495-1.049 15.189.775 6.426 2.497 6.283 8.012 5.761 14 0 0 8-6 13 2s-2 15-2 15h-82s-6-16 0-25 12-10 17-10 13 2 17 6 6 14 6 14"/><path d="m68.255 256.5v-14.614h27.913v14.614"/><path d="m51.312 272.857h63.481"/><path d="m59.22 272.857v17.643"/><path d="m106.312 272.857v17.643"/><path d="m65.312 281.5h35"/><path d="m101.312 256.5v16.357"/><path d="m63.313 256.5v16.357"/><path d="m70.312 264.5h23"/><path d="m75.312 218.133h13"/><path d="m75.312 225.097h13"/></g></svg>