<?xml version="1.0" encoding="utf-8"?>
<!-- Generator: Adobe Illustrator 23.0.1, SVG Export Plug-In . SVG Version: 6.00 Build 0)  -->
<svg version="1.1" id="Layer_2" xmlns="http://www.w3.org/2000/svg" xmlns:xlink="http://www.w3.org/1999/xlink" x="0px" y="0px"
	 viewBox="0 0 626.659 509" style="enable-background:new 0 0 626.659 509;" xml:space="preserve">
<style type="text/css">
	.st0{fill:none;stroke:#000000;stroke-width:2;stroke-miterlimit:10;}
</style>
<line class="st0" x1="0.812" y1="508.5" x2="626.312" y2="508.5"/>
<polyline class="st0" points="44.312,509 44.312,290.5 122.312,290.5 122.312,509 "/>
<polyline class="st0" points="51.312,509 51.312,290.5 51.098,256.5 114.312,256.5 115.312,290.5 115.312,509 "/>
<path class="st0" d="M51.312,256.5"/>
<path class="st0" d="M73.312,210"/>
<path class="st0" d="M73.312,234"/>
<polyline class="st0" points="51.312,256.5 75.312,234.5 88.312,234.5 114.312,256.5 "/>
<polyline class="st0" points="75.312,235 75.312,210.5 88.312,210.5 88.312,235 "/>
<path class="st0" d="M75.312,216.688"/>
<line class="st0" x1="79.312" y1="180" x2="79.312" y2="211"/>
<path class="st0" d="M83.312,202.5"/>
<line class="st0" x1="83.312" y1="203" x2="83.312" y2="211"/>
<polyline class="st0" points="61.312,509 61.312,314.5 73.312,314.5 73.312,303.5 94.312,303.5 94.312,314.5 106.312,314.5 
	106.312,509 "/>
<line class="st0" x1="83.312" y1="329" x2="83.312" y2="384"/>
<line class="st0" x1="77.312" y1="339" x2="77.312" y2="384"/>
<line class="st0" x1="89.312" y1="339" x2="89.312" y2="384"/>
<line class="st0" x1="95.312" y1="353" x2="95.312" y2="384"/>
<line class="st0" x1="71.312" y1="353" x2="71.312" y2="384"/>
<line class="st0" x1="83.312" y1="398" x2="83.312" y2="447"/>
<line class="st0" x1="77.312" y1="398" x2="77.312" y2="447"/>
<line class="st0" x1="89.312" y1="398" x2="89.312" y2="447"/>
<rect x="76.605" y="454.793" transform="matrix(0.7071 -0.7071 0.7071 0.7071 -299.4429 188.0809)" class="st0" width="1.414" height="1.414"/>
<path class="st0" d="M83.312,453.5"/>
<polygon class="st0" points="82.331,455.482 83.331,454.482 84.312,455.5 83.312,456.5 "/>
<rect x="88.605" y="454.793" transform="matrix(0.7071 -0.7071 0.7071 0.7071 -295.9282 196.5662)" class="st0" width="1.414" height="1.414"/>
<line class="st0" x1="84.312" y1="466" x2="84.312" y2="503"/>
<polyline class="st0" points="183.312,350.5 151.312,375.5 151.312,509 "/>
<polyline class="st0" points="183.312,509 183.312,258.5 214.312,281.5 214.312,509 "/>
<line class="st0" x1="151.312" y1="457.5" x2="183.312" y2="494.097"/>
<line class="st0" x1="157.312" y1="509" x2="157.312" y2="502"/>
<line class="st0" x1="163.312" y1="509" x2="163.312" y2="502"/>
<line class="st0" x1="170.312" y1="509" x2="170.312" y2="502"/>
<line class="st0" x1="176.312" y1="509" x2="176.312" y2="502"/>
<polyline class="st0" points="214.312,281.743 184.312,303.5 213.312,325.457 183.312,350.743 213.312,372.165 184.312,396.5 
	213.312,418.5 184.312,418.5 213.312,456.743 183.312,494.097 "/>
<polyline class="st0" points="214.312,418.5 183.955,456.5 213.312,494.5 151.899,494.5 182.306,457.5 152.899,457.5 
	182.306,438.181 151.899,421.427 182.312,396.5 151.312,375.5 "/>
<line class="st0" x1="190.312" y1="502" x2="190.312" y2="509"/>
<line class="st0" x1="197.312" y1="502" x2="197.312" y2="509"/>
<line class="st0" x1="203.312" y1="502" x2="203.312" y2="509"/>
<line class="st0" x1="209.312" y1="502" x2="209.312" y2="509"/>
<line class="st0" x1="183.312" y1="234" x2="183.312" y2="259"/>
<line class="st0" x1="191.312" y1="234" x2="191.312" y2="264"/>
<polyline class="st0" points="246.312,509 246.312,268.5 322.312,268.5 322.312,509 "/>
<path class="st0" d="M246.312,268.5"/>
<polyline class="st0" points="246.312,268.5 258.312,258.5 309.312,258.5 322.312,268.5 "/>
<circle class="st0" cx="262.312" cy="287.5" r="3"/>
<circle class="st0" cx="276.646" cy="287.5" r="3"/>
<circle class="st0" cx="290.979" cy="287.5" r="3"/>
<circle class="st0" cx="305.312" cy="287.5" r="3"/>
<circle class="st0" cx="262.312" cy="300.5" r="3"/>
<circle class="st0" cx="276.646" cy="300.5" r="3"/>
<circle class="st0" cx="290.979" cy="300.5" r="3"/>
<circle class="st0" cx="305.312" cy="300.5" r="3"/>
<circle class="st0" cx="262.312" cy="313.5" r="3"/>
<circle class="st0" cx="276.646" cy="313.5" r="3"/>
<circle class="st0" cx="290.979" cy="313.5" r="3"/>
<circle class="st0" cx="305.312" cy="313.5" r="3"/>
<circle class="st0" cx="262.312" cy="326.5" r="3"/>
<circle class="st0" cx="276.646" cy="326.5" r="3"/>
<circle class="st0" cx="290.979" cy="326.5" r="3"/>
<circle class="st0" cx="305.312" cy="326.5" r="3"/>
<circle class="st0" cx="262.312" cy="339.5" r="3"/>
<circle class="st0" cx="276.646" cy="339.5" r="3"/>
<circle class="st0" cx="290.979" cy="339.5" r="3"/>
<circle class="st0" cx="305.312" cy="339.5" r="3"/>
<circle class="st0" cx="262.312" cy="352.5" r="3"/>
<circle class="st0" cx="276.646" cy="352.5" r="3"/>
<circle class="st0" cx="290.979" cy="352.5" r="3"/>
<circle class="st0" cx="305.312" cy="352.5" r="3"/>
<circle class="st0" cx="262.312" cy="365.5" r="3"/>
<circle class="st0" cx="276.646" cy="365.5" r="3"/>
<circle class="st0" cx="290.979" cy="365.5" r="3"/>
<circle class="st0" cx="305.312" cy="365.5" r="3"/>
<circle class="st0" cx="262.312" cy="378.5" r="3"/>
<circle class="st0" cx="276.646" cy="378.5" r="3"/>
<circle class="st0" cx="290.979" cy="378.5" r="3"/>
<circle class="st0" cx="305.312" cy="378.5" r="3"/>
<circle class="st0" cx="262.312" cy="391.5" r="3"/>
<circle class="st0" cx="276.646" cy="391.5" r="3"/>
<circle class="st0" cx="290.979" cy="391.5" r="3"/>
<circle class="st0" cx="305.312" cy="391.5" r="3"/>
<circle class="st0" cx="262.312" cy="404.5" r="3"/>
<circle class="st0" cx="276.646" cy="404.5" r="3"/>
<circle class="st0" cx="290.979" cy="404.5" r="3"/>
<circle class="st0" cx="305.312" cy="404.5" r="3"/>
<circle class="st0" cx="262.312" cy="417.5" r="3"/>
<circle class="st0" cx="276.646" cy="417.5" r="3"/>
<circle class="st0" cx="290.979" cy="417.5" r="3"/>
<circle class="st0" cx="305.312" cy="417.5" r="3"/>
<circle class="st0" cx="262.312" cy="430.5" r="3"/>
<circle class="st0" cx="276.646" cy="430.5" r="3"/>
<circle class="st0" cx="290.979" cy="430.5" r="3"/>
<circle class="st0" cx="305.312" cy="430.5" r="3"/>
<circle class="st0" cx="262.312" cy="443.5" r="3"/>
<circle class="st0" cx="276.646" cy="443.5" r="3"/>
<circle class="st0" cx="290.979" cy="443.5" r="3"/>
<circle class="st0" cx="305.312" cy="443.5" r="3"/>
<circle class="st0" cx="262.312" cy="456.5" r="3"/>
<circle class="st0" cx="276.646" cy="456.5" r="3"/>
<circle class="st0" cx="290.979" cy="456.5" r="3"/>
<circle class="st0" cx="305.312" cy="456.5" r="3"/>
<circle class="st0" cx="262.312" cy="469.5" r="3"/>
<circle class="st0" cx="276.646" cy="469.5" r="3"/>
<circle class="st0" cx="290.979" cy="469.5" r="3"/>
<circle class="st0" cx="305.312" cy="469.5" r="3"/>
<circle class="st0" cx="262.312" cy="482.5" r="3"/>
<circle class="st0" cx="276.646" cy="482.5" r="3"/>
<circle class="st0" cx="290.979" cy="482.5" r="3"/>
<circle class="st0" cx="305.312" cy="482.5" r="3"/>
<circle class="st0" cx="262.312" cy="495.5" r="3"/>
<circle class="st0" cx="276.646" cy="495.5" r="3"/>
<circle class="st0" cx="290.979" cy="495.5" r="3"/>
<circle class="st0" cx="305.312" cy="495.5" r="3"/>
<polyline class="st0" points="341.312,509 341.312,495.5 479.312,495.5 479.312,509 "/>
<line class="st0" x1="340.812" y1="499.5" x2="479.812" y2="499.5"/>
<line class="st0" x1="340.812" y1="504.5" x2="479.812" y2="504.5"/>
<polyline class="st0" points="369.312,496 369.312,124.5 380.086,132.6 "/>
<polyline class="st0" points="451.312,496 451.312,123.5 440.396,132.814 "/>
<line class="st0" x1="369.812" y1="274.5" x2="451.812" y2="274.5"/>
<path class="st0" d="M388.795,495.5l-10.483-48V274.355c0,0,0-105.855,0-118.855c0-14,4-39,4-39h56c4.301,27.955,4,28,4,39
	c0,13,0,118.855,0,118.855V447l-8.333,48.5"/>
<line class="st0" x1="398.812" y1="130.5" x2="421.812" y2="130.5"/>
<line class="st0" x1="394.812" y1="162.5" x2="425.812" y2="162.5"/>
<line class="st0" x1="394.812" y1="182.5" x2="425.812" y2="182.5"/>
<line class="st0" x1="394.812" y1="188.5" x2="425.812" y2="188.5"/>
<line class="st0" x1="394.812" y1="193.5" x2="425.812" y2="193.5"/>
<line class="st0" x1="390.812" y1="258.5" x2="430.812" y2="258.5"/>
<line class="st0" x1="395.812" y1="265.5" x2="425.812" y2="265.5"/>
<line class="st0" x1="396.812" y1="281.5" x2="425.812" y2="281.5"/>
<line class="st0" x1="395.812" y1="337.5" x2="424.812" y2="337.5"/>
<line class="st0" x1="395.812" y1="342.5" x2="424.812" y2="342.5"/>
<line class="st0" x1="395.812" y1="347.5" x2="424.812" y2="347.5"/>
<line class="st0" x1="395.812" y1="351.5" x2="424.812" y2="351.5"/>
<line class="st0" x1="395.812" y1="356.5" x2="424.812" y2="356.5"/>
<line class="st0" x1="395.812" y1="361.5" x2="424.812" y2="361.5"/>
<line class="st0" x1="386.812" y1="485.5" x2="435.812" y2="485.5"/>
<line class="st0" x1="402.812" y1="458.5" x2="420.812" y2="458.5"/>
<line class="st0" x1="402.812" y1="464.5" x2="420.812" y2="464.5"/>
<line class="st0" x1="402.812" y1="469.5" x2="420.812" y2="469.5"/>
<polyline class="st0" points="500.312,509 500.312,290.5 589.312,290.5 589.312,509 "/>
<polyline class="st0" points="504.312,291 504.312,231.5 585.312,231.5 585.312,291 "/>
<path class="st0" d="M506.428,231.5c0,0,0.885-18,1.885-24s5-14,5-14h62.5"/>
<path class="st0" d="M582.312,231.5c0,0-0.885-18-1.885-24s-5-14-5-14"/>
<path class="st0" d="M572.584,193.5c0,0-0.271-8-2.271-15s-6-17-6-17h-40c0,0-4,10-6,17c-2.215,7.752-2.195,15-2.195,15"/>
<path class="st0" d="M525.312,161.5c0,0,0-8,1-12s3-7,3-7V162"/>
<line class="st0" x1="559.312" y1="142" x2="559.312" y2="161"/>
<path class="st0" d="M563.312,161c0,0,0-8-1-12s-3-7-3-7"/>
<line class="st0" x1="532.312" y1="147" x2="532.312" y2="162"/>
<line class="st0" x1="536.312" y1="147" x2="536.312" y2="162"/>
<line class="st0" x1="540.312" y1="147" x2="540.312" y2="161"/>
<line class="st0" x1="544.312" y1="147" x2="544.312" y2="162"/>
<line class="st0" x1="548.312" y1="147" x2="548.312" y2="161"/>
<line class="st0" x1="552.312" y1="147" x2="552.312" y2="161"/>
<line class="st0" x1="556.312" y1="147" x2="556.312" y2="161"/>
<line class="st0" x1="526.312" y1="162" x2="526.312" y2="509"/>
<line class="st0" x1="562.312" y1="162" x2="562.312" y2="509"/>
<line class="st0" x1="526.812" y1="239.5" x2="562.812" y2="239.5"/>
<line class="st0" x1="526.812" y1="246.5" x2="562.812" y2="246.5"/>
<line class="st0" x1="526.812" y1="298.5" x2="562.812" y2="298.5"/>
<line class="st0" x1="526.812" y1="306.5" x2="562.812" y2="306.5"/>
<line class="st0" x1="526.812" y1="362.5" x2="562.812" y2="362.5"/>
<line class="st0" x1="526.812" y1="369.5" x2="562.812" y2="369.5"/>
<line class="st0" x1="526.812" y1="377.5" x2="562.812" y2="377.5"/>
<line class="st0" x1="526.812" y1="477.5" x2="562.812" y2="477.5"/>
<line class="st0" x1="526.812" y1="490.5" x2="562.812" y2="490.5"/>
<path class="st0" d="M0.312,349.5c10-8,30-16,44-16"/>
<path class="st0" d="M152.312,347.5c13,7,20,12,20,12"/>
<path class="st0" d="M122.312,336.5c0,0,17,4,30,11"/>
<path class="st0" d="M214.312,384.093c14.514,10.514,24.529,18.885,32,25.992"/>
<path class="st0" d="M322.312,350.5c0,0,9-13,19-21s28-14,28-14"/>
<path class="st0" d="M451.812,313.5c18.662,3.235,31.5,7,48.5,16"/>
<path class="st0" d="M589.312,371c16,8.5,26,15.5,37,26.089"/>
<path class="st0" d="M217.491,41.276c0,0-2.178-4.776-12.179-4.776c-7.241,0-14.347,1.322-17.175,8.936
	c-1.072,2.885-1.377,6.989-1.674,10.053c-1.151-1.989-3.149-2.907-4.869-3.563c-3.582-1.366-6.781,1.184-8.646,4.034
	c-0.72,1.1-1.318,2.332-1.369,3.646c-0.124,3.212,3.035,6.345,4.733,8.894h79c0,0,8-10,3-19c-4.923-8.861-14.692-0.274-14.993-0.006
	c0.472-0.42-2.031-5.309-2.324-5.874c-1.188-2.294-2.724-4.461-5.016-5.76c-2.322-1.315-5.1-1.565-7.766-1.449
	c-2.09,0.091-4.205,0.399-6.104,1.279c-4.655,2.157-7.592,7.403-9.797,11.81"/>
<path class="st0" d="M530.877,12.471c2.634-5.088,6.824-7.896,12.485-8.746c4.819-0.723,10.495-1.049,15.189,0.775
	c6.426,2.497,6.283,8.012,5.761,14c0,0,8-6,13,2s-2,15-2,15h-82c0,0-6-16,0-25s12-10,17-10c5,0,13,2,17,6s6,14,6,14"/>
<polyline class="st0" points="68.255,256.5 68.255,241.886 96.168,241.886 96.168,256.5 "/>
<line class="st0" x1="51.312" y1="272.857" x2="114.793" y2="272.857"/>
<line class="st0" x1="59.22" y1="272.857" x2="59.22" y2="290.5"/>
<line class="st0" x1="106.312" y1="272.857" x2="106.312" y2="290.5"/>
<line class="st0" x1="65.312" y1="281.5" x2="100.312" y2="281.5"/>
<line class="st0" x1="101.312" y1="256.5" x2="101.312" y2="272.857"/>
<line class="st0" x1="63.313" y1="256.5" x2="63.313" y2="272.857"/>
<line class="st0" x1="70.312" y1="264.5" x2="93.312" y2="264.5"/>
<line class="st0" x1="75.312" y1="218.133" x2="88.312" y2="218.133"/>
<line class="st0" x1="75.312" y1="225.097" x2="88.312" y2="225.097"/>
</svg>
