<svg stroke-width="2" xmlns="http://www.w3.org/2000/svg" viewBox="0 0 1350 509.468"><defs><style>.cls-1{fill:none;stroke:#000;stroke-miterlimit:10;}</style></defs><title>hk-skyline</title><line class="cls-1" y1="508.5" x2="1350" y2="508.5"/><path class="cls-1" d="M11.5,456.93s16-21,39-21,41,19,41,19"/><path class="cls-1" d="M84.5,416.93s-31-1-38,0a25.756,25.756,0,0,0-5.453,1.516A61.968,61.968,0,0,0,30.5,423.93"/><path class="cls-1" d="M164.5,440.93s-5-15-11-21-18-15-35-15-29,7-38,15a47.672,47.672,0,0,0-12.366,17.143c-.367-4.857-6.634-9.143-11.634-12.143s-15-6.5-15-6.5V437"/><path class="cls-1" d="M16.021,451.49c3.939,0,7.873-.276,11.813-.244,3.162.025,6.869.038,9.353,2.312,1.79,1.639,2.494,4.14,2.867,6.538.929,5.96.446,12.088.446,18.094V509"/><line class="cls-1" x1="30" y1="459.5" x2="70" y2="459.5"/><line class="cls-1" x1="30" y1="470.5" x2="70" y2="470.5"/><line class="cls-1" x1="30" y1="482.5" x2="70" y2="482.5"/><line class="cls-1" x1="30" y1="493.5" x2="70" y2="493.5"/><line class="cls-1" x1="84.5" y1="449" x2="84.5" y2="509"/><line class="cls-1" x1="111.5" y1="405" x2="111.5" y2="509"/><line class="cls-1" x1="126.5" y1="406" x2="126.5" y2="509"/><line class="cls-1" x1="81" y1="446.5" x2="112" y2="446.5"/><line class="cls-1" x1="127" y1="446.5" x2="156" y2="446.5"/><line class="cls-1" x1="90.5" y1="413" x2="90.5" y2="446"/><line class="cls-1" x1="100.5" y1="408" x2="100.5" y2="446"/><line class="cls-1" x1="75" y1="426.5" x2="112" y2="426.5"/><line class="cls-1" x1="69" y1="437.5" x2="112" y2="437.5"/><line class="cls-1" x1="136.5" y1="408" x2="136.5" y2="446"/><line class="cls-1" x1="145.5" y1="413" x2="145.5" y2="446"/><line class="cls-1" x1="127" y1="426.5" x2="158" y2="426.5"/><path class="cls-1" d="M126.5,437.5"/><line class="cls-1" x1="127" y1="437.5" x2="164" y2="437.5"/><line class="cls-1" x1="91" y1="465.5" x2="112" y2="465.5"/><line class="cls-1" x1="127" y1="465.5" x2="146" y2="465.5"/><line class="cls-1" x1="91" y1="479.5" x2="146" y2="479.5"/><line class="cls-1" x1="85" y1="491.5" x2="154" y2="491.5"/><line class="cls-1" x1="95.5" y1="491" x2="95.5" y2="509"/><line class="cls-1" x1="103.5" y1="491" x2="103.5" y2="509"/><line class="cls-1" x1="134.5" y1="491" x2="134.5" y2="509"/><line class="cls-1" x1="142.5" y1="491" x2="142.5" y2="509"/><path class="cls-1" d="M150,416.5h28.986a62.956,62.956,0,0,1,13.452,1.062c3.5.765,10.148,2.6,12.062,5.952"/><path class="cls-1" d="M146.5,457.5c4.425-5.564,10.719-13.961,17.8-15.96,6.073-1.715,13.8-.946,19.935,0a66.035,66.035,0,0,1,19.022,5.968c4.871,2.393,9.528,5.305,14.245,7.992"/><path class="cls-1" d="M200.052,419.993A17.723,17.723,0,0,0,188.5,421.5a73.776,73.776,0,0,0-13,8c-4,3-11,11-11,11"/><line class="cls-1" x1="153.5" y1="449" x2="153.5" y2="509"/><line class="cls-1" x1="189.5" y1="443" x2="189.5" y2="466"/><line class="cls-1" x1="178" y1="465.5" x2="196" y2="465.5"/><line class="cls-1" x1="178" y1="474.5" x2="196" y2="474.5"/><line class="cls-1" x1="178" y1="484.5" x2="196" y2="484.5"/><line class="cls-1" x1="178" y1="495.5" x2="196" y2="495.5"/><line class="cls-1" x1="189.5" y1="496" x2="189.5" y2="509"/><path class="cls-1" d="M189.259,457a23.111,23.111,0,0,1,9.753.5c3.348.873,5.314,2.781,7.849,4.939a21.131,21.131,0,0,0,14.631,4.956"/><line class="cls-1" x1="195.5" y1="420" x2="195.5" y2="444"/><line class="cls-1" x1="212.5" y1="452" x2="212.5" y2="509"/><polyline class="cls-1" points="238.5 509 238.5 290.5 316.5 290.5 316.5 509"/><polyline class="cls-1" points="245.5 509 245.5 290.5 245.286 256.5 308.5 256.5 309.5 290.5 309.5 509"/><path class="cls-1" d="M245.5,256.5"/><path class="cls-1" d="M267.5,210"/><path class="cls-1" d="M267.5,234"/><polyline class="cls-1" points="245.5 256.5 269.5 234.5 282.5 234.5 308.5 256.5"/><polyline class="cls-1" points="269.5 235 269.5 210.5 282.5 210.5 282.5 235"/><path class="cls-1" d="M269.5,216.688"/><line class="cls-1" x1="273.5" y1="180" x2="273.5" y2="211"/><path class="cls-1" d="M277.5,202.5"/><line class="cls-1" x1="277.5" y1="203" x2="277.5" y2="211"/><polyline class="cls-1" points="255.5 509 255.5 314.5 267.5 314.5 267.5 303.5 288.5 303.5 288.5 314.5 300.5 314.5 300.5 509"/><line class="cls-1" x1="277.5" y1="329" x2="277.5" y2="384"/><line class="cls-1" x1="271.5" y1="339" x2="271.5" y2="384"/><line class="cls-1" x1="283.5" y1="339" x2="283.5" y2="384"/><line class="cls-1" x1="289.5" y1="353" x2="289.5" y2="384"/><line class="cls-1" x1="265.5" y1="353" x2="265.5" y2="384"/><line class="cls-1" x1="277.5" y1="398" x2="277.5" y2="447"/><line class="cls-1" x1="271.5" y1="398" x2="271.5" y2="447"/><line class="cls-1" x1="283.5" y1="398" x2="283.5" y2="447"/><rect class="cls-1" x="270.793" y="454.793" width="1.414" height="1.414" transform="translate(-242.567 325.392) rotate(-45)"/><path class="cls-1" d="M277.5,453.5"/><polygon class="cls-1" points="276.518 455.482 277.518 454.482 278.5 455.5 277.5 456.5 276.518 455.482"/><rect class="cls-1" x="282.793" y="454.793" width="1.414" height="1.414" transform="translate(-239.052 333.878) rotate(-45)"/><line class="cls-1" x1="278.5" y1="466" x2="278.5" y2="503"/><polyline class="cls-1" points="377.5 350.5 345.5 375.5 345.5 509"/><polyline class="cls-1" points="377.5 509 377.5 258.5 408.5 281.5 408.5 509"/><line class="cls-1" x1="345.5" y1="457.5" x2="377.5" y2="494.097"/><line class="cls-1" x1="351.5" y1="509" x2="351.5" y2="502"/><line class="cls-1" x1="357.5" y1="509" x2="357.5" y2="502"/><line class="cls-1" x1="364.5" y1="509" x2="364.5" y2="502"/><line class="cls-1" x1="370.5" y1="509" x2="370.5" y2="502"/><polyline class="cls-1" points="408.5 281.743 378.5 303.5 407.5 325.457 377.5 350.743 407.5 372.165 378.5 396.5 407.5 418.5 378.5 418.5 407.5 456.743 377.5 494.097"/><polyline class="cls-1" points="408.5 418.5 378.142 456.5 407.5 494.5 346.087 494.5 376.493 457.5 347.087 457.5 376.493 438.181 346.087 421.427 376.5 396.5 345.5 375.5"/><line class="cls-1" x1="384.5" y1="502" x2="384.5" y2="509"/><line class="cls-1" x1="391.5" y1="502" x2="391.5" y2="509"/><line class="cls-1" x1="397.5" y1="502" x2="397.5" y2="509"/><line class="cls-1" x1="403.5" y1="502" x2="403.5" y2="509"/><line class="cls-1" x1="377.5" y1="234" x2="377.5" y2="259"/><line class="cls-1" x1="385.5" y1="234" x2="385.5" y2="264"/><polyline class="cls-1" points="440.5 509 440.5 268.5 516.5 268.5 516.5 509"/><path class="cls-1" d="M440.5,268.5"/><polyline class="cls-1" points="440.5 268.5 452.5 258.5 503.5 258.5 516.5 268.5"/><circle class="cls-1" cx="456.5" cy="287.5" r="3"/><circle class="cls-1" cx="470.833" cy="287.5" r="3"/><circle class="cls-1" cx="485.167" cy="287.5" r="3"/><circle class="cls-1" cx="499.5" cy="287.5" r="3"/><circle class="cls-1" cx="456.5" cy="300.5" r="3"/><circle class="cls-1" cx="470.833" cy="300.5" r="3"/><circle class="cls-1" cx="485.167" cy="300.5" r="3"/><circle class="cls-1" cx="499.5" cy="300.5" r="3"/><circle class="cls-1" cx="456.5" cy="313.5" r="3"/><circle class="cls-1" cx="470.833" cy="313.5" r="3"/><circle class="cls-1" cx="485.167" cy="313.5" r="3"/><circle class="cls-1" cx="499.5" cy="313.5" r="3"/><circle class="cls-1" cx="456.5" cy="326.5" r="3"/><circle class="cls-1" cx="470.833" cy="326.5" r="3"/><circle class="cls-1" cx="485.167" cy="326.5" r="3"/><circle class="cls-1" cx="499.5" cy="326.5" r="3"/><circle class="cls-1" cx="456.5" cy="339.5" r="3"/><circle class="cls-1" cx="470.833" cy="339.5" r="3"/><circle class="cls-1" cx="485.167" cy="339.5" r="3"/><circle class="cls-1" cx="499.5" cy="339.5" r="3"/><circle class="cls-1" cx="456.5" cy="352.5" r="3"/><circle class="cls-1" cx="470.833" cy="352.5" r="3"/><circle class="cls-1" cx="485.167" cy="352.5" r="3"/><circle class="cls-1" cx="499.5" cy="352.5" r="3"/><circle class="cls-1" cx="456.5" cy="365.5" r="3"/><circle class="cls-1" cx="470.833" cy="365.5" r="3"/><circle class="cls-1" cx="485.167" cy="365.5" r="3"/><circle class="cls-1" cx="499.5" cy="365.5" r="3"/><circle class="cls-1" cx="456.5" cy="378.5" r="3"/><circle class="cls-1" cx="470.833" cy="378.5" r="3"/><circle class="cls-1" cx="485.167" cy="378.5" r="3"/><circle class="cls-1" cx="499.5" cy="378.5" r="3"/><circle class="cls-1" cx="456.5" cy="391.5" r="3"/><circle class="cls-1" cx="470.833" cy="391.5" r="3"/><circle class="cls-1" cx="485.167" cy="391.5" r="3"/><circle class="cls-1" cx="499.5" cy="391.5" r="3"/><circle class="cls-1" cx="456.5" cy="404.5" r="3"/><circle class="cls-1" cx="470.833" cy="404.5" r="3"/><circle class="cls-1" cx="485.167" cy="404.5" r="3"/><circle class="cls-1" cx="499.5" cy="404.5" r="3"/><circle class="cls-1" cx="456.5" cy="417.5" r="3"/><circle class="cls-1" cx="470.833" cy="417.5" r="3"/><circle class="cls-1" cx="485.167" cy="417.5" r="3"/><circle class="cls-1" cx="499.5" cy="417.5" r="3"/><circle class="cls-1" cx="456.5" cy="430.5" r="3"/><circle class="cls-1" cx="470.833" cy="430.5" r="3"/><circle class="cls-1" cx="485.167" cy="430.5" r="3"/><circle class="cls-1" cx="499.5" cy="430.5" r="3"/><circle class="cls-1" cx="456.5" cy="443.5" r="3"/><circle class="cls-1" cx="470.833" cy="443.5" r="3"/><circle class="cls-1" cx="485.167" cy="443.5" r="3"/><circle class="cls-1" cx="499.5" cy="443.5" r="3"/><circle class="cls-1" cx="456.5" cy="456.5" r="3"/><circle class="cls-1" cx="470.833" cy="456.5" r="3"/><circle class="cls-1" cx="485.167" cy="456.5" r="3"/><circle class="cls-1" cx="499.5" cy="456.5" r="3"/><circle class="cls-1" cx="456.5" cy="469.5" r="3"/><circle class="cls-1" cx="470.833" cy="469.5" r="3"/><circle class="cls-1" cx="485.167" cy="469.5" r="3"/><circle class="cls-1" cx="499.5" cy="469.5" r="3"/><circle class="cls-1" cx="456.5" cy="482.5" r="3"/><circle class="cls-1" cx="470.833" cy="482.5" r="3"/><circle class="cls-1" cx="485.167" cy="482.5" r="3"/><circle class="cls-1" cx="499.5" cy="482.5" r="3"/><circle class="cls-1" cx="456.5" cy="495.5" r="3"/><circle class="cls-1" cx="470.833" cy="495.5" r="3"/><circle class="cls-1" cx="485.167" cy="495.5" r="3"/><circle class="cls-1" cx="499.5" cy="495.5" r="3"/><polyline class="cls-1" points="535.5 509 535.5 495.5 673.5 495.5 673.5 509"/><line class="cls-1" x1="535" y1="499.5" x2="674" y2="499.5"/><line class="cls-1" x1="535" y1="504.5" x2="674" y2="504.5"/><polyline class="cls-1" points="563.5 496 563.5 124.5 574.273 132.6"/><polyline class="cls-1" points="645.5 496 645.5 123.5 634.584 132.814"/><line class="cls-1" x1="564" y1="274.5" x2="646" y2="274.5"/><path class="cls-1" d="M582.983,495.5l-10.483-48v-292c0-14,4-39,4-39h56c4.3,27.955,4,28,4,39V447l-8.333,48.5"/><line class="cls-1" x1="593" y1="130.5" x2="616" y2="130.5"/><line class="cls-1" x1="589" y1="162.5" x2="620" y2="162.5"/><line class="cls-1" x1="589" y1="182.5" x2="620" y2="182.5"/><line class="cls-1" x1="589" y1="188.5" x2="620" y2="188.5"/><line class="cls-1" x1="589" y1="193.5" x2="620" y2="193.5"/><line class="cls-1" x1="585" y1="258.5" x2="625" y2="258.5"/><line class="cls-1" x1="590" y1="265.5" x2="620" y2="265.5"/><line class="cls-1" x1="591" y1="281.5" x2="620" y2="281.5"/><line class="cls-1" x1="590" y1="337.5" x2="619" y2="337.5"/><line class="cls-1" x1="590" y1="342.5" x2="619" y2="342.5"/><line class="cls-1" x1="590" y1="347.5" x2="619" y2="347.5"/><line class="cls-1" x1="590" y1="351.5" x2="619" y2="351.5"/><line class="cls-1" x1="590" y1="356.5" x2="619" y2="356.5"/><line class="cls-1" x1="590" y1="361.5" x2="619" y2="361.5"/><line class="cls-1" x1="581" y1="485.5" x2="630" y2="485.5"/><line class="cls-1" x1="597" y1="458.5" x2="615" y2="458.5"/><line class="cls-1" x1="597" y1="464.5" x2="615" y2="464.5"/><line class="cls-1" x1="597" y1="469.5" x2="615" y2="469.5"/><polyline class="cls-1" points="694.5 509 694.5 290.5 783.5 290.5 783.5 509"/><polyline class="cls-1" points="698.5 291 698.5 231.5 779.5 231.5 779.5 291"/><path class="cls-1" d="M700.615,231.5s.885-18,1.885-24,5-14,5-14H770"/><path class="cls-1" d="M776.5,231.5s-.885-18-1.885-24-5-14-5-14"/><path class="cls-1" d="M766.771,193.5a72.238,72.238,0,0,0-2.271-15c-2-7-6-17-6-17h-40s-4,10-6,17a60.722,60.722,0,0,0-2.2,15"/><path class="cls-1" d="M719.5,161.5s0-8,1-12a24.886,24.886,0,0,1,3-7V162"/><line class="cls-1" x1="753.5" y1="142" x2="753.5" y2="161"/><path class="cls-1" d="M757.5,161s0-8-1-12a24.886,24.886,0,0,0-3-7"/><line class="cls-1" x1="726.5" y1="147" x2="726.5" y2="162"/><line class="cls-1" x1="730.5" y1="147" x2="730.5" y2="162"/><line class="cls-1" x1="734.5" y1="147" x2="734.5" y2="161"/><line class="cls-1" x1="738.5" y1="147" x2="738.5" y2="162"/><line class="cls-1" x1="742.5" y1="147" x2="742.5" y2="161"/><line class="cls-1" x1="746.5" y1="147" x2="746.5" y2="161"/><line class="cls-1" x1="750.5" y1="147" x2="750.5" y2="161"/><line class="cls-1" x1="720.5" y1="162" x2="720.5" y2="509"/><line class="cls-1" x1="756.5" y1="162" x2="756.5" y2="509"/><line class="cls-1" x1="721" y1="239.5" x2="757" y2="239.5"/><line class="cls-1" x1="721" y1="246.5" x2="757" y2="246.5"/><line class="cls-1" x1="721" y1="298.5" x2="757" y2="298.5"/><line class="cls-1" x1="721" y1="306.5" x2="757" y2="306.5"/><line class="cls-1" x1="721" y1="362.5" x2="757" y2="362.5"/><line class="cls-1" x1="721" y1="369.5" x2="757" y2="369.5"/><line class="cls-1" x1="721" y1="377.5" x2="757" y2="377.5"/><line class="cls-1" x1="721" y1="477.5" x2="757" y2="477.5"/><line class="cls-1" x1="721" y1="490.5" x2="757" y2="490.5"/><polyline class="cls-1" points="815.5 509 815.5 472.5 911.5 472.5 911.5 509"/><rect class="cls-1" x="820.5" y="355.5" width="83" height="91"/><line class="cls-1" x1="820.5" y1="446.5" x2="832.382" y2="472.5"/><line class="cls-1" x1="903.5" y1="446.5" x2="892.601" y2="472.5"/><rect class="cls-1" x="829.5" y="371.5" width="65" height="12"/><line class="cls-1" x1="833.5" y1="384" x2="833.5" y2="447"/><line class="cls-1" x1="838.5" y1="372" x2="838.5" y2="384"/><line class="cls-1" x1="848.5" y1="372" x2="848.5" y2="384"/><line class="cls-1" x1="858.5" y1="372" x2="858.5" y2="384"/><line class="cls-1" x1="867.5" y1="372" x2="867.5" y2="384"/><line class="cls-1" x1="875.5" y1="372" x2="875.5" y2="384"/><line class="cls-1" x1="884.5" y1="372" x2="884.5" y2="384"/><line class="cls-1" x1="889.5" y1="447" x2="889.5" y2="384"/><line class="cls-1" x1="843.5" y1="384" x2="843.5" y2="447"/><line class="cls-1" x1="853.5" y1="384" x2="853.5" y2="447"/><line class="cls-1" x1="862.5" y1="384" x2="862.5" y2="447"/><line class="cls-1" x1="871.5" y1="384" x2="871.5" y2="447"/><line class="cls-1" x1="880.5" y1="384" x2="880.5" y2="447"/><polyline class="cls-1" points="940.5 509 940.5 380.5 1012.5 380.5 1012.5 509"/><polyline class="cls-1" points="944.5 381 944.5 323.5 1008.5 323.5 1008.5 381"/><path class="cls-1" d="M947.5,323.5a51.281,51.281,0,0,1,3-16c3-8,7-16,7-16H996"/><path class="cls-1" d="M1005.5,323.5a51.281,51.281,0,0,0-3-16c-3-8-7-16-7-16"/><path class="cls-1" d="M958.5,291.5s0-7,1-11a32.239,32.239,0,0,1,2-6V291"/><line class="cls-1" x1="964.5" y1="278" x2="964.5" y2="291"/><line class="cls-1" x1="968.5" y1="278" x2="968.5" y2="291"/><line class="cls-1" x1="972.5" y1="278" x2="972.5" y2="291"/><line class="cls-1" x1="976.5" y1="278" x2="976.5" y2="291"/><line class="cls-1" x1="980.5" y1="278" x2="980.5" y2="291"/><line class="cls-1" x1="984.5" y1="278" x2="984.5" y2="291"/><line class="cls-1" x1="988.5" y1="278" x2="988.5" y2="291"/><path class="cls-1" d="M994.5,291.5s0-7-1-11a32.239,32.239,0,0,0-2-6V291"/><line class="cls-1" x1="960.5" y1="292" x2="960.5" y2="509"/><line class="cls-1" x1="993.5" y1="292" x2="993.5" y2="509"/><line class="cls-1" x1="960" y1="311.5" x2="994" y2="311.5"/><line class="cls-1" x1="961" y1="318.5" x2="994" y2="318.5"/><line class="cls-1" x1="961" y1="389.5" x2="994" y2="389.5"/><line class="cls-1" x1="961" y1="396.5" x2="994" y2="396.5"/><polyline class="cls-1" points="1063.5 284.5 1051.5 296.5 1051.5 444.5 1063.419 456.419"/><polyline class="cls-1" points="1128.25 283 1141.5 296.25 1141.5 444.5 1127.916 457.084"/><polyline class="cls-1" points="1128.5 509 1128.5 264.5 1114.5 252.5 1076.5 252.5 1063.5 264.5 1063.5 509"/><polyline class="cls-1" points="1076.5 253 1076.5 240.5 1114.5 240.5 1114.5 253"/><polyline class="cls-1" points="1076.5 240.5 1094.5 228.5 1114.5 240.5"/><line class="cls-1" x1="1095.5" y1="192" x2="1095.5" y2="241"/><polygon class="cls-1" points="1084.5 451.5 1084.5 285.5 1095.744 274.5 1107.5 286 1107.5 451.5 1095.489 462.25 1084.5 451.5"/><line class="cls-1" x1="1095.5" y1="275" x2="1095.5" y2="463"/><line class="cls-1" x1="1052" y1="296.5" x2="1142" y2="296.5"/><line class="cls-1" x1="1052" y1="304.5" x2="1142" y2="304.5"/><line class="cls-1" x1="1052" y1="357.5" x2="1142" y2="357.5"/><line class="cls-1" x1="1052" y1="368.5" x2="1142" y2="368.5"/><line class="cls-1" x1="1063" y1="456.5" x2="1090" y2="456.5"/><line class="cls-1" x1="1102" y1="456.5" x2="1128" y2="456.5"/><polyline class="cls-1" points="1081.5 469 1081.5 508.46 1063.379 497.197 1081.5 485.081 1063.298 468.5 1128.012 468.5 1111.5 485.515 1128.012 495.914 1111.5 508.46 1111.5 469"/><line class="cls-1" x1="1082" y1="480.5" x2="1112" y2="480.5"/><line class="cls-1" x1="1175.5" y1="492" x2="1175.5" y2="509"/><polygon class="cls-1" points="1206.5 450.5 1170.5 450.5 1170.5 491.5 1206.5 491.5 1206.5 482.5 1197.5 482.5 1197.5 459.5 1206.5 459.5 1206.5 450.5"/><line class="cls-1" x1="1175.5" y1="451" x2="1175.5" y2="435"/><polygon class="cls-1" points="1170.5 388.5 1170.5 435.5 1206.5 435.5 1206.5 426.5 1198.5 426.5 1198.5 398.5 1206.5 398.5 1206.5 388.5 1170.5 388.5"/><path class="cls-1" d="M1206.5,446.5"/><line class="cls-1" x1="1242.5" y1="502" x2="1242.5" y2="509"/><polygon class="cls-1" points="1204.5 462.5 1245.5 462.5 1245.5 502.5 1204.5 502.5 1204.5 494.5 1212.5 494.5 1212.5 470.5 1204.5 470.5 1204.5 462.5"/><polygon class="cls-1" points="1202.5 447.5 1245.5 447.5 1245.5 401.5 1202.5 401.5 1202.5 410.5 1209.5 410.5 1209.5 438.5 1202.5 438.5 1202.5 447.5"/><line class="cls-1" x1="1242.5" y1="463" x2="1242.5" y2="448"/><line class="cls-1" x1="1240.5" y1="402" x2="1240.5" y2="385"/><polygon class="cls-1" points="1202.5 384.5 1245.5 384.5 1245.5 338.5 1203.5 338.5 1203.5 347.5 1210.5 347.5 1210.5 375.5 1202.5 375.5 1202.5 384.5"/><polygon class="cls-1" points="1206.5 371.5 1170.5 371.5 1170.5 324.5 1206.5 324.5 1206.5 334.5 1198.5 334.5 1198.5 362.5 1206.5 362.5 1206.5 371.5"/><line class="cls-1" x1="1175.5" y1="372" x2="1175.5" y2="388"/><polyline class="cls-1" points="1175.5 325 1175.5 304.5 1242.5 304.5 1242.5 339"/><line class="cls-1" x1="1176" y1="314.5" x2="1243" y2="314.5"/><line class="cls-1" x1="1266.5" y1="492" x2="1266.5" y2="509"/><polygon class="cls-1" points="1297.5 450.5 1261.5 450.5 1261.5 491.5 1297.5 491.5 1297.5 482.5 1288.5 482.5 1288.5 459.5 1297.5 459.5 1297.5 450.5"/><line class="cls-1" x1="1266.5" y1="451" x2="1266.5" y2="435"/><polygon class="cls-1" points="1261.5 388.5 1261.5 435.5 1297.5 435.5 1297.5 426.5 1289.5 426.5 1289.5 398.5 1297.5 398.5 1297.5 388.5 1261.5 388.5"/><path class="cls-1" d="M1297.5,446.5"/><line class="cls-1" x1="1333.5" y1="502" x2="1333.5" y2="509"/><polygon class="cls-1" points="1295.5 462.5 1336.5 462.5 1336.5 502.5 1295.5 502.5 1295.5 494.5 1303.5 494.5 1303.5 470.5 1295.5 470.5 1295.5 462.5"/><polygon class="cls-1" points="1293.5 447.5 1336.5 447.5 1336.5 401.5 1293.5 401.5 1293.5 410.5 1300.5 410.5 1300.5 438.5 1293.5 438.5 1293.5 447.5"/><line class="cls-1" x1="1333.5" y1="463" x2="1333.5" y2="448"/><line class="cls-1" x1="1331.5" y1="402" x2="1331.5" y2="385"/><polygon class="cls-1" points="1293.5 384.5 1336.5 384.5 1336.5 338.5 1294.5 338.5 1294.5 347.5 1301.5 347.5 1301.5 375.5 1293.5 375.5 1293.5 384.5"/><polygon class="cls-1" points="1297.5 371.5 1261.5 371.5 1261.5 324.5 1297.5 324.5 1297.5 334.5 1289.5 334.5 1289.5 362.5 1297.5 362.5 1297.5 371.5"/><line class="cls-1" x1="1266.5" y1="372" x2="1266.5" y2="388"/><polyline class="cls-1" points="1266.5 325 1266.5 304.5 1333.5 304.5 1333.5 339"/><line class="cls-1" x1="1267" y1="314.5" x2="1334" y2="314.5"/><path class="cls-1" d="M1.5,474.5c8.683-7.963,17-16.657,27-23"/><path class="cls-1" d="M78.039,416.486C125.046,380.405,179.653,349.678,238.5,339"/><path class="cls-1" d="M346.5,347.5a205.083,205.083,0,0,1,20,12"/><path class="cls-1" d="M316.5,336.5s17,4,30,11"/><path class="cls-1" d="M408.5,384.093c14.514,10.514,24.529,18.885,32,25.992"/><path class="cls-1" d="M516.5,350.5s9-13,19-21,28-14,28-14"/><path class="cls-1" d="M646,313.5c18.662,3.235,31.5,7,48.5,16"/><path class="cls-1" d="M783.5,371c16,8.5,26,15.5,37,26.089"/><path class="cls-1" d="M904.5,383.5c4.814-9.372,27.979-24.139,40-31"/><path class="cls-1" d="M1008.5,329.749a100.7,100.7,0,0,1,20.108-11.343,111.254,111.254,0,0,1,11.443-4.367c3.722-1.2,7.5-2.539,11.449-2.539"/><path class="cls-1" d="M1134.958,289.458S1178.5,277.5,1204.5,280.5s69.02,17,78.01,24"/><path class="cls-1" d="M1333.5,326.617s10,3.883,15,9.883"/><path class="cls-1" d="M142.87,115.217c.159-2.948-.678-6.661-3.2-8.48a9.339,9.339,0,0,0-4.271-1.421,16.469,16.469,0,0,0-5.9.114,8.564,8.564,0,0,0-4.958,3.044c.33-.33.347-1.847.4-2.35A13.5,13.5,0,0,0,125,103.59a9.041,9.041,0,0,0-1.139-3.908A6.275,6.275,0,0,0,118.5,96.5c-4,0-11,2-12,7s2,10,2,10-5-9-13-7-11,6-10,13a18.459,18.459,0,0,0,6,11h64s10-3,6-11-21-8-27,3"/><path class="cls-1" d="M411.678,41.276S409.5,36.5,399.5,36.5c-7.241,0-14.347,1.322-17.175,8.936-1.072,2.886-1.378,6.99-1.674,10.053a8.843,8.843,0,0,0-4.869-3.562c-3.582-1.366-6.781,1.184-8.646,4.033a7.332,7.332,0,0,0-1.369,3.646c-.125,3.212,3.034,6.346,4.733,8.894h79s8-10,3-19c-4.923-8.861-14.692-.274-14.993-.006.472-.42-2.031-5.309-2.324-5.874a13.359,13.359,0,0,0-5.016-5.76,14.429,14.429,0,0,0-7.766-1.449,16.13,16.13,0,0,0-6.1,1.279c-4.655,2.156-7.591,7.4-9.8,11.81"/><path class="cls-1" d="M725.065,12.471A15.849,15.849,0,0,1,737.55,3.725c4.819-.723,10.5-1.049,15.189.775,6.426,2.5,6.283,8.012,5.761,14,0,0,8-6,13,2s-2,15-2,15h-82s-6-16,0-25,12-10,17-10,13,2,17,6,6,14,6,14"/><path class="cls-1" d="M992.5,100.5s-3-2.938-3-11c0-8,7-13,17-15s22,4,23,12-2,9-2,9a77.213,77.213,0,0,1,10-1c4,0,10,5,10,11s-7,7-7,7h-75s-6-5-3-10,7-5,9-4a12.376,12.376,0,0,1,3,2s-.472-7.764,4-10c4-2,11,1,11,1"/><path class="cls-1" d="M1243.021,11.224c2.281-3.642,4.613-5.723,9.011-5.952,4.624-.241,6.623,3.625,8.468,7.228l2.9-2.644c4.229-3.855,11.493-2.729,14.892,1.666A11.342,11.342,0,0,1,1280.5,18.5c5-3,13-2,14,4s-7,13-7,13h-72c-2,0-3.95-3.576-4.773-5.084a21.506,21.506,0,0,1-2.337-8.031c-.615-6.032.823-12.837,5.307-17.186,5.452-5.287,13.663-5.312,20.5-3.1,6.443,2.089,9.859,7.8,9.26,14.4"/><polyline class="cls-1" points="262.443 256.5 262.443 241.886 290.356 241.886 290.356 256.5"/><line class="cls-1" x1="245.5" y1="272.857" x2="308.981" y2="272.857"/><line class="cls-1" x1="253.408" y1="272.857" x2="253.408" y2="290.5"/><line class="cls-1" x1="300.5" y1="272.857" x2="300.5" y2="290.5"/><line class="cls-1" x1="259.5" y1="281.5" x2="294.5" y2="281.5"/><line class="cls-1" x1="295.5" y1="256.5" x2="295.5" y2="272.857"/><line class="cls-1" x1="257.501" y1="256.5" x2="257.501" y2="272.857"/><line class="cls-1" x1="264.5" y1="264.5" x2="287.5" y2="264.5"/><line class="cls-1" x1="269.5" y1="218.133" x2="282.5" y2="218.133"/><line class="cls-1" x1="269.5" y1="225.097" x2="282.5" y2="225.097"/></svg>