<svg stroke-width="2" viewBox="0 0 1350 509.468" xmlns="http://www.w3.org/2000/svg"><g fill="none" stroke="#000" stroke-miterlimit="10"><path d="m0 508.5h1350"/><path d="m11.5 456.93s16-21 39-21 41 19 41 19"/><path d="m84.5 416.93s-31-1-38 0a25.756 25.756 0 0 0 -5.453 1.516 61.968 61.968 0 0 0 -10.547 5.484"/><path d="m164.5 440.93s-5-15-11-21-18-15-35-15-29 7-38 15a47.672 47.672 0 0 0 -12.366 17.143c-.367-4.857-6.634-9.143-11.634-12.143s-15-6.5-15-6.5v18.57"/><path d="m16.021 451.49c3.939 0 7.873-.276 11.813-.244 3.162.025 6.869.038 9.353 2.312 1.79 1.639 2.494 4.14 2.867 6.538.929 5.96.446 12.088.446 18.094v30.81"/><path d="m30 459.5h40"/><path d="m30 470.5h40"/><path d="m30 482.5h40"/><path d="m30 493.5h40"/><path d="m84.5 449v60"/><path d="m111.5 405v104"/><path d="m126.5 406v103"/><path d="m81 446.5h31"/><path d="m127 446.5h29"/><path d="m90.5 413v33"/><path d="m100.5 408v38"/><path d="m75 426.5h37"/><path d="m69 437.5h43"/><path d="m136.5 408v38"/><path d="m145.5 413v33"/><path d="m127 426.5h31"/><path d="m127 437.5h37"/><path d="m91 465.5h21"/><path d="m127 465.5h19"/><path d="m91 479.5h55"/><path d="m85 491.5h69"/><path d="m95.5 491v18"/><path d="m103.5 491v18"/><path d="m134.5 491v18"/><path d="m142.5 491v18"/><path d="m150 416.5h28.986a62.956 62.956 0 0 1 13.452 1.062c3.5.765 10.148 2.6 12.062 5.952"/><path d="m146.5 457.5c4.425-5.564 10.719-13.961 17.8-15.96 6.073-1.715 13.8-.946 19.935 0a66.035 66.035 0 0 1 19.022 5.968c4.871 2.393 9.528 5.305 14.245 7.992"/><path d="m200.052 419.993a17.723 17.723 0 0 0 -11.552 1.507 73.776 73.776 0 0 0 -13 8c-4 3-11 11-11 11"/><path d="m153.5 449v60"/><path d="m189.5 443v23"/><path d="m178 465.5h18"/><path d="m178 474.5h18"/><path d="m178 484.5h18"/><path d="m178 495.5h18"/><path d="m189.5 496v13"/><path d="m189.259 457a23.111 23.111 0 0 1 9.753.5c3.348.873 5.314 2.781 7.849 4.939a21.131 21.131 0 0 0 14.631 4.956"/><path d="m195.5 420v24"/><path d="m212.5 452v57"/><path d="m238.5 509v-218.5h78v218.5"/><path d="m245.5 509v-218.5l-.214-34h63.214l1 34v218.5"/><path d="m245.5 256.5 24-22h13l26 22"/><path d="m269.5 235v-24.5h13v24.5"/><path d="m273.5 180v31"/><path d="m277.5 203v8"/><path d="m255.5 509v-194.5h12v-11h21v11h12v194.5"/><path d="m277.5 329v55"/><path d="m271.5 339v45"/><path d="m283.5 339v45"/><path d="m289.5 353v31"/><path d="m265.5 353v31"/><path d="m277.5 398v49"/><path d="m271.5 398v49"/><path d="m283.5 398v49"/><path d="m270.793 454.793h1.414v1.414h-1.414z" transform="matrix(.70710678 -.70710678 .70710678 .70710678 -242.567 325.392)"/><path d="m276.518 455.482 1-1 .982 1.018-1 1z"/><path d="m282.793 454.793h1.414v1.414h-1.414z" transform="matrix(.70710678 -.70710678 .70710678 .70710678 -239.052 333.878)"/><path d="m278.5 466v37"/><path d="m377.5 350.5-32 25v133.5"/><path d="m377.5 509v-250.5l31 23v227.5"/><path d="m345.5 457.5 32 36.597"/><path d="m351.5 509v-7"/><path d="m357.5 509v-7"/><path d="m364.5 509v-7"/><path d="m370.5 509v-7"/><path d="m408.5 281.743-30 21.757 29 21.957-30 25.286 30 21.422-29 24.335 29 22h-29l29 38.243-30 37.354"/><path d="m408.5 418.5-30.358 38 29.358 38h-61.413l30.406-37h-29.406l29.406-19.319-30.406-16.754 30.413-24.927-31-21"/><path d="m384.5 502v7"/><path d="m391.5 502v7"/><path d="m397.5 502v7"/><path d="m403.5 502v7"/><path d="m377.5 234v25"/><path d="m385.5 234v30"/><path d="m440.5 509v-240.5h76v240.5"/><path d="m440.5 268.5 12-10h51l13 10"/><circle cx="456.5" cy="287.5" r="3"/><circle cx="470.833" cy="287.5" r="3"/><circle cx="485.167" cy="287.5" r="3"/><circle cx="499.5" cy="287.5" r="3"/><circle cx="456.5" cy="300.5" r="3"/><circle cx="470.833" cy="300.5" r="3"/><circle cx="485.167" cy="300.5" r="3"/><circle cx="499.5" cy="300.5" r="3"/><circle cx="456.5" cy="313.5" r="3"/><circle cx="470.833" cy="313.5" r="3"/><circle cx="485.167" cy="313.5" r="3"/><circle cx="499.5" cy="313.5" r="3"/><circle cx="456.5" cy="326.5" r="3"/><circle cx="470.833" cy="326.5" r="3"/><circle cx="485.167" cy="326.5" r="3"/><circle cx="499.5" cy="326.5" r="3"/><circle cx="456.5" cy="339.5" r="3"/><circle cx="470.833" cy="339.5" r="3"/><circle cx="485.167" cy="339.5" r="3"/><circle cx="499.5" cy="339.5" r="3"/><circle cx="456.5" cy="352.5" r="3"/><circle cx="470.833" cy="352.5" r="3"/><circle cx="485.167" cy="352.5" r="3"/><circle cx="499.5" cy="352.5" r="3"/><circle cx="456.5" cy="365.5" r="3"/><circle cx="470.833" cy="365.5" r="3"/><circle cx="485.167" cy="365.5" r="3"/><circle cx="499.5" cy="365.5" r="3"/><circle cx="456.5" cy="378.5" r="3"/><circle cx="470.833" cy="378.5" r="3"/><circle cx="485.167" cy="378.5" r="3"/><circle cx="499.5" cy="378.5" r="3"/><circle cx="456.5" cy="391.5" r="3"/><circle cx="470.833" cy="391.5" r="3"/><circle cx="485.167" cy="391.5" r="3"/><circle cx="499.5" cy="391.5" r="3"/><circle cx="456.5" cy="404.5" r="3"/><circle cx="470.833" cy="404.5" r="3"/><circle cx="485.167" cy="404.5" r="3"/><circle cx="499.5" cy="404.5" r="3"/><circle cx="456.5" cy="417.5" r="3"/><circle cx="470.833" cy="417.5" r="3"/><circle cx="485.167" cy="417.5" r="3"/><circle cx="499.5" cy="417.5" r="3"/><circle cx="456.5" cy="430.5" r="3"/><circle cx="470.833" cy="430.5" r="3"/><circle cx="485.167" cy="430.5" r="3"/><circle cx="499.5" cy="430.5" r="3"/><circle cx="456.5" cy="443.5" r="3"/><circle cx="470.833" cy="443.5" r="3"/><circle cx="485.167" cy="443.5" r="3"/><circle cx="499.5" cy="443.5" r="3"/><circle cx="456.5" cy="456.5" r="3"/><circle cx="470.833" cy="456.5" r="3"/><circle cx="485.167" cy="456.5" r="3"/><circle cx="499.5" cy="456.5" r="3"/><circle cx="456.5" cy="469.5" r="3"/><circle cx="470.833" cy="469.5" r="3"/><circle cx="485.167" cy="469.5" r="3"/><circle cx="499.5" cy="469.5" r="3"/><circle cx="456.5" cy="482.5" r="3"/><circle cx="470.833" cy="482.5" r="3"/><circle cx="485.167" cy="482.5" r="3"/><circle cx="499.5" cy="482.5" r="3"/><circle cx="456.5" cy="495.5" r="3"/><circle cx="470.833" cy="495.5" r="3"/><circle cx="485.167" cy="495.5" r="3"/><circle cx="499.5" cy="495.5" r="3"/><path d="m535.5 509v-13.5h138v13.5"/><path d="m535 499.5h139"/><path d="m535 504.5h139"/><path d="m563.5 496v-371.5l10.773 8.1"/><path d="m645.5 496v-372.5l-10.916 9.314"/><path d="m564 274.5h82"/><path d="m582.983 495.5-10.483-48v-292c0-14 4-39 4-39h56c4.3 27.955 4 28 4 39v291.5l-8.333 48.5"/><path d="m593 130.5h23"/><path d="m589 162.5h31"/><path d="m589 182.5h31"/><path d="m589 188.5h31"/><path d="m589 193.5h31"/><path d="m585 258.5h40"/><path d="m590 265.5h30"/><path d="m591 281.5h29"/><path d="m590 337.5h29"/><path d="m590 342.5h29"/><path d="m590 347.5h29"/><path d="m590 351.5h29"/><path d="m590 356.5h29"/><path d="m590 361.5h29"/><path d="m581 485.5h49"/><path d="m597 458.5h18"/><path d="m597 464.5h18"/><path d="m597 469.5h18"/><path d="m694.5 509v-218.5h89v218.5"/><path d="m698.5 291v-59.5h81v59.5"/><path d="m700.615 231.5s.885-18 1.885-24 5-14 5-14h62.5"/><path d="m776.5 231.5s-.885-18-1.885-24-5-14-5-14"/><path d="m766.771 193.5a72.238 72.238 0 0 0 -2.271-15c-2-7-6-17-6-17h-40s-4 10-6 17a60.722 60.722 0 0 0 -2.2 15"/><path d="m719.5 161.5s0-8 1-12a24.886 24.886 0 0 1 3-7v19.5"/><path d="m753.5 142v19"/><path d="m757.5 161s0-8-1-12a24.886 24.886 0 0 0 -3-7"/><path d="m726.5 147v15"/><path d="m730.5 147v15"/><path d="m734.5 147v14"/><path d="m738.5 147v15"/><path d="m742.5 147v14"/><path d="m746.5 147v14"/><path d="m750.5 147v14"/><path d="m720.5 162v347"/><path d="m756.5 162v347"/><path d="m721 239.5h36"/><path d="m721 246.5h36"/><path d="m721 298.5h36"/><path d="m721 306.5h36"/><path d="m721 362.5h36"/><path d="m721 369.5h36"/><path d="m721 377.5h36"/><path d="m721 477.5h36"/><path d="m721 490.5h36"/><path d="m815.5 509v-36.5h96v36.5"/><path d="m820.5 355.5h83v91h-83z"/><path d="m820.5 446.5 11.882 26"/><path d="m903.5 446.5-10.899 26"/><path d="m829.5 371.5h65v12h-65z"/><path d="m833.5 384v63"/><path d="m838.5 372v12"/><path d="m848.5 372v12"/><path d="m858.5 372v12"/><path d="m867.5 372v12"/><path d="m875.5 372v12"/><path d="m884.5 372v12"/><path d="m889.5 447v-63"/><path d="m843.5 384v63"/><path d="m853.5 384v63"/><path d="m862.5 384v63"/><path d="m871.5 384v63"/><path d="m880.5 384v63"/><path d="m940.5 509v-128.5h72v128.5"/><path d="m944.5 381v-57.5h64v57.5"/><path d="m947.5 323.5a51.281 51.281 0 0 1 3-16c3-8 7-16 7-16h38.5"/><path d="m1005.5 323.5a51.281 51.281 0 0 0 -3-16c-3-8-7-16-7-16"/><path d="m958.5 291.5s0-7 1-11a32.239 32.239 0 0 1 2-6v16.5"/><path d="m964.5 278v13"/><path d="m968.5 278v13"/><path d="m972.5 278v13"/><path d="m976.5 278v13"/><path d="m980.5 278v13"/><path d="m984.5 278v13"/><path d="m988.5 278v13"/><path d="m994.5 291.5s0-7-1-11a32.239 32.239 0 0 0 -2-6v16.5"/><path d="m960.5 292v217"/><path d="m993.5 292v217"/><path d="m960 311.5h34"/><path d="m961 318.5h33"/><path d="m961 389.5h33"/><path d="m961 396.5h33"/><path d="m1063.5 284.5-12 12v148l11.919 11.919"/><path d="m1128.25 283 13.25 13.25v148.25l-13.584 12.584"/><path d="m1128.5 509v-244.5l-14-12h-38l-13 12v244.5"/><path d="m1076.5 253v-12.5h38v12.5"/><path d="m1076.5 240.5 18-12 20 12"/><path d="m1095.5 192v49"/><path d="m1084.5 451.5v-166l11.244-11 11.756 11.5v165.5l-12.011 10.75z"/><path d="m1095.5 275v188"/><path d="m1052 296.5h90"/><path d="m1052 304.5h90"/><path d="m1052 357.5h90"/><path d="m1052 368.5h90"/><path d="m1063 456.5h27"/><path d="m1102 456.5h26"/><path d="m1081.5 469v39.46l-18.121-11.263 18.121-12.116-18.202-16.581h64.714l-16.512 17.015 16.512 10.399-16.512 12.546v-39.46"/><path d="m1082 480.5h30"/><path d="m1175.5 492v17"/><path d="m1206.5 450.5h-36v41h36v-9h-9v-23h9z"/><path d="m1175.5 451v-16"/><path d="m1170.5 388.5v47h36v-9h-8v-28h8v-10z"/><path d="m1242.5 502v7"/><path d="m1204.5 462.5h41v40h-41v-8h8v-24h-8z"/><path d="m1202.5 447.5h43v-46h-43v9h7v28h-7z"/><path d="m1242.5 463v-15"/><path d="m1240.5 402v-17"/><path d="m1202.5 384.5h43v-46h-42v9h7v28h-8z"/><path d="m1206.5 371.5h-36v-47h36v10h-8v28h8z"/><path d="m1175.5 372v16"/><path d="m1175.5 325v-20.5h67v34.5"/><path d="m1176 314.5h67"/><path d="m1266.5 492v17"/><path d="m1297.5 450.5h-36v41h36v-9h-9v-23h9z"/><path d="m1266.5 451v-16"/><path d="m1261.5 388.5v47h36v-9h-8v-28h8v-10z"/><path d="m1333.5 502v7"/><path d="m1295.5 462.5h41v40h-41v-8h8v-24h-8z"/><path d="m1293.5 447.5h43v-46h-43v9h7v28h-7z"/><path d="m1333.5 463v-15"/><path d="m1331.5 402v-17"/><path d="m1293.5 384.5h43v-46h-42v9h7v28h-8z"/><path d="m1297.5 371.5h-36v-47h36v10h-8v28h8z"/><path d="m1266.5 372v16"/><path d="m1266.5 325v-20.5h67v34.5"/><path d="m1267 314.5h67"/><path d="m1.5 474.5c8.683-7.963 17-16.657 27-23"/><path d="m78.039 416.486c47.007-36.081 101.614-66.808 160.461-77.486"/><path d="m346.5 347.5a205.083 205.083 0 0 1 20 12"/><path d="m316.5 336.5s17 4 30 11"/><path d="m408.5 384.093c14.514 10.514 24.529 18.885 32 25.992"/><path d="m516.5 350.5s9-13 19-21 28-14 28-14"/><path d="m646 313.5c18.662 3.235 31.5 7 48.5 16"/><path d="m783.5 371c16 8.5 26 15.5 37 26.089"/><path d="m904.5 383.5c4.814-9.372 27.979-24.139 40-31"/><path d="m1008.5 329.749a100.7 100.7 0 0 1 20.108-11.343 111.254 111.254 0 0 1 11.443-4.367c3.722-1.2 7.5-2.539 11.449-2.539"/><path d="m1134.958 289.458s43.542-11.958 69.542-8.958 69.02 17 78.01 24"/><path d="m1333.5 326.617s10 3.883 15 9.883"/><path d="m142.87 115.217c.159-2.948-.678-6.661-3.2-8.48a9.339 9.339 0 0 0 -4.271-1.421 16.469 16.469 0 0 0 -5.9.114 8.564 8.564 0 0 0 -4.958 3.044c.33-.33.347-1.847.4-2.35a13.5 13.5 0 0 0 .059-2.534 9.041 9.041 0 0 0 -1.139-3.908 6.275 6.275 0 0 0 -5.361-3.182c-4 0-11 2-12 7s2 10 2 10-5-9-13-7-11 6-10 13a18.459 18.459 0 0 0 6 11h64s10-3 6-11-21-8-27 3"/><path d="m411.678 41.276s-2.178-4.776-12.178-4.776c-7.241 0-14.347 1.322-17.175 8.936-1.072 2.886-1.378 6.99-1.674 10.053a8.843 8.843 0 0 0 -4.869-3.562c-3.582-1.366-6.781 1.184-8.646 4.033a7.332 7.332 0 0 0 -1.369 3.646c-.125 3.212 3.034 6.346 4.733 8.894h79s8-10 3-19c-4.923-8.861-14.692-.274-14.993-.006.472-.42-2.031-5.309-2.324-5.874a13.359 13.359 0 0 0 -5.016-5.76 14.429 14.429 0 0 0 -7.766-1.449 16.13 16.13 0 0 0 -6.1 1.279c-4.655 2.156-7.591 7.4-9.8 11.81"/><path d="m725.065 12.471a15.849 15.849 0 0 1 12.485-8.746c4.819-.723 10.5-1.049 15.189.775 6.426 2.5 6.283 8.012 5.761 14 0 0 8-6 13 2s-2 15-2 15h-82s-6-16 0-25 12-10 17-10 13 2 17 6 6 14 6 14"/><path d="m992.5 100.5s-3-2.938-3-11c0-8 7-13 17-15s22 4 23 12-2 9-2 9a77.213 77.213 0 0 1 10-1c4 0 10 5 10 11s-7 7-7 7h-75s-6-5-3-10 7-5 9-4a12.376 12.376 0 0 1 3 2s-.472-7.764 4-10c4-2 11 1 11 1"/><path d="m1243.021 11.224c2.281-3.642 4.613-5.723 9.011-5.952 4.624-.241 6.623 3.625 8.468 7.228l2.9-2.644c4.229-3.855 11.493-2.729 14.892 1.666a11.342 11.342 0 0 1 2.208 6.978c5-3 13-2 14 4s-7 13-7 13h-72c-2 0-3.95-3.576-4.773-5.084a21.506 21.506 0 0 1 -2.337-8.031c-.615-6.032.823-12.837 5.307-17.186 5.452-5.287 13.663-5.312 20.5-3.1 6.443 2.089 9.859 7.8 9.26 14.4"/><path d="m262.443 256.5v-14.614h27.913v14.614"/><path d="m245.5 272.857h63.481"/><path d="m253.408 272.857v17.643"/><path d="m300.5 272.857v17.643"/><path d="m259.5 281.5h35"/><path d="m295.5 256.5v16.357"/><path d="m257.501 256.5v16.357"/><path d="m264.5 264.5h23"/><path d="m269.5 218.133h13"/><path d="m269.5 225.097h13"/></g></svg>