<?xml version="1.0" encoding="utf-8"?>
<!-- Generator: Adobe Illustrator 22.1.0, SVG Export Plug-In . SVG Version: 6.00 Build 0)  -->
<svg version="1.1" xmlns="http://www.w3.org/2000/svg" xmlns:xlink="http://www.w3.org/1999/xlink" x="0px" y="0px"
	 viewBox="0 0 231.56 334.836" style="enable-background:new 0 0 231.56 334.836;" xml:space="preserve">
<style type="text/css">
	.st0{display:none;}
	.st1{fill:#FFFFFF;stroke:#000000;stroke-width:4;stroke-miterlimit:10;}
	.st2{fill:none;stroke:#000000;stroke-width:4;stroke-miterlimit:10;}
	.st3{fill:#A0CFE8;stroke:#000000;stroke-width:4;stroke-miterlimit:10;}
</style>
<g id="Layer_1" class="st0">
	
		<image style="display:inline;overflow:visible;" width="4032" height="3024" xlink:href="../../../Desktop/IMG_4610.JPG"  transform="matrix(0.2786 0 0 0.2786 -472.94 -164.2954)">
	</image>
</g>
<g id="Layer_2">
	<path class="st1" d="M50.06,17.705c49.179-36.461,144-6,155,56s-10,110-66,123s-97-18-111-38S-7.94,60.705,50.06,17.705z"/>
	<circle class="st2" cx="85.56" cy="97.205" r="1.5"/>
	<circle class="st2" cx="127.56" cy="97.205" r="1.5"/>
	<path class="st2" d="M76.06,143.705c0,0,11,13,28,13s32-11,32-11"/>
	<path class="st3" d="M229.56,334.205c0,0,0-103-15-119s-54.08-25.938-54.08-25.938s-25.42,10.438-48.42,10.438
		c-22.543,0-46-10.438-46-10.438s-41.5,10.938-53.5,34.938s-10.5,110.5-10.5,110.5"/>
	<line class="st3" x1="44.06" y1="258.705" x2="44.06" y2="334.705"/>
	<line class="st3" x1="181.06" y1="258.705" x2="186.06" y2="334.705"/>
</g>
</svg>
