<svg enable-background="new 0 0 231.56 334.836" viewBox="0 0 231.56 334.836" xmlns="http://www.w3.org/2000/svg"><g stroke="#000" stroke-miterlimit="10" stroke-width="4"><path d="m50.06 17.705c49.179-36.461 144-6 155 56s-10 110-66 123-97-18-111-38-36-98 22-141z" fill="#fff"/><g fill="none"><circle cx="85.56" cy="97.205" r="1.5"/><circle cx="127.56" cy="97.205" r="1.5"/><path d="m76.06 143.705s11 13 28 13 32-11 32-11"/></g><path d="m229.56 334.205s0-103-15-119-54.08-25.938-54.08-25.938-25.42 10.438-48.42 10.438c-22.543 0-46-10.438-46-10.438s-41.5 10.938-53.5 34.938-10.5 110.5-10.5 110.5" fill="#a0cfe8"/><path d="m44.06 258.705v76" fill="#a0cfe8"/><path d="m181.06 258.705 5 76" fill="#a0cfe8"/></g></svg>