<svg xmlns="http://www.w3.org/2000/svg" viewBox="0 0 369.601 372.873"><defs><style>.cls-1{fill:#6c5ce7;}.cls-1,.cls-3,.cls-4,.cls-5,.cls-6,.cls-7{stroke:#000;stroke-miterlimit:10;stroke-width:4px;}.cls-2,.cls-6{fill:#ffeaa7;}.cls-3{fill:none;}.cls-4{fill:#fff;}.cls-5{fill:#666;}.cls-7{fill:#cd6133;}</style></defs><title>projects</title><g id="fill"><path class="cls-1" d="M122.53,357.133s-1-9-2-22,1-36,1-36l-16,11-35-38s18-20,32-35,56-43.958,56-43.958,20.144,12.433,49.072,12.433,51.346-14.555,51.346-14.555,33.582-.92,70.582,64.08,67,127-10,114-132-48-132-48a24.792,24.792,0,0,0,6-14c1-9-3-22-3-22s35,2,60,10c.909.291,45,14,45,14l-21-28,3,77"/></g><g id="Layer_2" data-name="Layer 2"><polygon class="cls-2" points="55.53 255.133 10.53 308.133 100.53 308.133 55.53 255.133"/><path class="cls-3" d="M191.53,11.133c66,0,106,53,106,92s-13,68-33,84-73,32-115,0-52-66-45-95,25-55,42-67S191.53,11.133,191.53,11.133Z"/><circle class="cls-3" cx="157.03" cy="134.633" r="1.5"/><circle class="cls-3" cx="186.03" cy="135.633" r="1.5"/><line class="cls-3" x1="183.53" y1="176.133" x2="203.53" y2="176.133"/><path class="cls-1" d="M122.53,357.133s-1-9-2-22,1-36,1-36l-16,11-35-39s18-19,32-34,56-43.958,56-43.958,20.144,12.433,49.072,12.433,51.346-14.555,51.346-14.555,33.582-.92,70.582,64.08,67,127-10,114-132-48-132-48a24.792,24.792,0,0,0,6-14c1-9-3-22-3-22s35,2,60,10c.909.291,45,14,45,14l-21-28,1,21"/><path class="cls-4" d="M190.8,286.045s-9.266-4.912-23.266-3.912-34,7-34,15,4,16,16,20,36,3,39,0a16.559,16.559,0,0,0,5.154-12.938C193.53,298.133,190.8,286.045,190.8,286.045Z"/><path class="cls-5" d="M110.53,295.133l11-8-4-5,5-4,12,14,14-8-15-15,10-8-4-5s4-7,11-7a67.608,67.608,0,0,1,12,1s-6-12-19-12-15,4-15,4l-4-4-21,19,5,6-5,4-5-6-10,9Z"/><polygon class="cls-5" points="160.129 319.322 179.735 338.928 191.53 329.133 181.727 320.648 160.129 319.322"/><polyline class="cls-6" points="9.53 307.133 9.53 362.133 102.53 362.133 102.53 307.133"/><polyline class="cls-3" points="1.53 316.133 54.53 253.133 110.53 317.133"/><rect class="cls-7" x="45.53" y="329.133" width="19" height="32"/><polyline class="cls-3" points="88.53 282.133 94.53 288.633 100.53 295.133"/><line class="cls-3" x1="94.53" y1="289.133" x2="91.266" y2="292.397"/><path class="cls-1" d="M61.53,37.133c6.9,1.6,11.258,7.255,16,12"/><path class="cls-1" d="M77.53,18.133c2.839,4.718,7.376,11.759,12,15"/><line class="cls-1" x1="296.53" y1="17.133" x2="307.53" y2="1.133"/><line class="cls-1" x1="310.53" y1="29.133" x2="324.53" y2="17.133"/></g></svg>