<?xml version="1.0" encoding="utf-8"?>
<!-- Generator: Adobe Illustrator 22.1.0, SVG Export Plug-In . SVG Version: 6.00 Build 0)  -->
<svg version="1.1" id="Layer_1" xmlns="http://www.w3.org/2000/svg" xmlns:xlink="http://www.w3.org/1999/xlink" x="0px" y="0px"
	 viewBox="0 0 369.601 372.873" style="enable-background:new 0 0 369.601 372.873;" xml:space="preserve">
<style type="text/css">
	.st0{fill:#6C5CE7;stroke:#000000;stroke-width:4;stroke-miterlimit:10;}
	.st1{fill:#FFEAA7;}
	.st2{fill:#FFFFFF;stroke:#000000;stroke-width:4;stroke-miterlimit:10;}
	.st3{fill:none;stroke:#000000;stroke-width:4;stroke-miterlimit:10;}
	.st4{fill:#666666;stroke:#000000;stroke-width:4;stroke-miterlimit:10;}
	.st5{fill:#FFEAA7;stroke:#000000;stroke-width:4;stroke-miterlimit:10;}
	.st6{fill:#CD6133;stroke:#000000;stroke-width:4;stroke-miterlimit:10;}
</style>
<path class="st0" d="M122.53,357.133c0,0-1-9-2-22s1-36,1-36l-16,11l-35-38c0,0,18-20,32-35s56-43.958,56-43.958
	s20.144,12.434,49.072,12.434s51.346-14.555,51.346-14.555s33.582-0.92,70.582,64.08s67,127-10,114s-132-48-132-48s5-5,6-14
	s-3-22-3-22s35,2,60,10c0.909,0.291,45,14,45,14l-21-28l3,77"/>
<path class="st1" d="M55.53,255.133l-45,53h90L55.53,255.133z"/>
<g>
	<path class="st2" d="M191.53,11.133c66,0,106,53,106,92s-13,68-33,84s-73,32-115,0s-52-66-45-95s25-55,42-67
		S191.53,11.133,191.53,11.133z"/>
	<circle class="st3" cx="157.03" cy="134.633" r="1.5"/>
	<circle class="st3" cx="186.03" cy="135.633" r="1.5"/>
	<path class="st3" d="M183.53,176.133h20"/>
	<path class="st0" d="M122.53,357.133c0,0-1-9-2-22s1-36,1-36l-16,11l-35-39c0,0,18-19,32-34s56-43.958,56-43.958
		s20.144,12.434,49.072,12.434s51.346-14.555,51.346-14.555s33.582-0.92,70.582,64.08s67,127-10,114s-132-48-132-48s5-5,6-14
		s-3-22-3-22s35,2,60,10c0.909,0.291,45,14,45,14l-21-28l1,21"/>
	<path class="st2" d="M190.796,286.045c0,0-9.266-4.912-23.266-3.912s-34,7-34,15s4,16,16,20s36,3,39,0s5.307-6.876,5.153-12.938
		S190.796,286.045,190.796,286.045L190.796,286.045z"/>
	<path class="st4" d="M110.53,295.133l11-8l-4-5l5-4l12,14l14-8l-15-15l10-8l-4-5c0,0,4-7,11-7s12,1,12,1s-6-12-19-12s-15,4-15,4
		l-4-4l-21,19l5,6l-5,4l-5-6l-10,9L110.53,295.133z"/>
	<path class="st4" d="M160.129,319.322l19.606,19.606l11.795-9.795l-9.803-8.485L160.129,319.322z"/>
	<path class="st5" d="M9.53,307.133v55h93v-55"/>
	<path class="st3" d="M1.53,316.133l53-63l56,64"/>
	<path class="st6" d="M45.53,329.133h19v32h-19V329.133z"/>
	<path class="st3" d="M88.53,282.133l6,6.5l6,6.5"/>
	<path class="st3" d="M94.53,289.133l-3.264,3.264"/>
	<path class="st0" d="M61.53,37.133c6.896,1.603,11.258,7.255,16,12"/>
	<path class="st0" d="M77.53,18.133c2.839,4.718,7.375,11.759,12,15"/>
	<path class="st0" d="M296.53,17.133l11-16"/>
	<path class="st0" d="M310.53,29.133l14-12"/>
</g>
</svg>
