<svg enable-background="new 0 0 369.601 372.873" viewBox="0 0 369.601 372.873" xmlns="http://www.w3.org/2000/svg"><path d="m122.53 357.133s-1-9-2-22 1-36 1-36l-16 11-35-38s18-20 32-35 56-43.958 56-43.958 20.144 12.434 49.072 12.434 51.346-14.555 51.346-14.555 33.582-.92 70.582 64.08 67 127-10 114-132-48-132-48 5-5 6-14-3-22-3-22 35 2 60 10c.909.291 45 14 45 14l-21-28 3 77" fill="#6c5ce7" stroke="#000" stroke-miterlimit="10" stroke-width="4"/><path d="m55.53 255.133-45 53h90z" fill="#ffeaa7"/><g stroke="#000" stroke-miterlimit="10" stroke-width="5"><path d="m191.53 11.133c66 0 106 53 106 92s-13 68-33 84-73 32-115 0-52-66-45-95 25-55 42-67 45-14 45-14z" fill="none"/><circle cx="157.03" cy="134.633" fill="none" r="1.5"/><circle cx="186.03" cy="135.633" fill="none" r="1.5"/><path d="m183.53 176.133h20" fill="none"/><path d="m122.53 357.133s-1-9-2-22 1-36 1-36l-16 11-35-39s18-19 32-34 56-43.958 56-43.958 20.144 12.434 49.072 12.434 51.346-14.555 51.346-14.555 33.582-.92 70.582 64.08 67 127-10 114-132-48-132-48 5-5 6-14-3-22-3-22 35 2 60 10c.909.291 45 14 45 14l-21-28 1 21" fill="#6c5ce7"/><path d="m190.796 286.045s-9.266-4.912-23.266-3.912-34 7-34 15 4 16 16 20 36 3 39 0 5.307-6.876 5.153-12.938-2.887-18.15-2.887-18.15z" fill="#fff"/><path d="m110.53 295.133 11-8-4-5 5-4 12 14 14-8-15-15 10-8-4-5s4-7 11-7 12 1 12 1-6-12-19-12-15 4-15 4l-4-4-21 19 5 6-5 4-5-6-10 9z" fill="#666"/><path d="m160.129 319.322 19.606 19.606 11.795-9.795-9.803-8.485z" fill="#666"/><path d="m9.53 307.133v55h93v-55" fill="#ffeaa7"/><path d="m1.53 316.133 53-63 56 64" fill="none"/><path d="m45.53 329.133h19v32h-19z" fill="#cd6133"/><path d="m88.53 282.133 6 6.5 6 6.5" fill="none"/><path d="m94.53 289.133-3.264 3.264" fill="none"/><path d="m61.53 37.133c6.896 1.603 11.258 7.255 16 12" fill="#6c5ce7"/><path d="m77.53 18.133c2.839 4.718 7.375 11.759 12 15" fill="#6c5ce7"/><path d="m296.53 17.133 11-16" fill="#6c5ce7"/><path d="m310.53 29.133 14-12" fill="#6c5ce7"/></g></svg>