<?xml version="1.0" encoding="utf-8"?>
<!-- Generator: Adobe Illustrator 22.1.0, SVG Export Plug-In . SVG Version: 6.00 Build 0)  -->
<svg version="1.1" xmlns="http://www.w3.org/2000/svg" xmlns:xlink="http://www.w3.org/1999/xlink" x="0px" y="0px"
	 viewBox="0 0 511.922 387.186" style="enable-background:new 0 0 511.922 387.186;" xml:space="preserve">
<style type="text/css">
	.st0{fill:none;stroke:#000000;stroke-width:4;stroke-miterlimit:10;}
	.st1{fill:#E84118;stroke:#000000;stroke-width:4;stroke-miterlimit:10;}
	.st2{fill:#FCF2D6;stroke:#000000;stroke-width:4;stroke-miterlimit:10;}
	.st3{fill:#80A2ED;stroke:#000000;stroke-width:4;stroke-miterlimit:10;}
	.st4{fill:#FFFFFF;stroke:#000000;stroke-width:4;stroke-miterlimit:10;}
	.st5{fill:#4D82C1;stroke:#000000;stroke-width:4;stroke-miterlimit:10;}
	.st6{stroke:#000000;stroke-miterlimit:10;}
	.st7{font-family:'Courier';}
	.st8{font-size:28.4946px;}
	.st9{fill:#F6E58D;stroke:#000000;stroke-width:4;stroke-miterlimit:10;}
	.st10{fill:#F9CA24;stroke:#000000;stroke-width:4;stroke-miterlimit:10;}
	.st11{fill:#FF7979;stroke:#000000;stroke-width:4;stroke-miterlimit:10;}
	.st12{fill:#FCF5F5;stroke:#000000;stroke-width:4;stroke-miterlimit:10;}
</style>
<g id="Layer_2">
	<path class="st0" d="M353.114,2.025c54.989,1.122,84,38,93,70s5,75-33,106s-92,16-111,5s-54-47-44-100
		C268.114,30.025,304.114,1.025,353.114,2.025z"/>
	<circle class="st0" cx="314.614" cy="121.525" r="1.5"/>
	<circle class="st0" cx="354.614" cy="124.525" r="1.5"/>
	<rect x="296.114" y="110.025" class="st0" width="31" height="24"/>
	<rect x="340.114" y="112.025" class="st0" width="31" height="24"/>
	<line class="st0" x1="327.114" y1="122.025" x2="340.114" y2="122.025"/>
	<polyline class="st0" points="371.114,124.025 419.114,105.025 431.114,116.025 	"/>
	<line class="st0" x1="257.114" y1="93.025" x2="296.114" y2="120.025"/>
	<path class="st1" d="M308.523,186.265c0,0-20.409,8.76-30.409,16.76s-22,18-22,18s11,13,16,27c6-13,22-22,43-23s38-4,38-4l2,12
		l16-4l-4,65c0,0,2,0,6,2s8,5,8,5s-6,13-6,21s0,22,6,23s99,0,117-23c18-23,16-45-10-78c-26-33-87.339-57.76-87.339-57.76
		s-17.661,10.224-44.661,10.224C328.114,196.489,308.523,186.265,308.523,186.265z"/>
	<path class="st0" d="M458.114,291.025c0,0-26,1-39,3s-38,7-38,7"/>
	<path class="st0" d="M330.114,161.025c6.374,3.111,15.887,5.882,23.075,4.851c6.123-0.879,12.114-2.771,17.925-4.851"/>
	<path class="st2" d="M272.114,244.025c4-5,15.342-15.234,39-19c23.084-3.675,42-4,42-4l2,12l-74,14c0,0-3,6-10,6s-7-7-7-7l-30-32
		l8-5C242.114,209.025,264.114,224.025,272.114,244.025z"/>
	<polygon class="st3" points="281.114,247.025 272.114,382.025 364.114,366.025 371.114,229.025 	"/>
	<path class="st4" d="M381.544,299.906c0,0-19.43-13.881-37.43-2.881s-9,33-3,38s18,11,29,10s11-1,11-1s-6-6-6-19
		S381.544,299.906,381.544,299.906z"/>
	<path class="st5" d="M265.114,250.025c0,0,3,3,7,3c3,0,9-3,9-3l-9,132c0,0-1,4-8,3s-8-6-8-6L265.114,250.025z"/>
	<polygon class="st3" points="264.114,246.025 229.114,209.025 219.114,337.025 256.114,379.025 	"/>
</g>
<g id="Layer_3">
	<path class="st4" d="M219.795,265.025c8.223,0,15.698,10,13.455,23s-7.475,14-11.96,14s-11.96-4-14.203-12
		C203.505,277.249,210.273,266.183,219.795,265.025z"/>
</g>
<g id="Layer_4">
	<text transform="matrix(-0.9782 0.2079 -0.2079 -0.9782 358.4387 251.6512)" class="st6 st7 st8">Java</text>
	<polygon class="st9" points="4.114,302.025 53.114,351.025 163.114,305.025 110.114,259.025 	"/>
	<g>
		<g>
			<path d="M3.01,310.503c0.408-3.842,1.253-10.684,6.507-10.891c2.165-0.085,4.672,1.546,5.692,3.404
				c1.063,1.934,1.266,6.92-0.947,8.417c-0.548,1.517-1.359,1.379-2.433-0.413c0.86-1.5,2.125-2.537,3.795-3.112
				c2.983-0.949,5.87,0.983,6.874,3.858c1.815,5.194-2.417,9.388-6.784,11.274c0.752,0.432,1.505,0.863,2.257,1.295
				c0.075-2.997,1.202-5.955,3.883-7.591c3.289-2.006,8.349-0.531,9.445,3.433c1.519,5.499-5.376,8.995-9.279,10.94
				c0.752,0.432,1.505,0.863,2.257,1.295c0.553-5.702,13.51-12.012,13.534-2.261c0.004,1.647-0.687,3.87-1.478,5.29
				c-0.727,2.27-2.039,2.486-3.934,0.65c0.509-0.632,1.057-1.228,1.645-1.787c2.164-2.042,10.919-6.644,10.405,0.097
				c-0.211,2.765-4.521,10.978-7.888,9.987c0.349,0.615,0.698,1.23,1.048,1.845c1.343-3.593,9.263-10.001,13.398-9.854
				c7.673,0.273,0.207,7.561-1.655,9.02c-2.081,1.631-4.246,3.216-6.562,4.501c-1.689,0.937-0.177,3.529,1.514,2.59
				c5.397-2.994,18.933-11.759,9.678-18.257c-5.745-4.033-17.317,5.992-19.266,11.202c-0.288,0.769,0.325,1.632,1.048,1.845
				c6.458,1.901,15.85-13.395,10.607-18.053c-2.946-2.617-8.694-1.03-11.646,0.729c-2.425,1.445-8.569,6.415-6.353,9.996
				c2.045,3.306,6.72,1.534,8.822-0.603c3.073-3.123,4.651-9.106,3.086-13.265c-3.587-9.531-18.274-1.189-19.002,6.325
				c-0.118,1.219,1.338,1.753,2.257,1.295c6.624-3.301,16.584-12.278,7.245-19.027c-7.506-5.424-15.608,1.687-15.808,9.654
				c-0.031,1.248,1.272,1.72,2.257,1.295c4.352-1.879,8.212-5.486,8.639-10.474c0.339-3.956-1.68-8.336-5.476-9.919
				c-3.725-1.553-8.127,0.1-10.477,3.249c-1.596,2.139-3.07,7.242,0.497,8.4c3.599,1.169,6.839-3.829,7.813-6.52
				c1.546-4.274,0.641-9.081-3.121-11.865c-2.976-2.202-6.983-2.568-10.052-0.357c-3.859,2.78-4.577,7.979-5.042,12.358
				C-0.194,312.421,2.808,312.407,3.01,310.503L3.01,310.503z"/>
		</g>
	</g>
	<line class="st9" x1="32.114" y1="300.025" x2="65.614" y2="333.525"/>
	<line class="st9" x1="59.114" y1="308.025" x2="78.614" y2="327.525"/>
	<polygon class="st10" points="70.114,248.025 22.114,274.025 16.114,262.025 64.114,236.025 	"/>
	<path class="st11" d="M16.114,262.025l6,12l-9.18,5.007c-0.994,0.542-2.24,0.152-2.747-0.861l-4.21-8.42
		c-0.482-0.963-0.114-2.135,0.831-2.65L16.114,262.025z"/>
	<polygon class="st12" points="66.114,235.025 84.114,232.025 71.114,247.025 63.114,244.025 	"/>
</g>
</svg>
