<svg enable-background="new 0 0 511.922 387.186" viewBox="0 0 511.922 387.186" xmlns="http://www.w3.org/2000/svg"><g stroke="#000" stroke-miterlimit="10"><path d="m353.114 2.025c54.989 1.122 84 38 93 70s5 75-33 106-92 16-111 5-54-47-44-100 46-82 95-81z" fill="none" stroke-width="4"/><circle cx="314.614" cy="121.525" fill="none" r="1.5" stroke-width="4"/><circle cx="354.614" cy="124.525" fill="none" r="1.5" stroke-width="4"/><path d="m296.114 110.025h31v24h-31z" fill="none" stroke-width="4"/><path d="m340.114 112.025h31v24h-31z" fill="none" stroke-width="4"/><path d="m327.114 122.025h13" fill="none" stroke-width="4"/><path d="m371.114 124.025 48-19 12 11" fill="none" stroke-width="4"/><path d="m257.114 93.025 39 27" fill="none" stroke-width="4"/><path d="m308.523 186.265s-20.409 8.76-30.409 16.76-22 18-22 18 11 13 16 27c6-13 22-22 43-23s38-4 38-4l2 12 16-4-4 65s2 0 6 2 8 5 8 5-6 13-6 21 0 22 6 23 99 0 117-23 16-45-10-78-87.339-57.76-87.339-57.76-17.661 10.224-44.661 10.224c-28 0-47.591-10.224-47.591-10.224z" fill="#e84118" stroke-width="4"/><path d="m458.114 291.025s-26 1-39 3-38 7-38 7" fill="none" stroke-width="4"/><path d="m330.114 161.025c6.374 3.111 15.887 5.882 23.075 4.851 6.123-.879 12.114-2.771 17.925-4.851" fill="none" stroke-width="4"/><path d="m272.114 244.025c4-5 15.342-15.234 39-19 23.084-3.675 42-4 42-4l2 12-74 14s-3 6-10 6-7-7-7-7l-30-32 8-5s22 15 30 35z" fill="#fcf2d6" stroke-width="4"/><path d="m281.114 247.025-9 135 92-16 7-137z" fill="#80a2ed" stroke-width="4"/><path d="m381.544 299.906s-19.43-13.881-37.43-2.881-9 33-3 38 18 11 29 10 11-1 11-1-6-6-6-19 6.43-25.119 6.43-25.119z" fill="#fff" stroke-width="4"/><path d="m265.114 250.025s3 3 7 3c3 0 9-3 9-3l-9 132s-1 4-8 3-8-6-8-6z" fill="#4d82c1" stroke-width="4"/><path d="m264.114 246.025-35-37-10 128 37 42z" fill="#80a2ed" stroke-width="4"/><path d="m219.795 265.025c8.223 0 15.698 10 13.455 23s-7.475 14-11.96 14-11.96-4-14.203-12c-3.582-12.776 3.186-23.842 12.708-25z" fill="#fff" stroke-width="4"/><text font-family="'Courier'" font-size="28.4946" transform="matrix(-.9782 .2079 -.2079 -.9782 358.4387 251.6512)">Java</text><path d="m4.114 302.025 49 49 110-46-53-46z" fill="#f6e58d" stroke-width="4"/></g><path d="m3.01 310.503c.408-3.842 1.253-10.684 6.507-10.891 2.165-.085 4.672 1.546 5.692 3.404 1.063 1.934 1.266 6.92-.947 8.417-.548 1.517-1.359 1.379-2.433-.413.86-1.5 2.125-2.537 3.795-3.112 2.983-.949 5.87.983 6.874 3.858 1.815 5.194-2.417 9.388-6.784 11.274.752.432 1.505.863 2.257 1.295.075-2.997 1.202-5.955 3.883-7.591 3.289-2.006 8.349-.531 9.445 3.433 1.519 5.499-5.376 8.995-9.279 10.94.752.432 1.505.863 2.257 1.295.553-5.702 13.51-12.012 13.534-2.261.004 1.647-.687 3.87-1.478 5.29-.727 2.27-2.039 2.486-3.934.65.509-.632 1.057-1.228 1.645-1.787 2.164-2.042 10.919-6.644 10.405.097-.211 2.765-4.521 10.978-7.888 9.987.349.615.698 1.23 1.048 1.845 1.343-3.593 9.263-10.001 13.398-9.854 7.673.273.207 7.561-1.655 9.02-2.081 1.631-4.246 3.216-6.562 4.501-1.689.937-.177 3.529 1.514 2.59 5.397-2.994 18.933-11.759 9.678-18.257-5.745-4.033-17.317 5.992-19.266 11.202-.288.769.325 1.632 1.048 1.845 6.458 1.901 15.85-13.395 10.607-18.053-2.946-2.617-8.694-1.03-11.646.729-2.425 1.445-8.569 6.415-6.353 9.996 2.045 3.306 6.72 1.534 8.822-.603 3.073-3.123 4.651-9.106 3.086-13.265-3.587-9.531-18.274-1.189-19.002 6.325-.118 1.219 1.338 1.753 2.257 1.295 6.624-3.301 16.584-12.278 7.245-19.027-7.506-5.424-15.608 1.687-15.808 9.654-.031 1.248 1.272 1.72 2.257 1.295 4.352-1.879 8.212-5.486 8.639-10.474.339-3.956-1.68-8.336-5.476-9.919-3.725-1.553-8.127.1-10.477 3.249-1.596 2.139-3.07 7.242.497 8.4 3.599 1.169 6.839-3.829 7.813-6.52 1.546-4.274.641-9.081-3.121-11.865-2.976-2.202-6.983-2.568-10.052-.357-3.859 2.78-4.577 7.979-5.042 12.358-.204 1.923 2.798 1.909 3 .005z"/><path d="m32.114 300.025 33.5 33.5" fill="#f6e58d" stroke="#000" stroke-miterlimit="10" stroke-width="4"/><path d="m59.114 308.025 19.5 19.5" fill="#f6e58d" stroke="#000" stroke-miterlimit="10" stroke-width="4"/><path d="m70.114 248.025-48 26-6-12 48-26z" fill="#f9ca24" stroke="#000" stroke-miterlimit="10" stroke-width="4"/><path d="m16.114 262.025 6 12-9.18 5.007c-.994.542-2.24.152-2.747-.861l-4.21-8.42c-.482-.963-.114-2.135.831-2.65z" fill="#ff7979" stroke="#000" stroke-miterlimit="10" stroke-width="4"/><path d="m66.114 235.025 18-3-13 15-8-3z" fill="#fcf5f5" stroke="#000" stroke-miterlimit="10" stroke-width="4"/></svg>