<?xml version="1.0" encoding="utf-8"?>
<!-- Generator: Adobe Illustrator 22.1.0, SVG Export Plug-In . SVG Version: 6.00 Build 0)  -->
<svg version="1.1" xmlns="http://www.w3.org/2000/svg" xmlns:xlink="http://www.w3.org/1999/xlink" x="0px" y="0px"
	 viewBox="0 0 316.073 527.071" style="enable-background:new 0 0 316.073 527.071;" xml:space="preserve">
<style type="text/css">
	.st0{display:none;}
	.st1{fill:none;stroke:#000000;stroke-width:4;stroke-miterlimit:10;}
	.st2{fill:none;stroke:#000000;stroke-width:5;stroke-miterlimit:10;}
	.st3{fill:#0984E3;stroke:#000000;stroke-width:4;stroke-miterlimit:10;}
	.st4{fill:none;stroke:#000000;stroke-width:3.3533;stroke-miterlimit:10;}
	.st5{fill:#F1C40F;stroke:#000000;stroke-width:4;stroke-miterlimit:10;}
</style>
<g id="Layer_1" class="st0">
	
		<image style="display:inline;overflow:visible;" width="572" height="356" xlink:href="../../../Desktop/Screen Shot 2018-08-16 at 10.18.23 PM.png"  transform="matrix(2.0734 0 0 2.0734 -93.9294 -46)">
	</image>
</g>
<g id="colored_body">
	<path class="st1" d="M202.071,154c46.866-3.686,91,34,96,92s-32,102-84,107s-92-28-105-66S113.071,161,202.071,154z"/>
	<circle class="st2" cx="150.071" cy="259" r="1.5"/>
	<circle class="st2" cx="182.071" cy="262" r="1.5"/>
	<line class="st1" x1="166.071" y1="314" x2="188.071" y2="314"/>
	<path class="st3" d="M314.071,527c0,0,0.678-108.643-20-150c-15-30-52.668-30.698-52.668-30.698s-16.332,7.201-39.542,7.201
		s-32.188-5.81-32.188-5.81S150.071,352,135.071,366s-48,51-48,51l-53,1c0,0,0,10,0,15s-2,13-2,13s0,4,0,15s-4,27-4,27s20,15,49,15
		s60-4,60-4l-1,28"/>
	<path class="st3" d="M34.071,417"/>
</g>
<g id="hands_n_arm_lines">
	<path class="st1" d="M137.071,499c0,0,23-1,29-6s71-61,71-61"/>
	<path class="st4" d="M137.571,437.5c0,0,0.282-7.114,2-20c2-15,5-22,5-22"/>
	<path class="st1" d="M28.071,488c-9,7-21,8-22-9s-12-64,7-62s19,29,19,29s90,5,108-9s65-49,65-49"/>
	<path class="st1" d="M7.022,418c0,0-3.951-30,7.049-32c9.888-1.798,20,9,20,20s0,11,0,11"/>
</g>
<g id="Layer_4">
	<polygon class="st5" points="166.071,2 188.071,2 184.071,69 173.071,69 	"/>
	<path class="st5" d="M178.071,88c7,0,8,5,8,9s-3,7-7,7s-7-3-7-8S174.071,88,178.071,88z"/>
</g>
</svg>
