<svg enable-background="new 0 0 316.073 527.071" viewBox="0 0 316.073 527.071" xmlns="http://www.w3.org/2000/svg"><g stroke="#000" stroke-miterlimit="10"><path d="m114.003 154c-46.866-3.686-91 34-96 92s32 102 84 107 92-28 105-66-4-126-93-133z" fill="#fff" stroke-width="4"/><circle cx="165.003" cy="260" fill="none" r="1.5" stroke-width="5"/><circle cx="134.003" cy="262" fill="none" r="1.5" stroke-width="5"/><path d="m150.003 314h-22" fill="none" stroke-width="4"/><path d="m2.003 527s-.678-108.643 20-150c15-30 52.668-30.698 52.668-30.698s16.332 7.201 39.542 7.201 32.188-5.81 32.188-5.81 19.602 4.307 34.602 18.307 48 51 48 51l53 1v15l2 13v15s4 27 4 27-20 15-49 15-60-4-60-4l1 28" fill="#0984e3" stroke-width="4"/><path d="m179.003 499s-23-1-29-6-71-61-71-61" fill="none" stroke-width="4"/><path d="m178.503 437.5s-.282-7.114-2-20c-2-15-5-22-5-22" fill="none" stroke-width="3.3533"/><g stroke-width="4"><path d="m288.003 488c9 7 21 8 22-9s12-64-7-62-19 29-19 29-90 5-108-9-65-49-65-49" fill="none"/><path d="m309.051 418s3.951-30-7.049-32c-9.888-1.798-20 9-20 20s0 11 0 11" fill="none"/><path d="m150.003 2h-22l4 67h11z" fill="#f1c40f"/><path d="m138.003 88c-7 0-8 5-8 9s3 7 7 7 7-3 7-8-2-8-6-8z" fill="#f1c40f"/></g></g></svg>