<?xml version="1.0" encoding="utf-8"?>
<!-- Generator: Adobe Illustrator 22.1.0, SVG Export Plug-In . SVG Version: 6.00 Build 0)  -->
<svg version="1.1" xmlns="http://www.w3.org/2000/svg" xmlns:xlink="http://www.w3.org/1999/xlink" x="0px" y="0px"
	 viewBox="0 0 316.073 527.071" style="enable-background:new 0 0 316.073 527.071;" xml:space="preserve">
<style type="text/css">
	.st0{display:none;}
	.st1{fill:none;stroke:#000000;stroke-width:4;stroke-miterlimit:10;}
	.st2{fill:none;stroke:#000000;stroke-width:5;stroke-miterlimit:10;}
	.st3{fill:#0984E3;stroke:#000000;stroke-width:4;stroke-miterlimit:10;}
	.st4{fill:none;stroke:#000000;stroke-width:3.3533;stroke-miterlimit:10;}
	.st5{fill:#F1C40F;stroke:#000000;stroke-width:4;stroke-miterlimit:10;}
</style>
<g id="Layer_1" class="st0">
	
		<image style="display:inline;overflow:visible;" width="572" height="356" xlink:href="../../../Desktop/Screen Shot 2018-08-16 at 10.18.23 PM.png"  transform="matrix(2.0734 0 0 2.0734 -93.9294 -46)">
	</image>
</g>
<g id="colored_body">
	<path class="st1" d="M114.003,154c-46.866-3.686-91,34-96,92s32,102,84,107s92-28,105-66S203.003,161,114.003,154z"/>
	<circle class="st2" cx="165.003" cy="260" r="1.5"/>
	<circle class="st2" cx="134.003" cy="262" r="1.5"/>
	<line class="st1" x1="150.003" y1="314" x2="128.003" y2="314"/>
	<path class="st3" d="M2.003,527c0,0-0.678-108.643,20-150c15-30,52.668-30.698,52.668-30.698s16.332,7.201,39.542,7.201
		s32.188-5.81,32.188-5.81S166.003,352,181.003,366s48,51,48,51l53,1c0,0,0,10,0,15s2,13,2,13s0,4,0,15s4,27,4,27s-20,15-49,15
		s-60-4-60-4l1,28"/>
	<path class="st3" d="M282.003,417"/>
</g>
<g id="hands_n_arm_lines">
	<path class="st1" d="M179.003,499c0,0-23-1-29-6s-71-61-71-61"/>
	<path class="st4" d="M178.503,437.5c0,0-0.282-7.114-2-20c-2-15-5-22-5-22"/>
	<path class="st1" d="M288.003,488c9,7,21,8,22-9s12-64-7-62s-19,29-19,29s-90,5-108-9s-65-49-65-49"/>
	<path class="st1" d="M309.051,418c0,0,3.951-30-7.049-32c-9.888-1.798-20,9-20,20s0,11,0,11"/>
</g>
<g id="Layer_4">
	<polygon class="st5" points="150.003,2 128.003,2 132.003,69 143.003,69 	"/>
	<path class="st5" d="M138.003,88c-7,0-8,5-8,9s3,7,7,7s7-3,7-8S142.003,88,138.003,88z"/>
</g>
</svg>
